<svg width="487" height="400" viewBox="0 0 487 400" fill="none" xmlns="http://www.w3.org/2000/svg">
<g clip-path="url(#clip0_4097_764)">
<rect width="486.531" height="400" fill="black"/>
<path d="M38.8914 306.939V316.983" stroke="white" stroke-opacity="0.5" stroke-width="2" stroke-miterlimit="10"/>
<path d="M43.9217 311.946L33.885 311.968" stroke="white" stroke-opacity="0.5" stroke-width="2" stroke-miterlimit="10"/>
<path d="M43.9217 370.99H33.885" stroke="white" stroke-opacity="0.5" stroke-width="2" stroke-miterlimit="10"/>
<path d="M38.8829 351.679C40.9343 351.687 42.9421 351.087 44.6516 349.953C46.361 348.818 47.6951 347.202 48.4845 345.309C49.274 343.415 49.4832 341.33 49.0857 339.317C48.6882 337.305 47.7018 335.456 46.2518 334.005C44.8017 332.554 42.9533 331.566 40.941 331.167C38.9288 330.768 36.8433 330.976 34.9493 331.764C33.0553 332.552 31.4381 333.885 30.3028 335.593C29.1675 337.302 28.5653 339.309 28.5726 341.361C28.5823 344.093 29.6715 346.711 31.6027 348.643C33.534 350.576 36.1508 351.667 38.8829 351.679Z" stroke="white" stroke-opacity="0.5" stroke-width="2" stroke-miterlimit="10"/>
<path d="M38.8914 331.051V334.046" stroke="white" stroke-opacity="0.5" stroke-width="2" stroke-miterlimit="10"/>
<path d="M49.2094 341.361H46.2065" stroke="white" stroke-opacity="0.5" stroke-width="2" stroke-miterlimit="10"/>
<path d="M38.8914 351.679V348.683" stroke="white" stroke-opacity="0.5" stroke-width="2" stroke-miterlimit="10"/>
<path d="M28.5725 341.361H31.5754" stroke="white" stroke-opacity="0.5" stroke-width="2" stroke-miterlimit="10"/>
<path d="M38.8467 338.706V341.368L42.2268 344.741" stroke="white" stroke-opacity="0.5" stroke-width="2" stroke-miterlimit="10"/>
<path fill-rule="evenodd" clip-rule="evenodd" d="M84.5985 319.387C85.3299 319.387 86.0449 319.17 86.6531 318.764C87.2612 318.357 87.7352 317.78 88.0151 317.104C88.295 316.428 88.3683 315.685 88.2256 314.967C88.0829 314.25 87.7307 313.591 87.2135 313.074C86.6963 312.557 86.0373 312.204 85.32 312.062C84.6026 311.919 83.859 311.992 83.1833 312.272C82.5076 312.552 81.93 313.026 81.5236 313.634C81.1173 314.242 80.9004 314.957 80.9004 315.689C80.9004 316.67 81.29 317.61 81.9836 318.304C82.6771 318.997 83.6177 319.387 84.5985 319.387Z" fill="white" fill-opacity="0.5"/>
<path d="M83.5664 313.196C84.0593 312.992 84.6018 312.938 85.125 313.042C85.6483 313.147 86.1295 313.403 86.5068 313.781C86.8841 314.158 87.141 314.639 87.2451 315.163C87.3492 315.686 87.295 316.228 87.0908 316.721C86.8866 317.214 86.5413 317.636 86.0977 317.932C85.654 318.229 85.1322 318.387 84.5986 318.387L84.332 318.374C83.7144 318.312 83.1332 318.04 82.6904 317.597C82.1845 317.091 81.9004 316.404 81.9004 315.689C81.9004 315.155 82.059 314.634 82.3555 314.19C82.6519 313.746 83.0734 313.4 83.5664 313.196Z" stroke="white" stroke-opacity="0.5" stroke-width="2"/>
<path fill-rule="evenodd" clip-rule="evenodd" d="M84.5985 332.471C85.3299 332.471 86.0449 332.254 86.6531 331.848C87.2612 331.441 87.7352 330.864 88.0151 330.188C88.295 329.512 88.3683 328.769 88.2256 328.051C88.0829 327.334 87.7307 326.675 87.2135 326.158C86.6963 325.641 86.0373 325.288 85.32 325.146C84.6026 325.003 83.859 325.076 83.1833 325.356C82.5076 325.636 81.93 326.11 81.5236 326.718C81.1173 327.326 80.9004 328.041 80.9004 328.773C80.9004 329.754 81.29 330.694 81.9836 331.388C82.6771 332.081 83.6177 332.471 84.5985 332.471Z" fill="white" fill-opacity="0.5"/>
<path d="M83.5664 326.28C84.0593 326.076 84.6018 326.022 85.125 326.126C85.6483 326.231 86.1295 326.487 86.5068 326.865C86.8841 327.242 87.141 327.723 87.2451 328.247C87.3492 328.77 87.295 329.312 87.0908 329.805C86.8866 330.298 86.5413 330.72 86.0977 331.016C85.654 331.313 85.1322 331.471 84.5986 331.471L84.332 331.458C83.7144 331.396 83.1332 331.124 82.6904 330.681C82.1845 330.175 81.9004 329.488 81.9004 328.773C81.9004 328.239 82.059 327.718 82.3555 327.274C82.6519 326.83 83.0734 326.484 83.5664 326.28Z" stroke="white" stroke-opacity="0.5" stroke-width="2"/>
<path d="M79.536 314.905H76.9399V329.498H79.536" stroke="white" stroke-opacity="0.5" stroke-width="2" stroke-miterlimit="10"/>
<path d="M89.6694 329.498H92.2655V314.905H89.6694" stroke="white" stroke-opacity="0.5" stroke-width="2" stroke-miterlimit="10"/>
<path d="M141.578 320.038C142.338 320.036 143.082 319.809 143.713 319.385C144.345 318.962 144.837 318.36 145.126 317.657C145.416 316.953 145.491 316.18 145.341 315.434C145.191 314.688 144.824 314.004 144.285 313.467C143.746 312.93 143.06 312.565 142.313 312.418C141.567 312.271 140.794 312.349 140.092 312.641C139.39 312.934 138.79 313.428 138.368 314.061C137.947 314.694 137.723 315.438 137.724 316.199C137.728 317.219 138.136 318.195 138.858 318.914C139.58 319.634 140.558 320.038 141.578 320.038Z" stroke="white" stroke-opacity="0.5" stroke-width="2" stroke-miterlimit="10"/>
<path d="M141.578 331.783C142.342 331.784 143.089 331.559 143.725 331.136C144.361 330.712 144.857 330.11 145.15 329.404C145.443 328.699 145.521 327.923 145.373 327.173C145.225 326.424 144.857 325.735 144.318 325.194C143.778 324.654 143.09 324.285 142.341 324.136C141.592 323.986 140.815 324.062 140.109 324.354C139.404 324.646 138.8 325.141 138.376 325.776C137.951 326.411 137.724 327.158 137.724 327.922C137.728 328.943 138.135 329.922 138.857 330.645C139.578 331.368 140.556 331.777 141.578 331.783Z" stroke="white" stroke-opacity="0.5" stroke-width="2" stroke-miterlimit="10"/>
<path fill-rule="evenodd" clip-rule="evenodd" d="M129.736 320.038C130.496 320.035 131.238 319.807 131.869 319.382C132.5 318.957 132.99 318.355 133.279 317.652C133.568 316.948 133.641 316.175 133.491 315.43C133.34 314.684 132.972 314 132.433 313.464C131.893 312.928 131.207 312.564 130.461 312.418C129.715 312.271 128.942 312.349 128.24 312.642C127.539 312.935 126.939 313.429 126.518 314.062C126.097 314.695 125.873 315.439 125.875 316.199C125.879 317.22 126.287 318.197 127.011 318.917C127.735 319.637 128.715 320.04 129.736 320.038Z" fill="white"/>
<path d="M128.626 313.565C129.145 313.349 129.716 313.291 130.268 313.399C130.82 313.508 131.328 313.777 131.727 314.174C132.126 314.571 132.399 315.076 132.51 315.628C132.622 316.179 132.568 316.752 132.354 317.272C132.141 317.793 131.777 318.238 131.31 318.553C130.844 318.867 130.295 319.035 129.733 319.037C128.978 319.038 128.252 318.741 127.717 318.208C127.247 317.742 126.957 317.129 126.889 316.477L126.875 316.195C126.874 315.633 127.04 315.083 127.351 314.615C127.663 314.147 128.107 313.782 128.626 313.565Z" stroke="white" stroke-opacity="0.5" stroke-width="2"/>
<path d="M129.736 331.783C130.499 331.783 131.246 331.556 131.881 331.132C132.515 330.708 133.01 330.105 133.303 329.399C133.595 328.694 133.671 327.918 133.522 327.169C133.373 326.42 133.006 325.732 132.466 325.192C131.926 324.652 131.238 324.284 130.489 324.135C129.74 323.986 128.964 324.063 128.258 324.355C127.553 324.647 126.95 325.142 126.525 325.777C126.101 326.412 125.875 327.158 125.875 327.922C125.879 328.945 126.287 329.924 127.01 330.648C127.733 331.371 128.713 331.779 129.736 331.783Z" stroke="white" stroke-opacity="0.5" stroke-width="2" stroke-miterlimit="10"/>
<path d="M141.578 364.001C142.342 364.002 143.09 363.777 143.726 363.353C144.362 362.93 144.858 362.327 145.151 361.621C145.444 360.915 145.521 360.138 145.372 359.389C145.223 358.639 144.856 357.951 144.315 357.41C143.775 356.87 143.086 356.502 142.337 356.353C141.587 356.204 140.81 356.281 140.104 356.575C139.399 356.868 138.796 357.364 138.372 358C137.948 358.636 137.723 359.383 137.724 360.148C137.726 361.169 138.133 362.148 138.855 362.87C139.577 363.592 140.556 363.999 141.578 364.001Z" stroke="white" stroke-opacity="0.5" stroke-width="2" stroke-miterlimit="10"/>
<path d="M141.578 375.746C142.342 375.748 143.089 375.522 143.725 375.099C144.361 374.676 144.857 374.073 145.15 373.368C145.443 372.663 145.521 371.886 145.373 371.137C145.225 370.387 144.857 369.699 144.318 369.158C143.778 368.617 143.09 368.249 142.341 368.099C141.592 367.95 140.815 368.026 140.109 368.318C139.404 368.61 138.8 369.104 138.376 369.74C137.951 370.375 137.724 371.121 137.724 371.885C137.728 372.907 138.135 373.885 138.857 374.608C139.578 375.331 140.556 375.74 141.578 375.746Z" stroke="white" stroke-opacity="0.5" stroke-width="2" stroke-miterlimit="10"/>
<path fill-rule="evenodd" clip-rule="evenodd" d="M129.736 375.746C130.499 375.746 131.246 375.52 131.881 375.095C132.515 374.671 133.01 374.068 133.303 373.363C133.595 372.657 133.671 371.881 133.522 371.132C133.373 370.383 133.006 369.695 132.466 369.155C131.926 368.615 131.238 368.248 130.489 368.099C129.74 367.95 128.964 368.026 128.258 368.318C127.553 368.611 126.95 369.105 126.525 369.74C126.101 370.375 125.875 371.122 125.875 371.885C125.877 372.909 126.284 373.889 127.008 374.613C127.731 375.337 128.712 375.744 129.736 375.746Z" fill="white"/>
<path d="M128.64 369.242C129.163 369.026 129.739 368.969 130.294 369.079C130.849 369.189 131.358 369.462 131.759 369.862C132.159 370.262 132.431 370.772 132.542 371.327C132.652 371.882 132.595 372.458 132.379 372.98C132.162 373.503 131.795 373.949 131.325 374.264C130.855 374.578 130.302 374.745 129.736 374.745C128.978 374.743 128.251 374.442 127.715 373.906C127.178 373.37 126.877 372.643 126.875 371.885C126.875 371.319 127.043 370.766 127.357 370.296C127.671 369.826 128.118 369.459 128.64 369.242Z" stroke="white" stroke-opacity="0.5" stroke-width="2"/>
<path d="M129.736 364.001C130.5 364.001 131.246 363.774 131.881 363.35C132.516 362.925 133.011 362.322 133.303 361.616C133.595 360.91 133.671 360.133 133.522 359.384C133.372 358.635 133.004 357.947 132.463 357.407C131.922 356.868 131.234 356.501 130.484 356.353C129.735 356.204 128.958 356.282 128.253 356.575C127.548 356.869 126.945 357.365 126.522 358.001C126.098 358.636 125.873 359.384 125.875 360.148C125.875 360.654 125.975 361.156 126.169 361.624C126.363 362.092 126.647 362.517 127.006 362.875C127.365 363.233 127.79 363.517 128.259 363.71C128.727 363.903 129.229 364.002 129.736 364.001Z" stroke="white" stroke-opacity="0.5" stroke-width="2" stroke-miterlimit="10"/>
<path d="M188.695 318.825H174.332V331.591H188.695V318.825Z" stroke="white" stroke-opacity="0.5" stroke-width="2" stroke-miterlimit="10"/>
<path d="M177.016 316.517C177.016 315.324 177.49 314.18 178.333 313.337C179.177 312.494 180.321 312.02 181.513 312.02C182.706 312.02 183.85 312.494 184.693 313.337C185.536 314.18 186.01 315.324 186.01 316.517" stroke="white" stroke-opacity="0.5" stroke-width="2" stroke-miterlimit="10"/>
<path d="M177.016 316.517V318.825" stroke="white" stroke-opacity="0.5" stroke-width="2" stroke-miterlimit="10"/>
<path d="M186.009 316.517V318.825" stroke="white" stroke-opacity="0.5" stroke-width="2" stroke-miterlimit="10"/>
<path fill-rule="evenodd" clip-rule="evenodd" d="M181.52 322.012C181.811 322.014 182.093 322.114 182.32 322.297C182.547 322.48 182.705 322.734 182.768 323.018C182.832 323.303 182.797 323.6 182.67 323.862C182.542 324.124 182.33 324.335 182.067 324.46L182.74 328.403H180.307L180.958 324.46C180.738 324.354 180.552 324.188 180.421 323.982C180.29 323.775 180.22 323.536 180.218 323.292C180.218 323.123 180.252 322.955 180.317 322.799C180.382 322.643 180.478 322.501 180.598 322.382C180.718 322.263 180.861 322.169 181.018 322.105C181.175 322.042 181.343 322.01 181.512 322.012H181.52Z" fill="white"/>
<path d="M181.555 327.403H181.486L181.519 327.196L181.555 327.403ZM181.501 323.012H181.514L181.562 323.017C181.609 323.025 181.655 323.045 181.693 323.076C181.743 323.116 181.778 323.173 181.792 323.237C181.806 323.3 181.799 323.366 181.771 323.424C181.742 323.483 181.695 323.53 181.636 323.558L181.511 323.617L181.393 323.56C181.341 323.535 181.297 323.496 181.266 323.447C181.236 323.399 181.219 323.343 181.218 323.287C181.219 323.251 181.226 323.217 181.24 323.184C181.254 323.15 181.275 323.119 181.301 323.093C181.327 323.067 181.359 323.047 181.393 323.033C181.41 323.026 181.428 323.02 181.446 323.017L181.501 323.012Z" stroke="white" stroke-opacity="0.5" stroke-width="2"/>
<path d="M232.782 314.254H229.491V329.453H232.782V314.254Z" stroke="white" stroke-opacity="0.5" stroke-width="2" stroke-miterlimit="10"/>
<path d="M239.912 314.254H236.621V329.453H239.912V314.254Z" stroke="white" stroke-opacity="0.5" stroke-width="2" stroke-miterlimit="10"/>
<path d="M291.99 335.636C294.657 335.639 297.266 334.851 299.485 333.371C301.704 331.891 303.435 329.786 304.458 327.323C305.48 324.859 305.749 322.148 305.231 319.531C304.712 316.915 303.429 314.511 301.544 312.624C299.659 310.737 297.257 309.451 294.641 308.93C292.025 308.408 289.313 308.674 286.848 309.694C284.384 310.714 282.277 312.443 280.795 314.66C279.313 316.878 278.521 319.485 278.521 322.153C278.529 325.726 279.952 329.151 282.479 331.678C285.006 334.205 288.431 335.628 292.005 335.636H291.99Z" stroke="white" stroke-opacity="0.5" stroke-width="2" stroke-miterlimit="10"/>
<path d="M291.991 313.063V331.258" stroke="white" stroke-opacity="0.5" stroke-width="2" stroke-miterlimit="10"/>
<path d="M350.266 323.499C351.205 324.442 351.732 325.719 351.73 327.05C351.728 328.381 351.197 329.656 350.255 330.596C349.312 331.535 348.035 332.062 346.704 332.06C345.373 332.058 344.098 331.527 343.158 330.585L350.266 323.499Z" stroke="white" stroke-opacity="0.5" stroke-width="2" stroke-miterlimit="10"/>
<path d="M350.262 323.499C351.202 322.56 352.476 322.032 353.805 322.032C354.463 322.032 355.115 322.161 355.723 322.413C356.33 322.665 356.883 323.034 357.348 323.499C357.813 323.964 358.182 324.517 358.434 325.125C358.686 325.733 358.816 326.384 358.816 327.042C358.816 327.7 358.686 328.351 358.434 328.959C358.182 329.567 357.813 330.12 357.348 330.585L350.262 323.499Z" stroke="white" stroke-opacity="0.5" stroke-width="2" stroke-miterlimit="10"/>
<path d="M350.263 323.499C349.324 322.56 348.796 321.285 348.796 319.957C348.796 318.628 349.324 317.353 350.263 316.414C351.203 315.474 352.477 314.946 353.806 314.946C355.135 314.946 356.409 315.474 357.349 316.414L350.263 323.499Z" stroke="white" stroke-opacity="0.5" stroke-width="2" stroke-miterlimit="10"/>
<path fill-rule="evenodd" clip-rule="evenodd" d="M346.081 320.185C346.259 320.185 346.432 320.132 346.58 320.033C346.727 319.934 346.842 319.794 346.909 319.629C346.977 319.465 346.993 319.284 346.958 319.11C346.922 318.936 346.835 318.777 346.709 318.652C346.582 318.528 346.421 318.444 346.246 318.411C346.072 318.378 345.891 318.398 345.728 318.468C345.565 318.538 345.426 318.655 345.33 318.804C345.233 318.953 345.183 319.128 345.186 319.305C345.186 319.422 345.209 319.538 345.255 319.646C345.3 319.753 345.366 319.851 345.449 319.933C345.532 320.015 345.631 320.079 345.74 320.123C345.848 320.166 345.964 320.187 346.081 320.185Z" fill="white"/>
<path d="M346.099 319.191C346.09 319.189 346.081 319.187 346.071 319.187C346.06 319.188 346.05 319.19 346.04 319.194L346.022 319.203C346.01 319.211 346.001 319.222 345.994 319.233L345.984 319.251C345.976 319.27 345.974 319.291 345.978 319.312C345.982 319.332 345.992 319.351 346.007 319.365C346.022 319.38 346.042 319.39 346.062 319.394C346.082 319.397 346.104 319.395 346.123 319.387C346.142 319.378 346.158 319.365 346.169 319.348C346.179 319.333 346.183 319.316 346.184 319.299C346.184 319.295 346.183 319.292 346.182 319.289M346.099 319.191L346.088 319.248M346.099 319.191L346.088 319.248M346.099 319.191L346.111 319.194M346.088 319.248L346.111 319.194M346.088 319.248L346.111 319.194M346.111 319.194L346.15 319.22M346.15 319.22L346.081 319.289M346.15 319.22L346.081 319.289M346.15 319.22L346.177 319.259M346.081 319.289V319.29M346.081 319.289V319.29M346.081 319.29L346.182 319.289M346.081 319.29H346.101M346.182 319.289L346.101 319.29M346.182 319.289C346.181 319.282 346.181 319.276 346.179 319.27M346.177 319.259L346.101 319.29M346.177 319.259L346.122 319.281M346.177 319.259L346.179 319.27M346.101 319.29L346.122 319.281M346.122 319.281L346.179 319.27M346.122 319.281L346.179 319.27" stroke="white" stroke-opacity="0.5" stroke-width="2"/>
<path d="M337.775 321.021C338.282 318.473 339.559 316.142 341.433 314.343C343.307 312.544 345.689 311.364 348.256 310.962" stroke="white" stroke-opacity="0.5" stroke-width="2" stroke-miterlimit="10"/>
<path d="M340.715 321.132C341.172 319.386 342.106 317.802 343.412 316.557C344.719 315.313 346.346 314.456 348.112 314.083" stroke="white" stroke-opacity="0.5" stroke-width="2" stroke-miterlimit="10"/>
<path d="M442.248 364.001C443.012 364.001 443.759 363.774 444.394 363.35C445.029 362.925 445.524 362.322 445.816 361.616C446.108 360.91 446.184 360.133 446.034 359.384C445.885 358.635 445.516 357.947 444.976 357.407C444.435 356.868 443.746 356.501 442.997 356.353C442.248 356.204 441.471 356.282 440.766 356.575C440.06 356.869 439.458 357.365 439.034 358.001C438.611 358.636 438.386 359.384 438.387 360.148C438.389 361.17 438.797 362.15 439.521 362.873C440.245 363.595 441.226 364.001 442.248 364.001Z" stroke="white" stroke-opacity="0.5" stroke-width="2" stroke-miterlimit="10"/>
<path d="M442.248 375.746C443.012 375.746 443.758 375.52 444.393 375.095C445.028 374.671 445.523 374.068 445.815 373.363C446.107 372.657 446.184 371.881 446.035 371.132C445.886 370.383 445.518 369.695 444.978 369.155C444.438 368.615 443.75 368.248 443.001 368.099C442.253 367.95 441.476 368.026 440.771 368.318C440.065 368.611 439.462 369.105 439.038 369.74C438.614 370.375 438.387 371.122 438.387 371.885C438.391 372.908 438.799 373.888 439.523 374.611C440.246 375.334 441.226 375.742 442.248 375.746Z" stroke="white" stroke-opacity="0.5" stroke-width="2" stroke-miterlimit="10"/>
<path fill-rule="evenodd" clip-rule="evenodd" d="M454.098 375.746C454.862 375.746 455.608 375.52 456.243 375.095C456.878 374.671 457.373 374.068 457.665 373.363C457.957 372.657 458.034 371.881 457.885 371.132C457.736 370.383 457.368 369.695 456.828 369.155C456.288 368.615 455.6 368.248 454.851 368.099C454.102 367.95 453.326 368.026 452.62 368.318C451.915 368.611 451.312 369.105 450.888 369.74C450.464 370.375 450.237 371.122 450.237 371.885C450.239 372.909 450.646 373.889 451.37 374.613C452.094 375.337 453.075 375.744 454.098 375.746Z" fill="white"/>
<path d="M453.003 369.242C453.525 369.026 454.101 368.969 454.656 369.079C455.211 369.189 455.721 369.462 456.121 369.862C456.521 370.262 456.794 370.772 456.904 371.327C457.014 371.882 456.957 372.458 456.741 372.98C456.524 373.503 456.158 373.949 455.687 374.264C455.217 374.578 454.664 374.745 454.098 374.745C453.34 374.743 452.613 374.442 452.077 373.906C451.541 373.37 451.239 372.643 451.237 371.885C451.237 371.319 451.405 370.766 451.719 370.296C452.034 369.826 452.48 369.459 453.003 369.242Z" stroke="white" stroke-opacity="0.5" stroke-width="2"/>
<path d="M454.098 364.001C454.862 364.001 455.609 363.774 456.244 363.35C456.879 362.925 457.374 362.322 457.666 361.616C457.958 360.91 458.034 360.133 457.884 359.384C457.734 358.635 457.366 357.947 456.825 357.407C456.285 356.868 455.596 356.501 454.847 356.353C454.097 356.204 453.321 356.282 452.615 356.575C451.91 356.869 451.307 357.365 450.884 358.001C450.461 358.636 450.236 359.384 450.237 360.148C450.237 360.654 450.337 361.156 450.531 361.624C450.725 362.092 451.01 362.517 451.368 362.875C451.727 363.233 452.153 363.517 452.621 363.71C453.089 363.903 453.591 364.002 454.098 364.001Z" stroke="white" stroke-opacity="0.5" stroke-width="2" stroke-miterlimit="10"/>
<path d="M442.248 331.842C443.012 331.842 443.758 331.616 444.393 331.192C445.028 330.767 445.523 330.164 445.815 329.459C446.107 328.753 446.184 327.977 446.035 327.228C445.886 326.479 445.518 325.791 444.978 325.251C444.438 324.711 443.75 324.344 443.001 324.195C442.253 324.046 441.476 324.122 440.771 324.414C440.065 324.707 439.462 325.202 439.038 325.836C438.614 326.471 438.387 327.218 438.387 327.981C438.387 329.005 438.794 329.987 439.518 330.711C440.242 331.436 441.224 331.842 442.248 331.842Z" stroke="white" stroke-opacity="0.5" stroke-width="2" stroke-miterlimit="10"/>
<path d="M442.248 320.119C443.012 320.119 443.759 319.892 444.394 319.468C445.029 319.043 445.524 318.44 445.816 317.734C446.108 317.028 446.184 316.251 446.034 315.502C445.885 314.753 445.516 314.065 444.976 313.526C444.435 312.986 443.746 312.619 442.997 312.471C442.248 312.323 441.471 312.4 440.766 312.693C440.06 312.987 439.458 313.483 439.034 314.119C438.611 314.755 438.386 315.502 438.387 316.266C438.393 317.287 438.802 318.265 439.525 318.987C440.248 319.708 441.227 320.115 442.248 320.119Z" stroke="white" stroke-opacity="0.5" stroke-width="2" stroke-miterlimit="10"/>
<path fill-rule="evenodd" clip-rule="evenodd" d="M454.098 320.119C454.862 320.119 455.609 319.892 456.244 319.468C456.879 319.043 457.374 318.44 457.666 317.734C457.958 317.028 458.034 316.251 457.884 315.502C457.734 314.753 457.366 314.065 456.825 313.526C456.285 312.986 455.596 312.619 454.847 312.471C454.097 312.323 453.321 312.4 452.615 312.693C451.91 312.987 451.307 313.483 450.884 314.119C450.461 314.755 450.236 315.502 450.237 316.266C450.241 317.288 450.649 318.267 451.373 318.989C452.096 319.711 453.076 320.117 454.098 320.119Z" fill="white"/>
<path d="M453 313.617C453.522 313.4 454.098 313.342 454.653 313.452C455.208 313.562 455.718 313.834 456.119 314.233C456.52 314.633 456.792 315.143 456.903 315.698C457.014 316.253 456.958 316.829 456.742 317.352C456.526 317.875 456.159 318.322 455.688 318.637C455.218 318.951 454.664 319.118 454.098 319.118C453.341 319.116 452.615 318.816 452.079 318.281C451.609 317.813 451.319 317.198 451.252 316.544L451.237 316.262C451.236 315.696 451.403 315.143 451.717 314.673C452.03 314.202 452.477 313.835 453 313.617Z" stroke="white" stroke-opacity="0.5" stroke-width="2"/>
<path d="M454.098 331.842C454.862 331.842 455.608 331.616 456.243 331.192C456.878 330.767 457.373 330.164 457.665 329.459C457.957 328.753 458.034 327.977 457.885 327.228C457.736 326.479 457.368 325.791 456.828 325.251C456.288 324.711 455.6 324.344 454.851 324.195C454.102 324.046 453.326 324.122 452.62 324.414C451.915 324.707 451.312 325.202 450.888 325.836C450.464 326.471 450.237 327.218 450.237 327.981C450.237 328.488 450.337 328.991 450.531 329.459C450.725 329.927 451.009 330.353 451.368 330.711C451.726 331.07 452.152 331.354 452.62 331.548C453.089 331.742 453.591 331.842 454.098 331.842Z" stroke="white" stroke-opacity="0.5" stroke-width="2" stroke-miterlimit="10"/>
<path d="M390.898 367.973H384.338V375.835H390.898V367.973Z" fill="white"/>
<path d="M389.898 368.973V374.835H385.338V368.973H389.898Z" stroke="white" stroke-opacity="0.5" stroke-width="2"/>
<path d="M379.892 368.661H374.759V375.828H379.892V368.661Z" fill="white"/>
<path d="M378.892 369.661V374.828H375.759V369.661H378.892Z" stroke="white" stroke-opacity="0.5" stroke-width="2"/>
<path d="M371.079 369.312H366.589V375.835H371.079V369.312Z" fill="white"/>
<path d="M370.078 370.312V374.835H367.589V370.312H370.078Z" stroke="white" stroke-opacity="0.5" stroke-width="2"/>
<path d="M362.177 369.312H358.279V375.835H362.177V369.312Z" fill="white"/>
<path d="M361.177 370.312V374.835H359.279V370.312H361.177Z" stroke="white" stroke-opacity="0.5" stroke-width="2"/>
<path d="M353.455 369.312H349.535V375.835H353.455V369.312Z" fill="white"/>
<path d="M352.455 370.312V374.835H350.535V370.312H352.455Z" stroke="white" stroke-opacity="0.5" stroke-width="2"/>
<path d="M345.139 370.132H341.219V375.835H345.139V370.132Z" fill="white"/>
<path d="M344.139 371.132V374.834H342.219V371.132H344.139Z" stroke="white" stroke-opacity="0.5" stroke-width="2"/>
<path d="M336.957 370.132H333.037V375.835H336.957V370.132Z" fill="white"/>
<path d="M335.957 371.132V374.834H334.037V371.132H335.957Z" stroke="white" stroke-opacity="0.5" stroke-width="2"/>
<path d="M328.841 370.132H324.944V375.835H328.841V370.132Z" fill="white"/>
<path d="M327.841 371.132V374.834H325.944V371.132H327.841Z" stroke="white" stroke-opacity="0.5" stroke-width="2"/>
<path d="M320.685 370.798H317.667V375.827H320.685V370.798Z" fill="white"/>
<path d="M319.685 371.798V374.827H318.667V371.798H319.685Z" stroke="white" stroke-opacity="0.5" stroke-width="2"/>
<path d="M312.569 370.798H309.529V375.827H312.569V370.798Z" fill="white"/>
<path d="M311.569 371.798V374.827H310.529V371.798H311.569Z" stroke="white" stroke-opacity="0.5" stroke-width="2"/>
<path d="M303.73 370.798H300.69V375.827H303.73V370.798Z" fill="white"/>
<path d="M302.73 371.798V374.827H301.69V371.798H302.73Z" stroke="white" stroke-opacity="0.5" stroke-width="2"/>
<path d="M295.579 370.798H292.539V375.827H295.579V370.798Z" fill="white"/>
<path d="M294.579 371.798V374.827H293.539V371.798H294.579Z" stroke="white" stroke-opacity="0.5" stroke-width="2"/>
<path d="M286.746 371.575H283.707V375.828H286.746V371.575Z" fill="white"/>
<path d="M285.747 372.575V374.828H284.707V372.575H285.747Z" stroke="white" stroke-opacity="0.5" stroke-width="2"/>
<path d="M278.57 371.575H275.531V375.828H278.57V371.575Z" fill="white"/>
<path d="M277.571 372.575V374.828H276.531V372.575H277.571Z" stroke="white" stroke-opacity="0.5" stroke-width="2"/>
<path d="M270.413 371.575H267.374V375.828H270.413V371.575Z" fill="white"/>
<path d="M269.414 372.575V374.828H268.374V372.575H269.414Z" stroke="white" stroke-opacity="0.5" stroke-width="2"/>
<path d="M262.256 372.307H259.217V375.827H262.256V372.307Z" fill="white"/>
<path d="M261.257 373.307V374.827H260.217V373.307H261.257Z" stroke="white" stroke-opacity="0.5" stroke-width="2"/>
<path d="M254.131 372.307H251.927V375.827H254.131V372.307Z" fill="white"/>
<path d="M253.131 373.307V374.827H252.927V373.307H253.131Z" stroke="white" stroke-opacity="0.5" stroke-width="2"/>
<path d="M246.013 372.307H243.809V375.827H246.013V372.307Z" fill="white"/>
<path d="M245.013 373.307V374.827H244.809V373.307H245.013Z" stroke="white" stroke-opacity="0.5" stroke-width="2"/>
<path d="M238.634 373.061H236.43V375.827H238.634V373.061Z" fill="white"/>
<path d="M237.634 374.061V374.828H237.43V374.061H237.634Z" stroke="white" stroke-opacity="0.5" stroke-width="2"/>
<path d="M231.166 373.061H228.961V375.827H231.166V373.061Z" fill="white"/>
<path d="M230.166 374.061V374.828H229.961V374.061H230.166Z" stroke="white" stroke-opacity="0.5" stroke-width="2"/>
<mask id="path-94-inside-1_4097_764" fill="white">
<path d="M223.139 373.061H221.608V375.827H223.139V373.061Z"/>
</mask>
<path d="M223.139 373.061H221.608V375.827H223.139V373.061Z" fill="white"/>
<path d="M221.608 373.061V371.061H219.608V373.061H221.608ZM223.139 373.061H225.139V371.061H223.139V373.061ZM223.139 375.827V377.827H225.139V375.827H223.139ZM221.608 375.827H219.608V377.827H221.608V375.827ZM221.608 373.061V375.061H223.139V373.061V371.061H221.608V373.061ZM223.139 373.061H221.139V375.827H223.139H225.139V373.061H223.139ZM223.139 375.827V373.827H221.608V375.827V377.827H223.139V375.827ZM221.608 375.827H223.608V373.061H221.608H219.608V375.827H221.608Z" fill="white" fill-opacity="0.5" mask="url(#path-94-inside-1_4097_764)"/>
<mask id="path-96-inside-2_4097_764" fill="white">
<path d="M215.709 373.061H214.178V375.827H215.709V373.061Z"/>
</mask>
<path d="M215.709 373.061H214.178V375.827H215.709V373.061Z" fill="white"/>
<path d="M214.178 373.061V371.061H212.178V373.061H214.178ZM215.709 373.061H217.709V371.061H215.709V373.061ZM215.709 375.827V377.827H217.709V375.827H215.709ZM214.178 375.827H212.178V377.827H214.178V375.827ZM214.178 373.061V375.061H215.709V373.061V371.061H214.178V373.061ZM215.709 373.061H213.709V375.827H215.709H217.709V373.061H215.709ZM215.709 375.827V373.827H214.178V375.827V377.827H215.709V375.827ZM214.178 375.827H216.178V373.061H214.178H212.178V375.827H214.178Z" fill="white" fill-opacity="0.5" mask="url(#path-96-inside-2_4097_764)"/>
<mask id="path-98-inside-3_4097_764" fill="white">
<path d="M208.337 373.061H206.806V375.827H208.337V373.061Z"/>
</mask>
<path d="M208.337 373.061H206.806V375.827H208.337V373.061Z" fill="white"/>
<path d="M206.806 373.061V371.061H204.806V373.061H206.806ZM208.337 373.061H210.337V371.061H208.337V373.061ZM208.337 375.827V377.827H210.337V375.827H208.337ZM206.806 375.827H204.806V377.827H206.806V375.827ZM206.806 373.061V375.061H208.337V373.061V371.061H206.806V373.061ZM208.337 373.061H206.337V375.827H208.337H210.337V373.061H208.337ZM208.337 375.827V373.827H206.806V375.827V377.827H208.337V375.827ZM206.806 375.827H208.806V373.061H206.806H204.806V375.827H206.806Z" fill="white" fill-opacity="0.5" mask="url(#path-98-inside-3_4097_764)"/>
<mask id="path-100-inside-4_4097_764" fill="white">
<path d="M201.647 373.823H200.116V375.835H201.647V373.823Z"/>
</mask>
<path d="M201.647 373.823H200.116V375.835H201.647V373.823Z" fill="white"/>
<path d="M200.116 373.823V371.823H198.116V373.823H200.116ZM201.647 373.823H203.647V371.823H201.647V373.823ZM201.647 375.835V377.835H203.647V375.835H201.647ZM200.116 375.835H198.116V377.835H200.116V375.835ZM200.116 373.823V375.823H201.647V373.823V371.823H200.116V373.823ZM201.647 373.823H199.647V375.835H201.647H203.647V373.823H201.647ZM201.647 375.835V373.835H200.116V375.835V377.835H201.647V375.835ZM200.116 375.835H202.116V373.823H200.116H198.116V375.835H200.116Z" fill="white" fill-opacity="0.5" mask="url(#path-100-inside-4_4097_764)"/>
<mask id="path-102-inside-5_4097_764" fill="white">
<path d="M194.287 373.823H192.756V375.835H194.287V373.823Z"/>
</mask>
<path d="M194.287 373.823H192.756V375.835H194.287V373.823Z" fill="white"/>
<path d="M192.756 373.823V371.823H190.756V373.823H192.756ZM194.287 373.823H196.287V371.823H194.287V373.823ZM194.287 375.835V377.835H196.287V375.835H194.287ZM192.756 375.835H190.756V377.835H192.756V375.835ZM192.756 373.823V375.823H194.287V373.823V371.823H192.756V373.823ZM194.287 373.823H192.287V375.835H194.287H196.287V373.823H194.287ZM194.287 375.835V373.835H192.756V375.835V377.835H194.287V375.835ZM192.756 375.835H194.756V373.823H192.756H190.756V375.835H192.756Z" fill="white" fill-opacity="0.5" mask="url(#path-102-inside-5_4097_764)"/>
<mask id="path-104-inside-6_4097_764" fill="white">
<path d="M186.865 373.823H186.111V375.835H186.865V373.823Z"/>
</mask>
<path d="M186.865 373.823H186.111V375.835H186.865V373.823Z" fill="white"/>
<path d="M186.111 373.823V371.823H184.111V373.823H186.111ZM186.865 373.823H188.865V371.823H186.865V373.823ZM186.865 375.835V377.835H188.865V375.835H186.865ZM186.111 375.835H184.111V377.835H186.111V375.835ZM186.111 373.823V375.823H186.865V373.823V371.823H186.111V373.823ZM186.865 373.823H184.865V375.835H186.865H188.865V373.823H186.865ZM186.865 375.835V373.835H186.111V375.835V377.835H186.865V375.835ZM186.111 375.835H188.111V373.823H186.111H184.111V375.835H186.111Z" fill="white" fill-opacity="0.5" mask="url(#path-104-inside-6_4097_764)"/>
<mask id="path-106-inside-7_4097_764" fill="white">
<path d="M180.213 374.555H179.459V375.835H180.213V374.555Z"/>
</mask>
<path d="M180.213 374.555H179.459V375.835H180.213V374.555Z" fill="white"/>
<path d="M179.459 374.555V372.555H177.459V374.555H179.459ZM180.213 374.555H182.213V372.555H180.213V374.555ZM180.213 375.835V377.835H182.213V375.835H180.213ZM179.459 375.835H177.459V377.835H179.459V375.835ZM179.459 374.555V376.555H180.213V374.555V372.555H179.459V374.555ZM180.213 374.555H178.213V375.835H180.213H182.213V374.555H180.213ZM180.213 375.835V373.835H179.459V375.835V377.835H180.213V375.835ZM179.459 375.835H181.459V374.555H179.459H177.459V375.835H179.459Z" fill="white" fill-opacity="0.5" mask="url(#path-106-inside-7_4097_764)"/>
<path d="M403.422 368.965C403.402 369.123 403.389 369.281 403.388 369.441H403.389C403.379 370.033 403.506 370.619 403.761 371.153C404.019 371.692 404.401 372.164 404.875 372.529C405.348 372.894 405.9 373.143 406.487 373.255C407.074 373.368 407.68 373.34 408.254 373.176C408.829 373.012 409.358 372.715 409.797 372.309C410.236 371.903 410.574 371.4 410.783 370.84C410.992 370.28 411.066 369.679 411 369.084C410.996 369.045 410.99 369.005 410.984 368.965H411.525V374.828H396.269V368.965H403.422Z" stroke="#9E0900" stroke-width="2"/>
<path d="M407.214 356.228C407.825 356.231 408.41 356.476 408.842 356.908C409.274 357.34 409.518 357.924 409.522 358.535V367.862C409.851 368.327 410.026 368.883 410.025 369.452C410.025 370.199 409.728 370.916 409.2 371.445C408.671 371.973 407.954 372.27 407.207 372.27C406.46 372.27 405.743 371.973 405.214 371.445C404.686 370.916 404.389 370.199 404.389 369.452C404.386 368.88 404.567 368.322 404.907 367.862V358.535C404.907 357.923 405.15 357.336 405.583 356.903C406.015 356.471 406.602 356.228 407.214 356.228Z" stroke="#9E0900" stroke-width="2" stroke-miterlimit="10"/>
<path fill-rule="evenodd" clip-rule="evenodd" d="M407.908 368.638C408.032 368.734 408.133 368.858 408.202 368.999C408.271 369.14 408.307 369.295 408.307 369.452C408.307 369.742 408.192 370.021 407.986 370.226C407.781 370.431 407.503 370.546 407.212 370.546C406.988 370.552 406.768 370.488 406.582 370.364C406.396 370.24 406.252 370.061 406.171 369.853C406.09 369.644 406.076 369.415 406.13 369.198C406.184 368.98 406.304 368.785 406.473 368.638V358.639C406.473 358.442 406.551 358.254 406.689 358.116C406.828 357.977 407.016 357.899 407.212 357.899C407.401 357.91 407.578 357.993 407.707 358.131C407.836 358.268 407.908 358.45 407.908 358.639V368.638Z" stroke="#9E0900" stroke-miterlimit="10"/>
<path d="M396.519 364.844L399.544 361.826L402.584 364.844" stroke="#9E0900" stroke-width="2" stroke-miterlimit="10"/>
<path d="M396.519 361.531L399.544 358.491L402.584 361.531" stroke="#9E0900" stroke-width="2" stroke-miterlimit="10"/>
<mask id="path-113-inside-8_4097_764" fill="white">
<path d="M176.659 367.041C176.623 366.093 176.743 365.146 177.014 364.237C177.197 363.599 177.562 363.029 178.065 362.595C178.57 362.194 179.202 361.987 179.847 362.011C180.329 361.998 180.807 362.113 181.23 362.344C181.629 362.557 181.968 362.867 182.214 363.246C182.49 363.706 182.695 364.205 182.82 364.726C182.992 365.487 183.069 366.267 183.05 367.048C183.074 367.99 182.955 368.93 182.695 369.836C182.498 370.473 182.126 371.042 181.622 371.478C181.12 371.881 180.49 372.089 179.847 372.063C179.424 372.081 179.003 371.999 178.618 371.824C178.232 371.649 177.893 371.387 177.628 371.057C176.977 370.214 176.667 368.897 176.667 367.048L176.659 367.041ZM177.872 367.041C177.872 368.66 178.065 369.725 178.442 370.273C178.586 370.517 178.791 370.719 179.036 370.859C179.282 370.999 179.56 371.073 179.843 371.073C180.126 371.073 180.405 370.999 180.65 370.859C180.896 370.719 181.101 370.517 181.245 370.273C181.622 369.725 181.814 368.66 181.814 367.041C181.814 365.421 181.622 364.363 181.245 363.816C181.093 363.575 180.884 363.377 180.636 363.237C180.388 363.098 180.109 363.022 179.825 363.017C179.559 363.014 179.297 363.081 179.064 363.21C178.832 363.34 178.638 363.529 178.501 363.757C178.079 364.341 177.872 365.45 177.872 367.063V367.041Z"/>
</mask>
<path d="M176.659 367.041C176.623 366.093 176.743 365.146 177.014 364.237C177.197 363.599 177.562 363.029 178.065 362.595C178.57 362.194 179.202 361.987 179.847 362.011C180.329 361.998 180.807 362.113 181.23 362.344C181.629 362.557 181.968 362.867 182.214 363.246C182.49 363.706 182.695 364.205 182.82 364.726C182.992 365.487 183.069 366.267 183.05 367.048C183.074 367.99 182.955 368.93 182.695 369.836C182.498 370.473 182.126 371.042 181.622 371.478C181.12 371.881 180.49 372.089 179.847 372.063C179.424 372.081 179.003 371.999 178.618 371.824C178.232 371.649 177.893 371.387 177.628 371.057C176.977 370.214 176.667 368.897 176.667 367.048L176.659 367.041ZM177.872 367.041C177.872 368.66 178.065 369.725 178.442 370.273C178.586 370.517 178.791 370.719 179.036 370.859C179.282 370.999 179.56 371.073 179.843 371.073C180.126 371.073 180.405 370.999 180.65 370.859C180.896 370.719 181.101 370.517 181.245 370.273C181.622 369.725 181.814 368.66 181.814 367.041C181.814 365.421 181.622 364.363 181.245 363.816C181.093 363.575 180.884 363.377 180.636 363.237C180.388 363.098 180.109 363.022 179.825 363.017C179.559 363.014 179.297 363.081 179.064 363.21C178.832 363.34 178.638 363.529 178.501 363.757C178.079 364.341 177.872 365.45 177.872 367.063V367.041Z" fill="white"/>
<path d="M176.659 367.041L174.661 367.118L174.691 367.902L175.246 368.456L176.659 367.041ZM177.014 364.237L178.93 364.811L178.934 364.799L178.937 364.787L177.014 364.237ZM178.065 362.595L176.822 361.028L176.79 361.054L176.759 361.08L178.065 362.595ZM179.847 362.011L179.773 364.01L179.837 364.012L179.901 364.01L179.847 362.011ZM181.23 362.344L180.273 364.1L180.281 364.105L180.29 364.109L181.23 362.344ZM182.214 363.246L183.928 362.216L183.91 362.186L183.891 362.157L182.214 363.246ZM182.82 364.726L184.771 364.286L184.768 364.271L184.764 364.256L182.82 364.726ZM183.05 367.048L181.05 366.998L181.049 367.049L181.05 367.1L183.05 367.048ZM182.695 369.836L184.606 370.426L184.612 370.407L184.617 370.388L182.695 369.836ZM181.622 371.478L182.874 373.038L182.903 373.015L182.93 372.991L181.622 371.478ZM179.847 372.063L179.928 370.064L179.845 370.061L179.762 370.064L179.847 372.063ZM177.628 371.057L176.045 372.279L176.057 372.294L176.069 372.31L177.628 371.057ZM176.667 367.048H178.667V366.219L178.08 365.633L176.667 367.048ZM178.442 370.273L180.165 369.257L180.129 369.196L180.089 369.138L178.442 370.273ZM179.843 371.073V369.073V371.073ZM181.245 370.273L179.598 369.138L179.558 369.196L179.522 369.257L181.245 370.273ZM181.245 363.816L179.554 364.884L179.576 364.918L179.598 364.951L181.245 363.816ZM179.825 363.017L179.86 361.017L179.848 361.017L179.825 363.017ZM178.501 363.757L180.123 364.927L180.172 364.858L180.216 364.786L178.501 363.757ZM176.659 367.041L178.658 366.963C178.63 366.236 178.722 365.508 178.93 364.811L177.014 364.237L175.098 363.664C174.763 364.784 174.616 365.95 174.661 367.118L176.659 367.041ZM177.014 364.237L178.937 364.787C179.012 364.524 179.163 364.289 179.37 364.111L178.065 362.595L176.759 361.08C175.961 361.768 175.381 362.674 175.091 363.687L177.014 364.237ZM178.065 362.595L179.307 364.162C179.439 364.058 179.605 364.004 179.773 364.01L179.847 362.011L179.921 360.013C178.8 359.971 177.701 360.331 176.822 361.028L178.065 362.595ZM179.847 362.011L179.901 364.01C180.03 364.007 180.159 364.038 180.273 364.1L181.23 362.344L182.187 360.588C181.454 360.188 180.628 359.989 179.794 360.012L179.847 362.011ZM181.23 362.344L180.29 364.109C180.39 364.162 180.475 364.24 180.536 364.335L182.214 363.246L183.891 362.157C183.461 361.494 182.869 360.951 182.171 360.579L181.23 362.344ZM182.214 363.246L180.5 364.277C180.671 364.562 180.798 364.872 180.876 365.195L182.82 364.726L184.764 364.256C184.591 363.538 184.309 362.85 183.928 362.216L182.214 363.246ZM182.82 364.726L180.869 365.165C181.005 365.766 181.066 366.382 181.05 366.998L183.05 367.048L185.049 367.098C185.072 366.152 184.979 365.208 184.771 364.286L182.82 364.726ZM183.05 367.048L181.05 367.1C181.07 367.838 180.976 368.575 180.772 369.285L182.695 369.836L184.617 370.388C184.933 369.286 185.079 368.142 185.049 366.996L183.05 367.048ZM182.695 369.836L180.784 369.247C180.697 369.525 180.535 369.775 180.314 369.965L181.622 371.478L182.93 372.991C183.718 372.31 184.299 371.421 184.606 370.426L182.695 369.836ZM181.622 371.478L180.37 369.919C180.245 370.019 180.088 370.071 179.928 370.064L179.847 372.063L179.766 374.061C180.892 374.107 181.996 373.743 182.874 373.038L181.622 371.478ZM179.847 372.063L179.762 370.064C179.652 370.069 179.543 370.048 179.443 370.003L178.618 371.824L177.792 373.646C178.463 373.95 179.196 374.092 179.932 374.061L179.847 372.063ZM178.618 371.824L179.443 370.003C179.344 369.957 179.256 369.889 179.187 369.804L177.628 371.057L176.069 372.31C176.531 372.884 177.121 373.342 177.792 373.646L178.618 371.824ZM177.628 371.057L179.211 369.835C178.97 369.522 178.667 368.756 178.667 367.048H176.667H174.667C174.667 369.038 174.984 370.905 176.045 372.279L177.628 371.057ZM176.667 367.048L178.08 365.633L178.072 365.625L176.659 367.041L175.246 368.456L175.254 368.463L176.667 367.048ZM177.872 367.041H175.872C175.872 367.919 175.924 368.716 176.046 369.408C176.164 370.073 176.374 370.797 176.795 371.408L178.442 370.273L180.089 369.138C180.133 369.202 180.057 369.119 179.985 368.71C179.917 368.328 179.872 367.782 179.872 367.041H177.872ZM178.442 370.273L176.719 371.289C177.04 371.832 177.496 372.283 178.044 372.596L179.036 370.859L180.028 369.122C180.085 369.155 180.132 369.201 180.165 369.257L178.442 370.273ZM179.036 370.859L178.044 372.596C178.592 372.909 179.212 373.073 179.843 373.073V371.073V369.073C179.908 369.073 179.972 369.09 180.028 369.122L179.036 370.859ZM179.843 371.073L179.843 373.073C180.474 373.073 181.094 372.909 181.642 372.596L180.65 370.859L179.658 369.122C179.715 369.09 179.779 369.073 179.843 369.073L179.843 371.073ZM180.65 370.859L181.642 372.596C182.19 372.283 182.647 371.832 182.968 371.289L181.245 370.273L179.522 369.257C179.555 369.201 179.602 369.155 179.658 369.122L180.65 370.859ZM181.245 370.273L182.892 371.408C183.313 370.797 183.523 370.073 183.64 369.408C183.763 368.716 183.814 367.919 183.814 367.041H181.814H179.814C179.814 367.782 179.77 368.328 179.702 368.71C179.629 369.119 179.554 369.202 179.598 369.138L181.245 370.273ZM181.814 367.041H183.814C183.814 366.163 183.763 365.367 183.64 364.676C183.522 364.01 183.312 363.29 182.892 362.681L181.245 363.816L179.598 364.951C179.555 364.889 179.63 364.971 179.702 365.376C179.77 365.756 179.814 366.299 179.814 367.041H181.814ZM181.245 363.816L182.936 362.747C182.606 362.227 182.153 361.796 181.616 361.494L180.636 363.237L179.655 364.98C179.614 364.957 179.58 364.924 179.554 364.884L181.245 363.816ZM180.636 363.237L181.616 361.494C181.079 361.192 180.476 361.028 179.86 361.017L179.825 363.017L179.789 365.017C179.742 365.016 179.696 365.003 179.655 364.98L180.636 363.237ZM179.825 363.017L179.848 361.017C179.232 361.01 178.626 361.164 178.089 361.464L179.064 363.21L180.04 364.956C179.967 364.997 179.885 365.018 179.802 365.017L179.825 363.017ZM179.064 363.21L178.089 361.464C177.552 361.764 177.103 362.2 176.786 362.728L178.501 363.757L180.216 364.786C180.173 364.857 180.112 364.916 180.04 364.956L179.064 363.21ZM178.501 363.757L176.879 362.586C176.426 363.214 176.194 363.96 176.063 364.652C175.928 365.368 175.872 366.182 175.872 367.063H177.872H179.872C179.872 366.331 179.92 365.784 179.994 365.396C180.072 364.984 180.154 364.884 180.123 364.927L178.501 363.757ZM177.872 367.063H179.872V367.041H177.872H175.872V367.063H177.872Z" fill="white" fill-opacity="0.5" mask="url(#path-113-inside-8_4097_764)"/>
<mask id="path-115-inside-9_4097_764" fill="white">
<path d="M241.691 367.825L242.882 367.655C242.971 368.212 243.229 368.728 243.622 369.134C243.957 369.426 244.39 369.581 244.835 369.57C245.105 369.575 245.374 369.526 245.624 369.424C245.875 369.322 246.102 369.17 246.292 368.978C246.482 368.786 246.632 368.557 246.731 368.305C246.83 368.054 246.877 367.784 246.869 367.514C246.875 367.262 246.83 367.011 246.736 366.777C246.642 366.543 246.501 366.33 246.321 366.153C246.14 365.974 245.923 365.833 245.685 365.74C245.448 365.647 245.193 365.604 244.938 365.613C244.647 365.619 244.358 365.666 244.08 365.754L244.228 364.689C244.289 364.697 244.352 364.697 244.413 364.689C244.904 364.703 245.388 364.563 245.796 364.289C246.001 364.157 246.168 363.974 246.279 363.757C246.391 363.54 246.444 363.298 246.432 363.054C246.438 362.846 246.399 362.638 246.319 362.446C246.238 362.253 246.118 362.08 245.966 361.937C245.651 361.653 245.236 361.505 244.812 361.523C244.38 361.508 243.96 361.665 243.644 361.96C243.268 362.344 243.045 362.851 243.015 363.387L241.824 363.15C241.935 362.425 242.29 361.76 242.83 361.264C243.378 360.818 244.069 360.587 244.775 360.613C245.289 360.606 245.796 360.723 246.255 360.954C246.686 361.162 247.05 361.487 247.305 361.893C247.532 362.273 247.655 362.707 247.66 363.15C247.66 363.56 247.542 363.96 247.32 364.304C247.063 364.673 246.71 364.964 246.299 365.147C246.841 365.247 247.326 365.545 247.66 365.983C247.987 366.442 248.156 366.995 248.141 367.558C248.147 367.968 248.066 368.373 247.903 368.748C247.74 369.123 247.498 369.459 247.194 369.733C246.88 370.035 246.509 370.27 246.102 370.425C245.696 370.58 245.262 370.652 244.827 370.635C244.039 370.675 243.266 370.41 242.667 369.896C242.102 369.382 241.757 368.669 241.706 367.906L241.691 367.825Z"/>
</mask>
<path d="M241.691 367.825L242.882 367.655C242.971 368.212 243.229 368.728 243.622 369.134C243.957 369.426 244.39 369.581 244.835 369.57C245.105 369.575 245.374 369.526 245.624 369.424C245.875 369.322 246.102 369.17 246.292 368.978C246.482 368.786 246.632 368.557 246.731 368.305C246.83 368.054 246.877 367.784 246.869 367.514C246.875 367.262 246.83 367.011 246.736 366.777C246.642 366.543 246.501 366.33 246.321 366.153C246.14 365.974 245.923 365.833 245.685 365.74C245.448 365.647 245.193 365.604 244.938 365.613C244.647 365.619 244.358 365.666 244.08 365.754L244.228 364.689C244.289 364.697 244.352 364.697 244.413 364.689C244.904 364.703 245.388 364.563 245.796 364.289C246.001 364.157 246.168 363.974 246.279 363.757C246.391 363.54 246.444 363.298 246.432 363.054C246.438 362.846 246.399 362.638 246.319 362.446C246.238 362.253 246.118 362.08 245.966 361.937C245.651 361.653 245.236 361.505 244.812 361.523C244.38 361.508 243.96 361.665 243.644 361.96C243.268 362.344 243.045 362.851 243.015 363.387L241.824 363.15C241.935 362.425 242.29 361.76 242.83 361.264C243.378 360.818 244.069 360.587 244.775 360.613C245.289 360.606 245.796 360.723 246.255 360.954C246.686 361.162 247.05 361.487 247.305 361.893C247.532 362.273 247.655 362.707 247.66 363.15C247.66 363.56 247.542 363.96 247.32 364.304C247.063 364.673 246.71 364.964 246.299 365.147C246.841 365.247 247.326 365.545 247.66 365.983C247.987 366.442 248.156 366.995 248.141 367.558C248.147 367.968 248.066 368.373 247.903 368.748C247.74 369.123 247.498 369.459 247.194 369.733C246.88 370.035 246.509 370.27 246.102 370.425C245.696 370.58 245.262 370.652 244.827 370.635C244.039 370.675 243.266 370.41 242.667 369.896C242.102 369.382 241.757 368.669 241.706 367.906L241.691 367.825Z" fill="white"/>
<path d="M241.691 367.825L241.408 365.845L239.351 366.139L239.723 368.183L241.691 367.825ZM242.882 367.655L244.857 367.339L244.547 365.397L242.599 365.675L242.882 367.655ZM243.622 369.134L242.184 370.525L242.244 370.587L242.31 370.644L243.622 369.134ZM244.835 369.57L244.873 367.571L244.829 367.57L244.785 367.571L244.835 369.57ZM246.869 367.514L244.869 367.46L244.868 367.517L244.869 367.574L246.869 367.514ZM246.321 366.153L244.914 367.575L244.916 367.577L246.321 366.153ZM244.938 365.613L244.977 367.613L244.993 367.613L245.01 367.612L244.938 365.613ZM244.08 365.754L242.099 365.479L241.664 368.613L244.682 367.661L244.08 365.754ZM244.228 364.689L244.503 362.708L242.522 362.433L242.247 364.414L244.228 364.689ZM244.413 364.689L244.471 362.69L244.304 362.685L244.138 362.708L244.413 364.689ZM245.796 364.289L244.713 362.608L244.697 362.618L244.681 362.629L245.796 364.289ZM246.432 363.054L244.433 363.002L244.431 363.076L244.434 363.149L246.432 363.054ZM245.966 361.937L247.335 360.48L247.32 360.465L247.304 360.451L245.966 361.937ZM244.812 361.523L244.744 363.522L244.822 363.525L244.899 363.521L244.812 361.523ZM243.644 361.96L242.282 360.495L242.247 360.527L242.214 360.562L243.644 361.96ZM243.015 363.387L242.625 365.349L244.884 365.798L245.012 363.498L243.015 363.387ZM241.824 363.15L239.847 362.849L239.559 364.739L241.434 365.112L241.824 363.15ZM242.83 361.264L241.567 359.714L241.522 359.751L241.478 359.79L242.83 361.264ZM244.775 360.613L244.7 362.612L244.751 362.614L244.803 362.613L244.775 360.613ZM246.255 360.954L245.356 362.74L245.371 362.748L245.386 362.755L246.255 360.954ZM247.305 361.893L249.022 360.867L249.01 360.848L248.999 360.83L247.305 361.893ZM247.66 363.15L249.66 363.151L249.66 363.139L249.66 363.127L247.66 363.15ZM247.32 364.304L248.96 365.448L248.981 365.419L249 365.388L247.32 364.304ZM246.299 365.147L245.485 363.32L239.598 365.944L245.936 367.114L246.299 365.147ZM247.66 365.983L249.288 364.821L249.269 364.795L249.25 364.77L247.66 365.983ZM248.141 367.558L246.141 367.503L246.14 367.547L246.141 367.592L248.141 367.558ZM247.194 369.733L245.856 368.247L245.831 368.269L245.808 368.291L247.194 369.733ZM244.827 370.635L244.902 368.637L244.814 368.633L244.727 368.638L244.827 370.635ZM242.667 369.896L241.322 371.375L241.343 371.394L241.364 371.412L242.667 369.896ZM241.706 367.906L243.701 367.771L243.694 367.659L243.674 367.548L241.706 367.906ZM241.691 367.825L241.974 369.805L243.165 369.635L242.882 367.655L242.599 365.675L241.408 365.845L241.691 367.825ZM242.882 367.655L240.907 367.97C241.061 368.932 241.507 369.824 242.184 370.525L243.622 369.134L245.059 367.743C244.952 367.632 244.881 367.491 244.857 367.339L242.882 367.655ZM243.622 369.134L242.31 370.644C243.022 371.263 243.94 371.593 244.884 371.57L244.835 369.57L244.785 367.571C244.84 367.57 244.892 367.588 244.933 367.624L243.622 369.134ZM244.835 369.57L244.797 371.57C245.338 371.58 245.876 371.48 246.377 371.277L245.624 369.424L244.871 367.571C244.872 367.571 244.872 367.571 244.873 367.571L244.835 369.57ZM245.624 369.424L246.377 371.277C246.878 371.073 247.333 370.769 247.714 370.385L246.292 368.978L244.87 367.571C244.871 367.571 244.871 367.571 244.871 367.571L245.624 369.424ZM246.292 368.978L247.714 370.385C248.095 370 248.393 369.542 248.592 369.038L246.731 368.305L244.87 367.573C244.87 367.572 244.87 367.572 244.87 367.571L246.292 368.978ZM246.731 368.305L248.592 369.038C248.79 368.534 248.884 367.996 248.868 367.454L246.869 367.514L244.869 367.574C244.869 367.573 244.87 367.573 244.87 367.573L246.731 368.305ZM246.869 367.514L248.868 367.569C248.882 367.042 248.788 366.519 248.592 366.031L246.736 366.777L244.881 367.523C244.873 367.503 244.869 367.482 244.869 367.46L246.869 367.514ZM246.736 366.777L248.592 366.031C248.395 365.542 248.101 365.099 247.726 364.73L246.321 366.153L244.916 367.577C244.901 367.561 244.889 367.543 244.881 367.523L246.736 366.777ZM246.321 366.153L247.728 364.732C247.352 364.36 246.905 364.069 246.413 363.877L245.685 365.74L244.958 367.603C244.942 367.597 244.927 367.587 244.914 367.575L246.321 366.153ZM245.685 365.74L246.413 363.877C245.921 363.685 245.395 363.596 244.867 363.615L244.938 365.613L245.01 367.612C244.992 367.613 244.975 367.61 244.958 367.603L245.685 365.74ZM244.938 365.613L244.9 363.614C244.417 363.623 243.939 363.701 243.479 363.846L244.08 365.754L244.682 367.661C244.777 367.631 244.876 367.615 244.977 367.613L244.938 365.613ZM244.08 365.754L246.061 366.029L246.209 364.964L244.228 364.689L242.247 364.414L242.099 365.479L244.08 365.754ZM244.228 364.689L243.953 366.67C244.197 366.704 244.444 366.704 244.688 366.67L244.413 364.689L244.138 362.708C244.259 362.691 244.382 362.691 244.503 362.708L244.228 364.689ZM244.413 364.689L244.355 366.688C245.263 366.714 246.157 366.456 246.911 365.95L245.796 364.289L244.681 362.629C244.619 362.67 244.546 362.692 244.471 362.69L244.413 364.689ZM245.796 364.289L246.879 365.971C247.379 365.649 247.785 365.201 248.058 364.673L246.279 363.757L244.501 362.841C244.55 362.746 244.623 362.666 244.713 362.608L245.796 364.289ZM246.279 363.757L248.058 364.673C248.33 364.144 248.458 363.553 248.43 362.959L246.432 363.054L244.434 363.149C244.429 363.042 244.452 362.936 244.501 362.841L246.279 363.757ZM246.432 363.054L248.431 363.106C248.444 362.616 248.353 362.129 248.164 361.676L246.319 362.446L244.473 363.216C244.445 363.148 244.431 363.075 244.433 363.002L246.432 363.054ZM246.319 362.446L248.164 361.676C247.975 361.223 247.693 360.815 247.335 360.48L245.966 361.937L244.597 363.395C244.543 363.345 244.501 363.284 244.473 363.216L246.319 362.446ZM245.966 361.937L247.304 360.451C246.599 359.816 245.673 359.484 244.726 359.525L244.812 361.523L244.899 363.521C244.8 363.526 244.702 363.491 244.628 363.424L245.966 361.937ZM244.812 361.523L244.881 359.524C243.92 359.492 242.986 359.84 242.282 360.495L243.644 361.96L245.005 363.424C244.935 363.49 244.841 363.525 244.744 363.522L244.812 361.523ZM243.644 361.96L242.214 360.562C241.5 361.292 241.075 362.256 241.018 363.276L243.015 363.387L245.012 363.498C245.015 363.445 245.037 363.395 245.074 363.358L243.644 361.96ZM243.015 363.387L243.405 361.425L242.214 361.189L241.824 363.15L241.434 365.112L242.625 365.349L243.015 363.387ZM241.824 363.15L243.801 363.452C243.843 363.178 243.978 362.926 244.182 362.738L242.83 361.264L241.478 359.79C240.602 360.594 240.026 361.673 239.847 362.849L241.824 363.15ZM242.83 361.264L244.093 362.815C244.264 362.676 244.48 362.604 244.7 362.612L244.775 360.613L244.851 358.615C243.659 358.57 242.492 358.96 241.567 359.714L242.83 361.264ZM244.775 360.613L244.803 362.613C244.995 362.611 245.185 362.654 245.356 362.74L246.255 360.954L247.153 359.167C246.407 358.792 245.582 358.602 244.748 358.614L244.775 360.613ZM246.255 360.954L245.386 362.755C245.479 362.8 245.556 362.869 245.611 362.956L247.305 361.893L248.999 360.83C248.544 360.105 247.894 359.523 247.123 359.152L246.255 360.954ZM247.305 361.893L245.588 362.919C245.634 362.996 245.659 363.084 245.66 363.174L247.66 363.15L249.66 363.127C249.651 362.33 249.43 361.55 249.022 360.867L247.305 361.893ZM247.66 363.15L245.66 363.149C245.66 363.174 245.653 363.199 245.639 363.22L247.32 364.304L249 365.388C249.43 364.722 249.66 363.945 249.66 363.151L247.66 363.15ZM247.32 364.304L245.679 363.16C245.63 363.23 245.563 363.286 245.485 363.32L246.299 365.147L247.113 366.974C247.856 366.643 248.495 366.116 248.96 365.448L247.32 364.304ZM246.299 365.147L245.936 367.114C245.989 367.124 246.037 367.153 246.07 367.196L247.66 365.983L249.25 364.77C248.614 363.937 247.692 363.371 246.662 363.181L246.299 365.147ZM247.66 365.983L246.032 367.145C246.107 367.249 246.145 367.375 246.141 367.503L248.141 367.558L250.14 367.614C250.167 366.615 249.868 365.634 249.288 364.821L247.66 365.983ZM248.141 367.558L246.141 367.592C246.143 367.715 246.119 367.837 246.069 367.95L247.903 368.748L249.737 369.547C250.014 368.91 250.152 368.22 250.14 367.525L248.141 367.558ZM247.903 368.748L246.069 367.95C246.02 368.063 245.947 368.164 245.856 368.247L247.194 369.733L248.532 371.219C249.049 370.754 249.459 370.184 249.737 369.547L247.903 368.748ZM247.194 369.733L245.808 368.291C245.688 368.407 245.546 368.497 245.39 368.556L246.102 370.425L246.815 372.294C247.473 372.043 248.073 371.662 248.58 371.174L247.194 369.733ZM246.102 370.425L245.39 368.556C245.234 368.616 245.068 368.643 244.902 368.637L244.827 370.635L244.752 372.634C245.456 372.66 246.157 372.545 246.815 372.294L246.102 370.425ZM244.827 370.635L244.727 368.638C244.451 368.652 244.181 368.559 243.971 368.379L242.667 369.896L241.364 371.412C242.351 372.261 243.627 372.698 244.927 372.633L244.827 370.635ZM242.667 369.896L244.013 368.416C243.83 368.249 243.718 368.018 243.701 367.771L241.706 367.906L239.711 368.041C239.797 369.319 240.374 370.514 241.322 371.375L242.667 369.896ZM241.706 367.906L243.674 367.548L243.659 367.467L241.691 367.825L239.723 368.183L239.738 368.264L241.706 367.906Z" fill="white" fill-opacity="0.5" mask="url(#path-115-inside-9_4097_764)"/>
<mask id="path-117-inside-10_4097_764" fill="white">
<path d="M314.122 360.798L312.932 360.902C312.878 360.523 312.719 360.167 312.473 359.874C312.325 359.703 312.14 359.568 311.933 359.477C311.726 359.386 311.501 359.342 311.275 359.349C310.907 359.339 310.545 359.451 310.247 359.667C309.84 359.98 309.528 360.4 309.345 360.88C309.088 361.606 308.975 362.374 309.012 363.143C309.269 362.729 309.632 362.389 310.062 362.159C310.478 361.952 310.936 361.843 311.401 361.841C311.786 361.837 312.167 361.913 312.521 362.065C312.875 362.217 313.194 362.44 313.457 362.722C314.026 363.352 314.326 364.18 314.293 365.029C314.301 365.627 314.164 366.219 313.893 366.752C313.651 367.251 313.275 367.671 312.806 367.965C312.321 368.247 311.769 368.393 311.208 368.387C310.742 368.404 310.279 368.312 309.854 368.12C309.429 367.927 309.055 367.639 308.76 367.278C308.132 366.538 307.813 365.325 307.813 363.624C307.813 361.716 308.154 360.355 308.864 359.475C309.162 359.112 309.54 358.823 309.969 358.63C310.397 358.438 310.865 358.347 311.334 358.365C312.03 358.334 312.711 358.566 313.242 359.016C313.756 359.473 314.072 360.113 314.122 360.798ZM309.197 365.051C309.199 365.456 309.285 365.857 309.448 366.227C309.613 366.581 309.868 366.884 310.188 367.107C310.491 367.294 310.838 367.396 311.194 367.403C311.445 367.404 311.693 367.349 311.92 367.243C312.147 367.137 312.349 366.982 312.51 366.789C312.898 366.322 313.093 365.724 313.057 365.118C313.094 364.531 312.906 363.952 312.532 363.498C312.357 363.308 312.142 363.157 311.904 363.057C311.665 362.956 311.408 362.907 311.149 362.914C310.891 362.909 310.634 362.958 310.395 363.059C310.157 363.159 309.943 363.309 309.766 363.498C309.573 363.706 309.423 363.951 309.326 364.218C309.228 364.484 309.184 364.768 309.197 365.051Z"/>
</mask>
<path d="M314.122 360.798L312.932 360.902C312.878 360.523 312.719 360.167 312.473 359.874C312.325 359.703 312.14 359.568 311.933 359.477C311.726 359.386 311.501 359.342 311.275 359.349C310.907 359.339 310.545 359.451 310.247 359.667C309.84 359.98 309.528 360.4 309.345 360.88C309.088 361.606 308.975 362.374 309.012 363.143C309.269 362.729 309.632 362.389 310.062 362.159C310.478 361.952 310.936 361.843 311.401 361.841C311.786 361.837 312.167 361.913 312.521 362.065C312.875 362.217 313.194 362.44 313.457 362.722C314.026 363.352 314.326 364.18 314.293 365.029C314.301 365.627 314.164 366.219 313.893 366.752C313.651 367.251 313.275 367.671 312.806 367.965C312.321 368.247 311.769 368.393 311.208 368.387C310.742 368.404 310.279 368.312 309.854 368.12C309.429 367.927 309.055 367.639 308.76 367.278C308.132 366.538 307.813 365.325 307.813 363.624C307.813 361.716 308.154 360.355 308.864 359.475C309.162 359.112 309.54 358.823 309.969 358.63C310.397 358.438 310.865 358.347 311.334 358.365C312.03 358.334 312.711 358.566 313.242 359.016C313.756 359.473 314.072 360.113 314.122 360.798ZM309.197 365.051C309.199 365.456 309.285 365.857 309.448 366.227C309.613 366.581 309.868 366.884 310.188 367.107C310.491 367.294 310.838 367.396 311.194 367.403C311.445 367.404 311.693 367.349 311.92 367.243C312.147 367.137 312.349 366.982 312.51 366.789C312.898 366.322 313.093 365.724 313.057 365.118C313.094 364.531 312.906 363.952 312.532 363.498C312.357 363.308 312.142 363.157 311.904 363.057C311.665 362.956 311.408 362.907 311.149 362.914C310.891 362.909 310.634 362.958 310.395 363.059C310.157 363.159 309.943 363.309 309.766 363.498C309.573 363.706 309.423 363.951 309.326 364.218C309.228 364.484 309.184 364.768 309.197 365.051Z" fill="white"/>
<path d="M314.122 360.798L314.296 362.791L316.263 362.62L316.117 360.651L314.122 360.798ZM312.932 360.902L310.952 361.184L311.218 363.059L313.105 362.895L312.932 360.902ZM312.473 359.874L314.006 358.589L313.994 358.575L313.982 358.561L312.473 359.874ZM311.275 359.349L311.222 361.348L311.277 361.35L311.332 361.348L311.275 359.349ZM310.247 359.667L309.075 358.046L309.05 358.064L309.026 358.083L310.247 359.667ZM309.345 360.88L307.476 360.166L307.467 360.19L307.458 360.215L309.345 360.88ZM309.012 363.143L307.014 363.237L307.316 369.656L310.71 364.199L309.012 363.143ZM310.062 362.159L309.168 360.37L309.143 360.383L309.119 360.396L310.062 362.159ZM311.401 361.841L311.407 363.841L311.414 363.841L311.422 363.841L311.401 361.841ZM313.457 362.722L314.942 361.382L314.93 361.369L314.918 361.356L313.457 362.722ZM314.293 365.029L312.294 364.951L312.292 365.004L312.293 365.057L314.293 365.029ZM313.893 366.752L312.109 365.848L312.102 365.864L312.094 365.879L313.893 366.752ZM312.806 367.965L313.81 369.695L313.84 369.678L313.87 369.659L312.806 367.965ZM311.208 368.387L311.228 366.387L311.182 366.387L311.136 366.388L311.208 368.387ZM308.76 367.278L310.311 366.014L310.298 365.998L310.284 365.982L308.76 367.278ZM308.864 359.475L307.319 358.204L307.313 358.211L307.307 358.219L308.864 359.475ZM311.334 358.365L311.257 360.364L311.341 360.367L311.425 360.363L311.334 358.365ZM313.242 359.016L314.572 357.522L314.554 357.506L314.535 357.49L313.242 359.016ZM309.197 365.051L311.197 365.039L311.196 365.001L311.195 364.962L309.197 365.051ZM309.448 366.227L307.618 367.034L307.627 367.054L307.636 367.073L309.448 366.227ZM310.188 367.107L309.042 368.747L309.091 368.781L309.141 368.812L310.188 367.107ZM311.194 367.403L311.151 369.403L311.171 369.403L311.192 369.403L311.194 367.403ZM312.51 366.789L314.043 368.074L314.05 368.066L312.51 366.789ZM313.057 365.118L311.061 364.994L311.054 365.115L311.061 365.236L313.057 365.118ZM312.532 363.498L314.076 362.227L314.04 362.183L314.001 362.141L312.532 363.498ZM311.149 362.914L311.109 364.913L311.155 364.914L311.2 364.913L311.149 362.914ZM309.766 363.498L308.304 362.133L308.299 362.139L309.766 363.498ZM314.122 360.798L313.949 358.806L312.758 358.91L312.932 360.902L313.105 362.895L314.296 362.791L314.122 360.798ZM312.932 360.902L314.912 360.62C314.805 359.872 314.491 359.168 314.006 358.589L312.473 359.874L310.941 361.159C310.947 361.166 310.95 361.175 310.952 361.184L312.932 360.902ZM312.473 359.874L313.982 358.561C313.639 358.167 313.214 357.855 312.736 357.645L311.933 359.477L311.13 361.309C311.067 361.281 311.01 361.239 310.965 361.187L312.473 359.874ZM311.933 359.477L312.736 357.645C312.258 357.436 311.74 357.335 311.218 357.35L311.275 359.349L311.332 361.348C311.262 361.35 311.194 361.337 311.13 361.309L311.933 359.477ZM311.275 359.349L311.327 357.35C310.52 357.328 309.729 357.573 309.075 358.046L310.247 359.667L311.419 361.287C311.362 361.329 311.293 361.35 311.222 361.348L311.275 359.349ZM310.247 359.667L309.026 358.083C308.327 358.621 307.791 359.342 307.476 360.166L309.345 360.88L311.213 361.594C311.265 361.458 311.353 361.34 311.468 361.251L310.247 359.667ZM309.345 360.88L307.458 360.215C307.116 361.184 306.966 362.21 307.014 363.237L309.012 363.143L311.009 363.049C310.985 362.538 311.061 362.027 311.231 361.545L309.345 360.88ZM309.012 363.143L310.71 364.199C310.782 364.083 310.884 363.988 311.005 363.923L310.062 362.159L309.119 360.396C308.379 360.791 307.756 361.374 307.313 362.087L309.012 363.143ZM310.062 362.159L310.956 363.949C311.096 363.879 311.25 363.842 311.407 363.841L311.401 361.841L311.394 359.841C310.621 359.844 309.86 360.025 309.168 360.37L310.062 362.159ZM311.401 361.841L311.422 363.841C311.529 363.84 311.636 363.861 311.734 363.904L312.521 362.065L313.308 360.226C312.699 359.966 312.042 359.834 311.38 359.841L311.401 361.841ZM312.521 362.065L311.734 363.904C311.833 363.946 311.922 364.008 311.995 364.087L313.457 362.722L314.918 361.356C314.466 360.872 313.918 360.487 313.308 360.226L312.521 362.065ZM313.457 362.722L311.972 364.061C312.191 364.304 312.307 364.624 312.294 364.951L314.293 365.029L316.291 365.107C316.345 363.737 315.86 362.4 314.942 361.382L313.457 362.722ZM314.293 365.029L312.293 365.057C312.297 365.331 312.234 365.603 312.109 365.848L313.893 366.752L315.677 367.657C316.094 366.835 316.305 365.923 316.292 365.002L314.293 365.029ZM313.893 366.752L312.094 365.879C312.016 366.04 311.894 366.177 311.742 366.272L312.806 367.965L313.87 369.659C314.656 369.165 315.287 368.461 315.692 367.626L313.893 366.752ZM312.806 367.965L311.802 366.236C311.628 366.337 311.43 366.389 311.228 366.387L311.208 368.387L311.189 370.387C312.109 370.396 313.014 370.157 313.81 369.695L312.806 367.965ZM311.208 368.387L311.136 366.388C310.979 366.394 310.823 366.363 310.679 366.298L309.854 368.12L309.028 369.942C309.735 370.262 310.506 370.414 311.28 370.386L311.208 368.387ZM309.854 368.12L310.679 366.298C310.536 366.233 310.41 366.136 310.311 366.014L308.76 367.278L307.21 368.541C307.7 369.142 308.322 369.622 309.028 369.942L309.854 368.12ZM308.76 367.278L310.284 365.982C310.119 365.788 309.813 365.165 309.813 363.624H307.813H305.813C305.813 365.485 306.144 367.288 307.236 368.573L308.76 367.278ZM307.813 363.624H309.813C309.813 361.878 310.139 361.079 310.42 360.73L308.864 359.475L307.307 358.219C306.168 359.631 305.813 361.553 305.813 363.624H307.813ZM308.864 359.475L310.408 360.745C310.511 360.62 310.641 360.521 310.788 360.455L309.969 358.63L309.15 356.806C308.44 357.125 307.813 357.603 307.319 358.204L308.864 359.475ZM309.969 358.63L310.788 360.455C310.936 360.389 311.096 360.357 311.257 360.364L311.334 358.365L311.411 356.367C310.633 356.337 309.859 356.487 309.15 356.806L309.969 358.63ZM311.334 358.365L311.425 360.363C311.616 360.354 311.804 360.418 311.95 360.542L313.242 359.016L314.535 357.49C313.619 356.714 312.443 356.313 311.243 356.367L311.334 358.365ZM313.242 359.016L311.913 360.51C312.038 360.622 312.116 360.778 312.128 360.946L314.122 360.798L316.117 360.651C316.028 359.447 315.474 358.325 314.572 357.522L313.242 359.016ZM309.197 365.051L307.197 365.063C307.201 365.742 307.344 366.413 307.618 367.034L309.448 366.227L311.278 365.42C311.225 365.3 311.197 365.171 311.197 365.039L309.197 365.051ZM309.448 366.227L307.636 367.073C307.949 367.745 308.434 368.322 309.042 368.747L310.188 367.107L311.333 365.468C311.302 365.446 311.277 365.416 311.26 365.381L309.448 366.227ZM310.188 367.107L309.141 368.812C309.747 369.184 310.44 369.388 311.151 369.403L311.194 367.403L311.236 365.404C311.236 365.404 311.235 365.404 311.234 365.403L310.188 367.107ZM311.194 367.403L311.192 369.403C311.736 369.404 312.273 369.285 312.765 369.055L311.92 367.243L311.075 365.43C311.112 365.412 311.154 365.403 311.195 365.403L311.194 367.403ZM311.92 367.243L312.765 369.055C313.258 368.826 313.694 368.491 314.043 368.074L312.51 366.789L310.977 365.505C311.004 365.473 311.037 365.447 311.075 365.43L311.92 367.243ZM312.51 366.789L314.05 368.066C314.761 367.208 315.12 366.112 315.054 364.999L313.057 365.118L311.061 365.236C311.067 365.337 311.035 365.436 310.97 365.513L312.51 366.789ZM313.057 365.118L315.054 365.241C315.121 364.149 314.772 363.072 314.076 362.227L312.532 363.498L310.988 364.769C311.04 364.832 311.066 364.913 311.061 364.994L313.057 365.118ZM312.532 363.498L314.001 362.141C313.633 361.742 313.183 361.426 312.682 361.214L311.904 363.057L311.125 364.899C311.102 364.889 311.081 364.874 311.063 364.855L312.532 363.498ZM311.904 363.057L312.682 361.214C312.181 361.003 311.641 360.901 311.098 360.914L311.149 362.914L311.2 364.913C311.175 364.914 311.149 364.909 311.125 364.899L311.904 363.057ZM311.149 362.914L311.189 360.914C310.65 360.903 310.114 361.006 309.617 361.216L310.395 363.059L311.174 364.901C311.153 364.91 311.131 364.914 311.109 364.913L311.149 362.914ZM310.395 363.059L309.617 361.216C309.12 361.426 308.673 361.739 308.304 362.133L309.766 363.498L311.228 364.863C311.213 364.879 311.194 364.892 311.174 364.901L310.395 363.059ZM309.766 363.498L308.299 362.139C307.926 362.541 307.637 363.014 307.448 363.529L309.326 364.218L311.203 364.906C311.21 364.888 311.22 364.872 311.233 364.858L309.766 363.498ZM309.326 364.218L307.448 363.529C307.259 364.044 307.174 364.592 307.199 365.14L309.197 365.051L311.195 364.962C311.194 364.943 311.197 364.924 311.203 364.906L309.326 364.218Z" fill="white" fill-opacity="0.5" mask="url(#path-117-inside-10_4097_764)"/>
<mask id="path-119-inside-11_4097_764" fill="white">
<path d="M374.277 364.615L375.431 364.526C375.488 364.968 375.685 365.38 375.993 365.702C376.288 365.961 376.672 366.096 377.065 366.079C377.413 366.091 377.757 365.995 378.049 365.806C378.328 365.644 378.561 365.412 378.722 365.133C378.933 364.776 379.088 364.39 379.18 363.986C379.293 363.501 379.35 363.005 379.351 362.507V362.255C379.103 362.645 378.766 362.97 378.367 363.202C377.82 363.507 377.187 363.62 376.568 363.525C375.95 363.43 375.38 363.132 374.95 362.677C374.659 362.361 374.435 361.99 374.291 361.586C374.146 361.182 374.083 360.754 374.107 360.325C374.088 359.888 374.156 359.453 374.307 359.042C374.459 358.632 374.689 358.256 374.987 357.936C375.271 357.635 375.616 357.398 375.998 357.238C376.38 357.079 376.792 357.002 377.206 357.012C377.831 357.009 378.444 357.192 378.966 357.537C379.504 357.899 379.921 358.414 380.164 359.016C380.481 359.902 380.622 360.842 380.578 361.782C380.608 362.785 380.468 363.785 380.164 364.741C379.938 365.418 379.513 366.011 378.944 366.442C378.394 366.833 377.733 367.038 377.058 367.026C376.368 367.062 375.692 366.828 375.172 366.375C374.665 365.906 374.352 365.265 374.291 364.578L374.277 364.615ZM379.203 360.295C379.246 359.693 379.049 359.097 378.655 358.639C378.494 358.447 378.293 358.292 378.065 358.188C377.838 358.083 377.589 358.03 377.339 358.032C377.072 358.03 376.807 358.086 376.564 358.197C376.322 358.309 376.106 358.472 375.933 358.676C375.528 359.147 375.319 359.756 375.349 360.377C375.337 360.656 375.381 360.936 375.477 361.198C375.574 361.461 375.721 361.702 375.911 361.908C376.086 362.1 376.3 362.251 376.539 362.352C376.777 362.453 377.035 362.501 377.294 362.492C377.554 362.504 377.813 362.457 378.052 362.356C378.291 362.255 378.505 362.102 378.677 361.908C379.05 361.456 379.238 360.88 379.203 360.295Z"/>
</mask>
<path d="M374.277 364.615L375.431 364.526C375.488 364.968 375.685 365.38 375.993 365.702C376.288 365.961 376.672 366.096 377.065 366.079C377.413 366.091 377.757 365.995 378.049 365.806C378.328 365.644 378.561 365.412 378.722 365.133C378.933 364.776 379.088 364.39 379.18 363.986C379.293 363.501 379.35 363.005 379.351 362.507V362.255C379.103 362.645 378.766 362.97 378.367 363.202C377.82 363.507 377.187 363.62 376.568 363.525C375.95 363.43 375.38 363.132 374.95 362.677C374.659 362.361 374.435 361.99 374.291 361.586C374.146 361.182 374.083 360.754 374.107 360.325C374.088 359.888 374.156 359.453 374.307 359.042C374.459 358.632 374.689 358.256 374.987 357.936C375.271 357.635 375.616 357.398 375.998 357.238C376.38 357.079 376.792 357.002 377.206 357.012C377.831 357.009 378.444 357.192 378.966 357.537C379.504 357.899 379.921 358.414 380.164 359.016C380.481 359.902 380.622 360.842 380.578 361.782C380.608 362.785 380.468 363.785 380.164 364.741C379.938 365.418 379.513 366.011 378.944 366.442C378.394 366.833 377.733 367.038 377.058 367.026C376.368 367.062 375.692 366.828 375.172 366.375C374.665 365.906 374.352 365.265 374.291 364.578L374.277 364.615ZM379.203 360.295C379.246 359.693 379.049 359.097 378.655 358.639C378.494 358.447 378.293 358.292 378.065 358.188C377.838 358.083 377.589 358.03 377.339 358.032C377.072 358.03 376.807 358.086 376.564 358.197C376.322 358.309 376.106 358.472 375.933 358.676C375.528 359.147 375.319 359.756 375.349 360.377C375.337 360.656 375.381 360.936 375.477 361.198C375.574 361.461 375.721 361.702 375.911 361.908C376.086 362.1 376.3 362.251 376.539 362.352C376.777 362.453 377.035 362.501 377.294 362.492C377.554 362.504 377.813 362.457 378.052 362.356C378.291 362.255 378.505 362.102 378.677 361.908C379.05 361.456 379.238 360.88 379.203 360.295Z" fill="white"/>
<path d="M374.277 364.615L372.42 363.872L371.225 366.856L374.43 366.609L374.277 364.615ZM375.431 364.526L377.414 364.268L377.169 362.386L375.277 362.532L375.431 364.526ZM375.993 365.702L374.546 367.084L374.608 367.149L374.676 367.208L375.993 365.702ZM377.065 366.079L377.132 364.08L377.056 364.078L376.981 364.081L377.065 366.079ZM378.049 365.806L377.05 364.073L377.004 364.1L376.959 364.129L378.049 365.806ZM378.722 365.133L377.001 364.113L376.995 364.123L376.989 364.134L378.722 365.133ZM379.18 363.986L377.232 363.534L377.231 363.538L379.18 363.986ZM379.351 362.507L381.351 362.508V362.507H379.351ZM379.351 362.255H381.351V355.365L377.661 361.185L379.351 362.255ZM378.367 363.202L379.34 364.95L379.356 364.941L379.372 364.931L378.367 363.202ZM374.95 362.677L373.477 364.03L373.487 364.041L373.497 364.052L374.95 362.677ZM374.107 360.325L376.104 360.434L376.109 360.337L376.105 360.241L374.107 360.325ZM374.987 357.936L373.534 356.562L373.527 356.568L373.521 356.575L374.987 357.936ZM377.206 357.012L377.159 359.011L377.187 359.012L377.215 359.012L377.206 357.012ZM378.966 357.537L380.084 355.878L380.077 355.873L380.069 355.868L378.966 357.537ZM380.164 359.016L382.047 358.342L382.034 358.304L382.018 358.267L380.164 359.016ZM380.578 361.782L378.58 361.689L378.577 361.765L378.579 361.841L380.578 361.782ZM380.164 364.741L382.061 365.374L382.066 365.36L382.07 365.346L380.164 364.741ZM378.944 366.442L380.103 368.071L380.128 368.054L380.152 368.036L378.944 366.442ZM377.058 367.026L377.093 365.026L377.023 365.025L376.954 365.029L377.058 367.026ZM375.172 366.375L373.812 367.842L373.835 367.863L373.858 367.884L375.172 366.375ZM374.291 364.578L376.284 364.403L372.435 363.835L374.291 364.578ZM379.203 360.295L377.208 360.153L377.198 360.284L377.206 360.416L379.203 360.295ZM378.655 358.639L377.122 359.922L377.13 359.932L377.138 359.941L378.655 358.639ZM377.339 358.032L377.32 360.032L377.34 360.032L377.36 360.032L377.339 358.032ZM375.933 358.676L377.449 359.98L377.455 359.974L377.46 359.968L375.933 358.676ZM375.349 360.377L377.347 360.462L377.351 360.37L377.347 360.279L375.349 360.377ZM375.911 361.908L377.391 360.562L377.385 360.556L377.38 360.55L375.911 361.908ZM377.294 362.492L377.384 360.494L377.306 360.491L377.228 360.493L377.294 362.492ZM378.677 361.908L380.172 363.236L380.197 363.209L380.22 363.181L378.677 361.908ZM374.277 364.615L374.43 366.609L375.584 366.52L375.431 364.526L375.277 362.532L374.123 362.621L374.277 364.615ZM375.431 364.526L373.447 364.784C373.56 365.648 373.945 366.453 374.546 367.084L375.993 365.702L377.439 364.321C377.425 364.306 377.416 364.288 377.414 364.268L375.431 364.526ZM375.993 365.702L374.676 367.208C375.358 367.804 376.244 368.116 377.149 368.078L377.065 366.079L376.981 364.081C377.101 364.076 377.219 364.117 377.309 364.197L375.993 365.702ZM377.065 366.079L376.998 368.078C377.756 368.104 378.503 367.896 379.138 367.483L378.049 365.806L376.959 364.129C377.011 364.095 377.071 364.078 377.132 364.08L377.065 366.079ZM378.049 365.806L379.048 367.538C379.632 367.201 380.118 366.716 380.455 366.131L378.722 365.133L376.989 364.134C377.004 364.109 377.025 364.088 377.05 364.073L378.049 365.806ZM378.722 365.133L380.442 366.153C380.759 365.619 380.991 365.039 381.13 364.434L379.18 363.986L377.231 363.538C377.185 363.74 377.107 363.934 377.001 364.113L378.722 365.133ZM379.18 363.986L381.129 364.439C381.276 363.806 381.35 363.158 381.351 362.508L379.351 362.507L377.351 362.505C377.35 362.851 377.311 363.196 377.232 363.534L379.18 363.986ZM379.351 362.507H381.351V362.255H379.351H377.351V362.507H379.351ZM379.351 362.255L377.661 361.185C377.586 361.303 377.483 361.402 377.361 361.473L378.367 363.202L379.372 364.931C380.049 364.538 380.621 363.987 381.04 363.326L379.351 362.255ZM378.367 363.202L377.394 361.455C377.235 361.543 377.052 361.576 376.872 361.548L376.568 363.525L376.264 365.502C377.322 365.665 378.404 365.47 379.34 364.95L378.367 363.202ZM376.568 363.525L376.872 361.548C376.693 361.521 376.527 361.434 376.402 361.302L374.95 362.677L373.497 364.052C374.233 364.829 375.207 365.339 376.264 365.502L376.568 363.525ZM374.95 362.677L376.423 361.324C376.313 361.204 376.228 361.064 376.173 360.911L374.291 361.586L372.408 362.261C372.643 362.916 373.006 363.518 373.477 364.03L374.95 362.677ZM374.291 361.586L376.173 360.911C376.118 360.758 376.095 360.596 376.104 360.434L374.107 360.325L372.11 360.216C372.072 360.911 372.173 361.606 372.408 362.261L374.291 361.586ZM374.107 360.325L376.105 360.241C376.098 360.068 376.124 359.896 376.184 359.734L374.307 359.042L372.431 358.351C372.188 359.009 372.079 359.709 372.108 360.41L374.107 360.325ZM374.307 359.042L376.184 359.734C376.244 359.572 376.335 359.423 376.453 359.297L374.987 357.936L373.521 356.575C373.044 357.089 372.673 357.693 372.431 358.351L374.307 359.042ZM374.987 357.936L376.44 359.311C376.532 359.213 376.643 359.136 376.767 359.084L375.998 357.238L375.229 355.392C374.588 355.659 374.011 356.058 373.534 356.562L374.987 357.936ZM375.998 357.238L376.767 359.084C376.891 359.033 377.024 359.008 377.159 359.011L377.206 357.012L377.253 355.012C376.559 354.996 375.869 355.125 375.229 355.392L375.998 357.238ZM377.206 357.012L377.215 359.012C377.445 359.011 377.671 359.078 377.863 359.205L378.966 357.537L380.069 355.868C379.217 355.305 378.218 355.007 377.197 355.012L377.206 357.012ZM378.966 357.537L377.848 359.195C378.055 359.335 378.216 359.533 378.31 359.765L380.164 359.016L382.018 358.267C381.626 357.296 380.952 356.464 380.084 355.878L378.966 357.537ZM380.164 359.016L378.281 359.69C378.51 360.33 378.612 361.01 378.58 361.689L380.578 361.782L382.576 361.875C382.632 360.674 382.452 359.474 382.047 358.342L380.164 359.016ZM380.578 361.782L378.579 361.841C378.602 362.618 378.493 363.394 378.258 364.135L380.164 364.741L382.07 365.346C382.442 364.176 382.613 362.951 382.577 361.724L380.578 361.782ZM380.164 364.741L378.267 364.107C378.169 364.402 377.983 364.66 377.736 364.848L378.944 366.442L380.152 368.036C381.042 367.361 381.707 366.433 382.061 365.374L380.164 364.741ZM378.944 366.442L377.784 364.812C377.583 364.956 377.34 365.031 377.093 365.026L377.058 367.026L377.023 369.026C378.125 369.045 379.205 368.711 380.103 368.071L378.944 366.442ZM377.058 367.026L376.954 365.029C376.783 365.038 376.614 364.98 376.485 364.867L375.172 366.375L373.858 367.884C374.77 368.677 375.954 369.086 377.161 369.023L377.058 367.026ZM375.172 366.375L376.531 364.908C376.389 364.776 376.301 364.597 376.284 364.403L374.291 364.578L372.299 364.752C372.403 365.934 372.942 367.036 373.812 367.842L375.172 366.375ZM374.291 364.578L372.435 363.835L372.42 363.872L374.277 364.615L376.133 365.358L376.148 365.321L374.291 364.578ZM379.203 360.295L381.198 360.438C381.278 359.309 380.91 358.195 380.173 357.336L378.655 358.639L377.138 359.941C377.188 360 377.213 360.076 377.208 360.153L379.203 360.295ZM378.655 358.639L380.189 357.355C379.838 356.936 379.398 356.6 378.902 356.371L378.065 358.188L377.228 360.004C377.187 359.985 377.151 359.957 377.122 359.922L378.655 358.639ZM378.065 358.188L378.902 356.371C378.406 356.142 377.864 356.027 377.318 356.032L377.339 358.032L377.36 360.032C377.314 360.033 377.27 360.023 377.228 360.004L378.065 358.188ZM377.339 358.032L377.357 356.032C376.796 356.027 376.242 356.145 375.732 356.379L376.564 358.197L377.397 360.016C377.373 360.027 377.347 360.032 377.32 360.032L377.339 358.032ZM376.564 358.197L375.732 356.379C375.222 356.612 374.77 356.955 374.407 357.383L375.933 358.676L377.46 359.968C377.443 359.989 377.421 360.005 377.397 360.016L376.564 358.197ZM375.933 358.676L374.418 357.371C373.678 358.231 373.296 359.342 373.352 360.475L375.349 360.377L377.347 360.279C377.341 360.17 377.378 360.063 377.449 359.98L375.933 358.676ZM375.349 360.377L373.351 360.292C373.328 360.835 373.413 361.378 373.6 361.888L375.477 361.198L377.355 360.509C377.349 360.494 377.347 360.478 377.347 360.462L375.349 360.377ZM375.477 361.198L373.6 361.888C373.787 362.398 374.074 362.866 374.443 363.266L375.911 361.908L377.38 360.55C377.369 360.538 377.36 360.524 377.355 360.509L375.477 361.198ZM375.911 361.908L374.432 363.254C374.801 363.66 375.255 363.981 375.76 364.194L376.539 362.352L377.317 360.51C377.345 360.522 377.37 360.539 377.391 360.562L375.911 361.908ZM376.539 362.352L375.76 364.194C376.266 364.408 376.812 364.509 377.361 364.491L377.294 362.492L377.228 360.493C377.259 360.492 377.289 360.498 377.317 360.51L376.539 362.352ZM377.294 362.492L377.205 364.49C377.761 364.515 378.317 364.416 378.83 364.199L378.052 362.356L377.274 360.514C377.309 360.499 377.346 360.492 377.384 360.494L377.294 362.492ZM378.052 362.356L378.83 364.199C379.344 363.982 379.802 363.653 380.172 363.236L378.677 361.908L377.182 360.579C377.208 360.551 377.239 360.529 377.274 360.514L378.052 362.356ZM378.677 361.908L380.22 363.181C380.915 362.339 381.265 361.265 381.199 360.175L379.203 360.295L377.206 360.416C377.211 360.495 377.185 360.574 377.135 360.635L378.677 361.908Z" fill="white" fill-opacity="0.5" mask="url(#path-119-inside-11_4097_764)"/>
<path d="M155.096 32.6528C222.719 32.6528 277.545 87.4769 277.545 155.102M155.096 277.551C87.4723 277.551 32.6467 222.727 32.6467 155.102" stroke="white" stroke-opacity="0.25" stroke-width="2" stroke-miterlimit="10"/>
<path d="M163.543 146.657L146.652 163.55" stroke="white" stroke-opacity="0.25" stroke-width="2" stroke-miterlimit="10"/>
</g>
<defs>
<clipPath id="clip0_4097_764">
<rect width="486.531" height="400" fill="white"/>
</clipPath>
</defs>
</svg>
