<svg width="290" height="272" viewBox="0 0 290 272" fill="none" xmlns="http://www.w3.org/2000/svg">
<path d="M272.13 0H17.8701C13.1291 0.00450588 8.58381 1.89189 5.233 5.24743C1.88219 8.60297 -2.13924e-06 13.1521 0 17.8953V254.105C-2.13924e-06 258.848 1.88219 263.397 5.233 266.753C8.58381 270.108 13.1291 271.995 17.8701 272H272.13C276.871 271.995 281.416 270.108 284.767 266.753C288.118 263.397 290 258.848 290 254.105V17.8953C290 13.1521 288.118 8.60297 284.767 5.24743C281.416 1.89189 276.871 0.00450588 272.13 0ZM272.13 263.466H17.8701C15.3878 263.463 13.0078 262.476 11.251 260.722C9.49415 258.967 8.50358 256.588 8.49609 254.105V17.8953C8.49459 15.406 9.48118 13.018 11.239 11.2562C12.9968 9.49437 15.3819 8.503 17.8701 8.5H272.13C274.618 8.503 277.003 9.49437 278.761 11.2562C280.519 13.018 281.505 15.406 281.504 17.8953V254.105C281.505 256.594 280.519 258.982 278.761 260.744C277.003 262.506 274.618 263.497 272.13 263.5V263.466Z" fill="white" fill-opacity="0.1"/>
<path d="M76.8959 27.2737C68.8716 27.2737 61.0275 29.6543 54.3555 34.1144C47.6835 38.5745 42.4833 44.9139 39.4126 52.3308C36.3418 59.7477 35.5383 67.909 37.1038 75.7828C38.6693 83.6565 42.5334 90.8891 48.2074 96.5657C53.8815 102.242 61.1106 106.108 68.9808 107.674C76.8509 109.241 85.0085 108.437 92.422 105.365C99.8355 102.292 106.172 97.0898 110.63 90.4148C115.088 83.7397 117.468 75.892 117.468 67.864C117.456 57.1025 113.177 46.7851 105.571 39.1756C97.9651 31.566 87.6525 27.2857 76.8959 27.2737ZM76.8959 99.9544C70.552 99.9544 64.3505 98.0723 59.0757 94.5462C53.8009 91.02 49.6897 86.0082 47.2619 80.1445C44.8342 74.2807 44.199 67.8284 45.4367 61.6035C46.6743 55.3786 49.7292 49.6606 54.2151 45.1727C58.7009 40.6848 64.4162 37.6285 70.6383 36.3903C76.8603 35.1521 83.3097 35.7876 89.1707 38.2164C95.0318 40.6453 100.041 44.7584 103.566 50.0356C107.09 55.3128 108.972 61.5171 108.972 67.864C108.961 76.3717 105.578 84.5279 99.5652 90.5437C93.5521 96.5595 85.3997 99.9439 76.8959 99.9544Z" fill="white" fill-opacity="0.1"/>
<path d="M213.107 145.378C205.083 145.378 197.238 147.759 190.566 152.219C183.894 156.679 178.694 163.019 175.624 170.435C172.553 177.852 171.749 186.014 173.315 193.887C174.88 201.761 178.744 208.994 184.418 214.67C190.092 220.347 197.322 224.213 205.192 225.779C213.062 227.345 221.219 226.541 228.633 223.469C236.046 220.397 242.383 215.195 246.841 208.519C251.299 201.844 253.679 193.997 253.679 185.969C253.667 175.207 249.388 164.89 241.782 157.28C234.176 149.671 223.863 145.39 213.107 145.378ZM213.107 218.059C206.763 218.059 200.561 216.177 195.287 212.651C190.012 209.125 185.901 204.113 183.473 198.249C181.045 192.385 180.41 185.933 181.648 179.708C182.885 173.483 185.94 167.765 190.426 163.277C194.912 158.789 200.627 155.733 206.849 154.495C213.071 153.257 219.521 153.892 225.382 156.321C231.243 158.75 236.252 162.863 239.777 168.14C243.301 173.417 245.182 179.622 245.182 185.969C245.172 194.476 241.789 202.633 235.776 208.648C229.763 214.664 221.611 218.049 213.107 218.059Z" fill="white" fill-opacity="0.1"/>
<path d="M135.936 240.771H131.404C130.278 240.771 129.197 241.219 128.4 242.016C127.604 242.813 127.156 243.894 127.156 245.021C127.156 246.149 127.604 247.23 128.4 248.027C129.197 248.824 130.278 249.272 131.404 249.272H135.936C137.062 249.272 138.143 248.824 138.939 248.027C139.736 247.23 140.184 246.149 140.184 245.021C140.184 243.894 139.736 242.813 138.939 242.016C138.143 241.219 137.062 240.771 135.936 240.771Z" fill="white" fill-opacity="0.1"/>
<path d="M113.221 240.771H108.689C107.563 240.771 106.482 241.219 105.686 242.016C104.889 242.813 104.441 243.894 104.441 245.021C104.441 246.149 104.889 247.23 105.686 248.027C106.482 248.824 107.563 249.272 108.689 249.272H113.221C114.347 249.272 115.428 248.824 116.225 248.027C117.021 247.23 117.469 246.149 117.469 245.021C117.469 243.894 117.021 242.813 116.225 242.016C115.428 241.219 114.347 240.771 113.221 240.771Z" fill="white" fill-opacity="0.1"/>
<path d="M181.322 240.771H176.791C175.664 240.771 174.584 241.219 173.787 242.016C172.991 242.813 172.543 243.894 172.543 245.021C172.543 246.149 172.991 247.23 173.787 248.027C174.584 248.824 175.664 249.272 176.791 249.272H181.322C182.449 249.272 183.529 248.824 184.326 248.027C185.123 247.23 185.57 246.149 185.57 245.021C185.57 243.894 185.123 242.813 184.326 242.016C183.529 241.219 182.449 240.771 181.322 240.771Z" fill="white" fill-opacity="0.1"/>
<path d="M158.623 240.771H154.092C152.965 240.771 151.885 241.219 151.088 242.016C150.291 242.813 149.844 243.894 149.844 245.021C149.844 246.149 150.291 247.23 151.088 248.027C151.885 248.824 152.965 249.272 154.092 249.272H158.623C159.75 249.272 160.83 248.824 161.627 248.027C162.424 247.23 162.871 246.149 162.871 245.021C162.871 243.894 162.424 242.813 161.627 242.016C160.83 241.219 159.75 240.771 158.623 240.771Z" fill="white" fill-opacity="0.1"/>
<path d="M113.362 135.433C103.813 129.116 92.376 126.294 80.9862 127.444C69.5964 128.595 58.9536 133.647 50.8592 141.745C42.7648 149.844 37.7159 160.492 36.5671 171.888C35.4184 183.283 38.2402 194.725 44.5551 204.278C44.9424 204.864 45.4691 205.345 46.088 205.677C46.7068 206.009 47.3985 206.183 48.1008 206.182C48.9336 206.183 49.748 205.937 50.4401 205.473C50.9054 205.166 51.3055 204.769 51.6174 204.307C51.9293 203.844 52.147 203.324 52.258 202.778C52.3691 202.231 52.3712 201.667 52.2643 201.12C52.1574 200.572 51.9437 200.051 51.6352 199.586C46.404 191.667 44.0677 182.184 45.0217 172.74C45.9756 163.296 50.1612 154.472 56.8702 147.76C63.5793 141.049 72.3998 136.862 81.8393 135.909C91.2789 134.955 100.758 137.294 108.672 142.528C109.613 143.15 110.762 143.373 111.866 143.148C112.971 142.923 113.941 142.268 114.563 141.327C115.185 140.386 115.408 139.236 115.183 138.131C114.957 137.026 114.303 136.056 113.362 135.433Z" fill="white" fill-opacity="0.1"/>
<path d="M127.398 149.481C127.093 149.009 126.697 148.603 126.234 148.286C125.77 147.968 125.248 147.745 124.698 147.631C124.149 147.517 123.581 147.512 123.03 147.619C122.478 147.725 121.953 147.939 121.485 148.25C121.017 148.561 120.615 148.961 120.303 149.428C119.99 149.895 119.774 150.419 119.665 150.971C119.556 151.522 119.558 152.09 119.67 152.64C119.783 153.191 120.003 153.714 120.318 154.179C125.549 162.097 127.886 171.581 126.932 181.025C125.978 190.469 121.792 199.293 115.083 206.004C108.374 212.716 99.5536 216.902 90.1141 217.856C80.6745 218.809 71.1956 216.471 63.281 211.236C62.3414 210.614 61.1932 210.391 60.089 210.616C58.9849 210.84 58.0152 211.495 57.3932 212.435C56.7713 213.375 56.5482 214.524 56.7728 215.628C56.9975 216.733 57.6516 217.703 58.5912 218.325C68.1407 224.635 79.5755 227.452 90.9615 226.299C102.348 225.146 112.986 220.094 121.078 211.997C129.17 203.901 134.219 193.257 135.37 181.866C136.522 170.474 133.706 159.034 127.398 149.481Z" fill="white" fill-opacity="0.1"/>
<path d="M231.41 35.5074C221.862 29.1928 210.426 26.3723 199.038 27.523C187.65 28.6738 177.009 33.7251 168.915 41.8224C160.822 49.9197 155.773 60.5656 154.623 71.9589C153.472 83.3521 156.292 94.7931 162.603 104.346C162.903 104.829 163.297 105.247 163.761 105.575C164.225 105.903 164.75 106.134 165.306 106.256C165.861 106.377 166.435 106.385 166.993 106.281C167.552 106.176 168.084 105.961 168.558 105.647C169.031 105.333 169.437 104.927 169.752 104.453C170.066 103.979 170.282 103.447 170.387 102.888C170.492 102.33 170.483 101.755 170.363 101.2C170.242 100.644 170.011 100.119 169.683 99.654C164.452 91.7354 162.116 82.2518 163.07 72.808C164.024 63.3642 168.209 54.5401 174.918 47.8286C181.627 41.1172 190.448 36.9305 199.887 35.9771C209.327 35.0236 218.806 37.362 226.72 42.5964C227.66 43.2186 228.808 43.4418 229.912 43.2171C231.017 42.9923 231.986 42.3379 232.608 41.3979C233.23 40.4578 233.453 39.3091 233.229 38.2044C233.004 37.0997 232.35 36.1296 231.41 35.5074Z" fill="white" fill-opacity="0.1"/>
<path d="M245.449 49.5493C245.141 49.0839 244.744 48.6837 244.281 48.3717C243.818 48.0597 243.299 47.842 242.752 47.731C242.205 47.6199 241.641 47.6178 241.093 47.7246C240.546 47.8315 240.024 48.0452 239.559 48.3537C239.094 48.6621 238.694 49.0592 238.382 49.5223C238.07 49.9854 237.852 50.5055 237.741 51.0527C237.63 51.6 237.628 52.1637 237.735 52.7118C237.842 53.2599 238.055 53.7815 238.364 54.247C243.592 62.1653 245.927 71.6473 244.973 81.0893C244.018 90.5313 239.833 99.3538 233.126 106.064C226.418 112.775 217.6 116.962 208.162 117.917C198.725 118.871 189.247 116.536 181.332 111.305C180.393 110.682 179.244 110.458 178.139 110.682C177.035 110.906 176.064 111.56 175.442 112.5C174.819 113.44 174.595 114.589 174.819 115.695C175.043 116.8 175.697 117.771 176.637 118.394C186.186 124.707 197.622 127.526 209.01 126.374C220.398 125.223 231.039 120.171 239.132 112.074C247.226 103.976 252.275 93.3308 253.426 81.9376C254.578 70.5444 251.76 59.1032 245.449 49.5493Z" fill="white" fill-opacity="0.1"/>
</svg>
