<svg width="596" height="490" viewBox="0 0 596 490" fill="none" xmlns="http://www.w3.org/2000/svg">
<rect width="596" height="490" fill="black"/>
<path d="M190 40C272.839 40 340 107.16 340 190M190 340C107.161 340 40 272.84 40 190" stroke="white" stroke-opacity="0.25" stroke-width="2" stroke-miterlimit="10"/>
<path d="M200.347 179.656L179.656 200.35" stroke="white" stroke-opacity="0.25" stroke-width="2" stroke-miterlimit="10"/>
<rect x="157" y="372" width="142" height="48" rx="6" fill="black"/>
<path d="M190.464 397.082C190.464 401.967 192.883 404.449 197.669 404.449C202.44 404.449 204.851 401.967 204.851 397.082C204.851 392.177 202.44 389.696 197.669 389.696C192.883 389.696 190.464 392.177 190.464 397.082ZM193.968 397.082C193.968 393.863 195.002 392.559 197.639 392.559C200.332 392.559 201.343 393.818 201.343 397.082C201.343 400.304 200.306 401.608 197.639 401.608C194.965 401.608 193.968 400.356 193.968 397.082Z" fill="white"/>
<path d="M233.954 397.082C233.954 401.967 236.388 404.449 241.166 404.449C245.929 404.449 248.344 401.967 248.344 397.082C248.344 392.177 245.929 389.696 241.166 389.696C236.384 389.696 233.954 392.177 233.954 397.082ZM237.469 397.082C237.469 393.863 238.495 392.559 241.133 392.559C243.829 392.559 244.829 393.818 244.829 397.082C244.829 400.304 243.792 401.608 241.133 401.608C238.462 401.608 237.469 400.356 237.469 397.082Z" fill="white"/>
<path d="M274.107 386.647V400.026C274.107 402.752 275.744 404.197 278.848 404.197H281.874C282.652 404.197 283 403.504 283 402.838C283 402.167 282.652 401.475 281.874 401.475H280.118C278.515 401.475 277.677 401.375 277.677 399.474V393.003H281.63C282.408 393.003 282.756 392.307 282.756 391.633C282.756 390.97 282.408 390.273 281.63 390.273L277.677 390.281V386.647C277.677 385.725 277.022 385.169 275.951 385.169C275.088 385.169 274.107 385.558 274.107 386.647Z" fill="white"/>
<path d="M207.515 386.647V400.026C207.515 402.752 209.156 404.197 212.274 404.197H215.301C216.071 404.197 216.416 403.504 216.416 402.838C216.416 402.167 216.071 401.475 215.301 401.475H213.534C211.93 401.475 211.093 401.375 211.093 399.474V393.003H215.041C215.819 393.003 216.167 392.307 216.167 391.633C216.167 390.97 215.819 390.273 215.041 390.273H211.093V386.647C211.093 385.725 210.448 385.169 209.363 385.169C208.507 385.169 207.515 385.558 207.515 386.647Z" fill="white"/>
<path d="M263.583 389.996C259.483 389.996 257.731 391.625 257.731 395.448V402.693C257.731 403.604 258.398 404.138 259.52 404.138C260.635 404.138 261.305 403.601 261.305 402.701V395.7C261.305 393.655 261.661 393.018 263.88 393.018H264.917C267.136 393.018 267.502 393.655 267.502 395.7V402.693C267.488 403.604 268.165 404.138 269.28 404.138C270.399 404.138 271.066 403.601 271.066 402.701V395.444C271.066 391.622 269.314 389.992 265.21 389.992H263.583V389.996Z" fill="white"/>
<path d="M251.004 391.537V402.623C251.004 403.76 251.937 404.171 252.812 404.171C253.686 404.171 254.608 403.76 254.608 402.623V391.537C254.608 390.396 253.686 389.984 252.801 389.984C251.937 389.984 251.004 390.396 251.004 391.537Z" fill="white"/>
<path d="M250.782 386.114C250.782 387.243 251.697 388.155 252.801 388.155C253.927 388.155 254.831 387.243 254.831 386.114C254.831 384.988 253.931 384.065 252.801 384.065C251.697 384.065 250.782 384.988 250.782 386.114Z" fill="white"/>
<path d="M220.538 390.414C219.153 390.722 218.382 391.592 218.382 393.114V408.457C218.382 409.542 219.297 409.935 220.164 409.935C221.027 409.935 221.949 409.542 221.949 408.457V403.997C222.794 404.182 223.546 404.267 224.535 404.267C226.717 404.267 227.85 403.897 229.091 403.156C230.924 402.06 232.01 400 232.01 397.248C232.01 392.451 229.561 390.014 224.705 390.014C223.39 390.014 221.768 390.136 220.538 390.414ZM221.946 401.234V393.17C222.675 393.014 223.59 392.937 224.465 392.937C227.291 392.937 228.428 393.992 228.428 396.967C228.428 400.311 227.476 401.467 224.409 401.467C223.572 401.471 222.583 401.389 221.946 401.234Z" fill="white"/>
<path d="M184.238 386.225V392.722H176.574V386.225C176.574 385.306 175.93 384.762 174.845 384.762C173.996 384.762 173 385.143 173 386.225V402.678C173 403.597 173.652 404.149 174.741 404.149C175.597 404.149 176.574 403.764 176.574 402.678V395.981H184.238V402.675C184.238 403.593 184.89 404.145 185.975 404.145C186.82 404.145 187.816 403.76 187.816 402.675V386.225C187.816 385.306 187.161 384.762 186.072 384.762C185.227 384.762 184.238 385.143 184.238 386.225Z" fill="white"/>
<path d="M339.75 395.689C339.751 397.282 339.279 398.839 338.395 400.164C337.511 401.489 336.254 402.522 334.782 403.132C333.311 403.742 331.692 403.902 330.13 403.591C328.567 403.281 327.132 402.514 326.006 401.388C324.88 400.261 324.113 398.826 323.802 397.264C323.492 395.702 323.652 394.083 324.262 392.611C324.872 391.14 325.905 389.883 327.23 388.999C328.554 388.114 330.112 387.643 331.704 387.644C333.838 387.646 335.883 388.494 337.392 390.002C338.9 391.511 339.748 393.556 339.75 395.689Z" stroke="white" stroke-opacity="0.5" stroke-miterlimit="10"/>
<path d="M326.863 395.373H336.524" stroke="white" stroke-opacity="0.5" stroke-miterlimit="10"/>
<path d="M413.171 395.373C413.171 397.029 412.679 398.648 411.759 400.025C410.839 401.402 409.532 402.475 408.002 403.108C406.472 403.742 404.788 403.908 403.164 403.585C401.54 403.262 400.048 402.464 398.877 401.293C397.706 400.122 396.909 398.631 396.586 397.006C396.263 395.382 396.428 393.699 397.062 392.169C397.696 390.639 398.769 389.331 400.146 388.411C401.523 387.491 403.142 387 404.798 387C405.897 386.999 406.987 387.215 408.003 387.636C409.019 388.056 409.942 388.673 410.72 389.451C411.498 390.228 412.114 391.152 412.535 392.168C412.955 393.184 413.171 394.273 413.171 395.373Z" stroke="white" stroke-opacity="0.5" stroke-miterlimit="10"/>
<path d="M399.648 395.373H410.597" stroke="white" stroke-opacity="0.5" stroke-miterlimit="10"/>
<path d="M404.797 390.22V400.525" stroke="white" stroke-opacity="0.5" stroke-miterlimit="10"/>
<path d="M368.41 403.746C370.003 403.746 371.559 403.255 372.883 402.335C374.207 401.415 375.239 400.107 375.848 398.577C376.458 397.047 376.617 395.364 376.306 393.739C375.996 392.115 375.229 390.623 374.103 389.452C372.977 388.281 371.543 387.484 369.981 387.161C368.419 386.838 366.8 387.004 365.329 387.637C363.858 388.271 362.601 389.344 361.716 390.721C360.832 392.098 360.359 393.717 360.359 395.373C360.367 397.591 361.217 399.716 362.726 401.285C364.234 402.853 366.277 403.738 368.41 403.746Z" stroke="#9E0900" stroke-miterlimit="10"/>
<path d="M368.086 387V390.22" stroke="#9E0900" stroke-miterlimit="10"/>
<path d="M376.459 395.373H373.883" stroke="#9E0900" stroke-miterlimit="10"/>
<path d="M368.086 403.746V401.17" stroke="#9E0900" stroke-miterlimit="10"/>
<path d="M360.359 395.373H362.292" stroke="#9E0900" stroke-miterlimit="10"/>
<path d="M368.086 392.797V395.35L370.662 398.593" stroke="#9E0900" stroke-miterlimit="10"/>
<path d="M368.404 444.966C369.996 444.967 371.553 444.496 372.878 443.612C374.203 442.728 375.236 441.471 375.846 440C376.456 438.529 376.616 436.91 376.306 435.348C375.996 433.786 375.23 432.351 374.104 431.224C372.979 430.098 371.544 429.331 369.982 429.02C368.42 428.708 366.801 428.868 365.33 429.477C363.858 430.086 362.601 431.118 361.716 432.442C360.831 433.766 360.359 435.323 360.359 436.915C360.365 439.048 361.214 441.091 362.721 442.599C364.229 444.108 366.271 444.959 368.404 444.966Z" stroke="white" stroke-opacity="0.5" stroke-miterlimit="10"/>
<path d="M368.086 441.746V432.085" stroke="white" stroke-opacity="0.5" stroke-miterlimit="10"/>
<path d="M372.591 455.915H364.218V463H372.591V455.915Z" stroke="white" stroke-opacity="0.5" stroke-miterlimit="10"/>
<path d="M365.507 454.627C365.538 453.933 365.823 453.278 366.303 452.798C366.783 452.319 367.421 452.051 368.084 452.051C368.747 452.051 369.384 452.319 369.864 452.798C370.344 453.278 370.629 453.933 370.66 454.627" stroke="white" stroke-opacity="0.5" stroke-miterlimit="10"/>
<path d="M365.507 454.627V455.915" stroke="white" stroke-opacity="0.5" stroke-miterlimit="10"/>
<path d="M370.664 454.627V455.915" stroke="white" stroke-opacity="0.5" stroke-miterlimit="10"/>
<path fill-rule="evenodd" clip-rule="evenodd" d="M368.399 459.136C368.474 459.135 368.548 459.156 368.606 459.193C368.665 459.23 368.706 459.282 368.722 459.34C368.738 459.397 368.729 459.458 368.695 459.511C368.662 459.564 368.606 459.606 368.537 459.631L368.705 460.424H368.105L368.273 459.631C368.214 459.611 368.165 459.577 368.131 459.534C368.098 459.491 368.082 459.441 368.087 459.39C368.087 459.357 368.095 459.324 368.111 459.293C368.128 459.262 368.151 459.234 368.182 459.21C368.212 459.187 368.247 459.168 368.287 459.155C368.326 459.142 368.368 459.136 368.411 459.136H368.399Z" stroke="white" stroke-opacity="0.5" stroke-miterlimit="10"/>
<path d="M374.524 459.78H403.11C403.554 459.771 403.977 459.561 404.292 459.195C404.606 458.828 404.786 458.333 404.795 457.813V455.271" stroke="white" stroke-opacity="0.5" stroke-miterlimit="10"/>
<path d="M361.002 459.78H332.442C331.994 459.78 331.564 459.574 331.244 459.206C330.924 458.838 330.739 458.338 330.731 457.813V455.271" stroke="white" stroke-opacity="0.5" stroke-miterlimit="10"/>
<path d="M403.502 430.797H400.281V442.39H403.502V430.797Z" stroke="white" stroke-opacity="0.5" stroke-miterlimit="10"/>
<path d="M409.22 430.797H406V442.39H409.22V430.797Z" stroke="white" stroke-opacity="0.5" stroke-miterlimit="10"/>
<path d="M486.593 395.695C486.593 397.287 486.12 398.844 485.236 400.168C484.351 401.492 483.094 402.524 481.623 403.133C480.152 403.742 478.533 403.902 476.971 403.591C475.409 403.28 473.975 402.514 472.849 401.388C471.723 400.262 470.956 398.827 470.646 397.266C470.335 395.704 470.494 394.085 471.104 392.614C471.713 391.143 472.745 389.886 474.069 389.001C475.393 388.116 476.949 387.644 478.542 387.644C480.676 387.646 482.723 388.494 484.233 390.004C485.742 391.513 486.591 393.56 486.593 395.695Z" stroke="white" stroke-opacity="0.5" stroke-miterlimit="10"/>
<path d="M473.714 395.373H483.375" stroke="white" stroke-opacity="0.5" stroke-miterlimit="10"/>
<path d="M523.948 395.373C523.948 397.029 523.476 398.648 522.591 400.025C521.706 401.402 520.449 402.475 518.978 403.108C517.507 403.742 515.888 403.908 514.326 403.585C512.765 403.262 511.33 402.464 510.204 401.293C509.078 400.122 508.312 398.631 508.001 397.006C507.69 395.382 507.85 393.699 508.459 392.169C509.068 390.639 510.1 389.331 511.424 388.411C512.748 387.491 514.305 387 515.897 387C518.032 387.002 520.079 387.884 521.588 389.454C523.098 391.024 523.946 393.153 523.948 395.373Z" stroke="white" stroke-opacity="0.5" stroke-miterlimit="10"/>
<path d="M510.425 395.373H520.73" stroke="white" stroke-opacity="0.5" stroke-miterlimit="10"/>
<path d="M515.573 390.22V400.525" stroke="white" stroke-opacity="0.5" stroke-miterlimit="10"/>
<path d="M486.593 437.243C486.591 438.899 486.118 440.517 485.233 441.893C484.348 443.269 483.09 444.342 481.619 444.975C480.147 445.607 478.529 445.772 476.968 445.449C475.406 445.125 473.972 444.327 472.847 443.156C471.722 441.985 470.955 440.493 470.645 438.869C470.335 437.245 470.495 435.561 471.104 434.032C471.714 432.502 472.746 431.195 474.069 430.275C475.393 429.355 476.95 428.864 478.542 428.864C479.6 428.864 480.647 429.08 481.625 429.501C482.602 429.922 483.49 430.539 484.238 431.317C484.986 432.095 485.579 433.019 485.983 434.036C486.387 435.053 486.594 436.143 486.593 437.243Z" stroke="white" stroke-opacity="0.5" stroke-miterlimit="10"/>
<path d="M473.714 437.237H483.375" stroke="white" stroke-opacity="0.5" stroke-miterlimit="10"/>
<path d="M523.948 436.915C523.948 438.508 523.476 440.064 522.591 441.388C521.706 442.712 520.449 443.744 518.978 444.353C517.507 444.963 515.888 445.122 514.326 444.811C512.765 444.501 511.33 443.734 510.204 442.608C509.078 441.482 508.312 440.048 508.001 438.486C507.69 436.924 507.85 435.305 508.459 433.834C509.068 432.363 510.1 431.106 511.424 430.221C512.748 429.337 514.305 428.864 515.897 428.864C518.032 428.866 520.079 429.715 521.588 431.224C523.098 432.734 523.946 434.781 523.948 436.915Z" stroke="white" stroke-opacity="0.5" stroke-miterlimit="10"/>
<path d="M510.425 437.237H520.73" stroke="white" stroke-opacity="0.5" stroke-miterlimit="10"/>
<path d="M515.573 432.085V441.746" stroke="white" stroke-opacity="0.5" stroke-miterlimit="10"/>
<path d="M556.463 387C557.094 387.001 557.699 387.254 558.145 387.703C558.592 388.151 558.843 388.759 558.844 389.393V399.027C559.189 399.518 559.372 400.105 559.367 400.705C559.384 401.098 559.322 401.49 559.184 401.858C559.047 402.226 558.836 402.563 558.566 402.847C558.295 403.131 557.97 403.357 557.61 403.512C557.25 403.666 556.863 403.746 556.472 403.746C556.08 403.746 555.693 403.666 555.333 403.512C554.973 403.357 554.648 403.131 554.378 402.847C554.107 402.563 553.897 402.226 553.759 401.858C553.621 401.49 553.559 401.098 553.576 400.705C553.571 400.105 553.754 399.518 554.099 399.027V389.393C554.098 388.761 554.346 388.154 554.789 387.705C555.232 387.257 555.834 387.003 556.463 387Z" stroke="white" stroke-opacity="0.5" stroke-miterlimit="10"/>
<path fill-rule="evenodd" clip-rule="evenodd" d="M556.825 400.035C556.881 400.138 556.926 400.268 556.956 400.416C556.987 400.563 557.002 400.724 557 400.887C557 401.182 556.947 401.465 556.853 401.674C556.76 401.883 556.633 402 556.5 402C556.367 402 556.24 401.883 556.146 401.674C556.053 401.465 556 401.182 556 400.887C556 400.724 556.016 400.564 556.046 400.417C556.077 400.27 556.122 400.139 556.177 400.035V389.729C556.178 389.537 556.212 389.353 556.273 389.217C556.334 389.081 556.416 389.003 556.502 389C556.589 389 556.673 389.077 556.734 389.214C556.795 389.35 556.83 389.536 556.83 389.729L556.825 400.035Z" stroke="white" stroke-opacity="0.5" stroke-miterlimit="10"/>
<path d="M545.202 396.017L548.433 392.797L551.642 396.017" stroke="white" stroke-opacity="0.5" stroke-miterlimit="10"/>
<path d="M545.202 392.153L548.433 389.576L551.642 392.153" stroke="white" stroke-opacity="0.5" stroke-miterlimit="10"/>
<path d="M556.463 428.864C557.094 428.867 557.698 429.12 558.144 429.568C558.59 430.016 558.841 430.623 558.844 431.257V440.893C559.194 441.381 559.377 441.969 559.367 442.57C559.384 442.963 559.322 443.355 559.184 443.723C559.047 444.091 558.836 444.428 558.566 444.712C558.295 444.996 557.97 445.222 557.61 445.376C557.25 445.531 556.863 445.61 556.472 445.61C556.08 445.61 555.693 445.531 555.333 445.376C554.973 445.222 554.648 444.996 554.378 444.712C554.107 444.428 553.897 444.091 553.759 443.723C553.621 443.355 553.559 442.963 553.576 442.57C553.567 441.969 553.75 441.381 554.099 440.893V431.257C554.098 430.625 554.346 430.018 554.789 429.569C555.232 429.121 555.834 428.867 556.463 428.864Z" stroke="white" stroke-opacity="0.5" stroke-miterlimit="10"/>
<path fill-rule="evenodd" clip-rule="evenodd" d="M556.825 441.193C556.881 441.289 556.926 441.409 556.956 441.546C556.987 441.682 557.001 441.831 557 441.981C556.999 442.153 556.977 442.321 556.937 442.471C556.896 442.622 556.838 442.749 556.767 442.841C556.697 442.932 556.616 442.987 556.533 442.998C556.449 443.009 556.366 442.977 556.29 442.905C556.214 442.833 556.149 442.723 556.099 442.585C556.049 442.447 556.017 442.285 556.005 442.115C555.993 441.945 556.002 441.771 556.032 441.61C556.061 441.449 556.109 441.306 556.172 441.193V431.669C556.173 431.492 556.208 431.323 556.268 431.197C556.329 431.072 556.411 431.001 556.497 431C556.54 430.999 556.583 431.016 556.623 431.049C556.662 431.083 556.698 431.132 556.729 431.194C556.759 431.256 556.783 431.33 556.8 431.412C556.816 431.493 556.825 431.581 556.825 431.669V441.193Z" stroke="white" stroke-opacity="0.5" stroke-miterlimit="10"/>
<path d="M545.202 437.881L548.433 434.017L551.642 437.881" stroke="white" stroke-opacity="0.5" stroke-miterlimit="10"/>
<path d="M545.202 434.017L548.433 430.797L551.642 434.017" stroke="white" stroke-opacity="0.5" stroke-miterlimit="10"/>
<mask id="path-53-inside-1_3848_2" fill="white">
<path fill-rule="evenodd" clip-rule="evenodd" d="M326.778 445.61H333.737V442.436C334.176 441.974 334.532 441.443 334.793 440.866C335.081 440.19 335.231 439.464 335.233 438.73V433.278C335.227 432.991 335.143 432.711 334.99 432.467C334.836 432.219 334.613 432.02 334.346 431.896C334.166 431.808 333.967 431.763 333.766 431.765H333.731C333.582 431.761 333.433 431.782 333.291 431.828C333.256 431.828 333.238 431.828 333.227 431.828V431.257C333.231 430.967 333.144 430.684 332.977 430.446C332.836 430.195 332.617 429.994 332.351 429.875C332.169 429.791 331.972 429.746 331.771 429.744H331.725C331.573 429.742 331.423 429.763 331.278 429.806C331.243 429.81 331.209 429.822 331.18 429.841C331.176 429.834 331.175 429.826 331.175 429.818C331.175 429.81 331.176 429.802 331.18 429.795C331.141 429.696 331.09 429.602 331.029 429.515C330.894 429.315 330.712 429.151 330.497 429.037C330.283 428.924 330.043 428.864 329.799 428.864H329.747C329.597 428.869 329.448 428.896 329.306 428.944C329.172 428.994 329.043 429.059 328.924 429.138C328.695 429.307 328.515 429.531 328.402 429.789C328.402 429.835 328.367 429.904 328.35 429.949C328.164 429.881 327.967 429.848 327.77 429.852H327.735C327.586 429.857 327.438 429.878 327.294 429.915C327.154 429.96 327.024 430.032 326.911 430.126C326.682 430.294 326.502 430.519 326.389 430.777C326.315 430.959 326.276 431.152 326.273 431.348V434.357C326.114 434.307 325.948 434.28 325.78 434.277H325.728C325.578 434.281 325.429 434.308 325.287 434.357C325.154 434.405 325.027 434.471 324.911 434.551C324.679 434.711 324.501 434.936 324.4 435.196C324.322 435.377 324.282 435.571 324.284 435.767V438.274C324.287 439.235 324.547 440.178 325.038 441.008C325.466 441.734 326.062 442.35 326.778 442.807V445.61ZM333.737 432.775C333.787 432.766 333.838 432.766 333.888 432.775C333.94 432.775 333.969 432.821 334.021 432.838C334.089 432.908 334.149 432.985 334.201 433.067C334.221 433.129 334.233 433.195 334.236 433.261V438.713C334.236 439.302 334.117 439.884 333.885 440.427C333.653 440.969 333.313 441.46 332.885 441.871L332.74 442.013V444.605H327.741V442.196L327.491 442.047C326.816 441.67 326.256 441.122 325.867 440.46C325.458 439.786 325.241 439.014 325.241 438.228V435.739C325.242 435.639 325.277 435.542 325.34 435.465C325.388 435.378 325.463 435.308 325.554 435.265L325.734 435.219C325.784 435.222 325.833 435.234 325.879 435.253C325.928 435.263 325.974 435.285 326.012 435.316C326.095 435.365 326.158 435.439 326.192 435.527C326.212 435.59 326.224 435.656 326.227 435.721H327.23V431.319C327.228 431.217 327.256 431.116 327.311 431.028C327.361 430.947 327.436 430.885 327.526 430.851C327.58 430.819 327.642 430.801 327.706 430.8C327.756 430.803 327.805 430.815 327.851 430.834C327.898 430.839 327.944 430.854 327.984 430.88C328.066 430.937 328.129 431.016 328.164 431.108C328.202 431.166 328.22 431.234 328.216 431.302H329.289V430.332C329.287 430.232 329.322 430.134 329.388 430.058C329.437 429.972 329.512 429.905 329.602 429.864C329.66 429.843 329.721 429.831 329.782 429.829C329.83 429.821 329.879 429.821 329.927 429.829C329.974 429.846 330.018 429.867 330.06 429.892C330.137 429.947 330.199 430.02 330.24 430.103C330.26 430.166 330.272 430.232 330.275 430.297V431.285H331.278C331.271 431.236 331.271 431.186 331.278 431.137C331.291 431.09 331.314 431.047 331.348 431.011C331.396 430.929 331.472 430.866 331.562 430.834C331.622 430.801 331.69 430.783 331.759 430.783C331.809 430.786 331.858 430.798 331.904 430.817C331.947 430.831 331.986 430.852 332.02 430.88C332.104 430.934 332.168 431.015 332.2 431.108C332.234 431.167 332.252 431.234 332.252 431.302V433.244H333.238C333.24 433.193 333.249 433.143 333.267 433.095C333.267 433.049 333.302 433.015 333.32 432.969C333.374 432.888 333.453 432.826 333.546 432.793C333.609 432.77 333.676 432.758 333.743 432.758L333.737 432.775Z"/>
</mask>
<path fill-rule="evenodd" clip-rule="evenodd" d="M326.778 445.61H333.737V442.436C334.176 441.974 334.532 441.443 334.793 440.866C335.081 440.19 335.231 439.464 335.233 438.73V433.278C335.227 432.991 335.143 432.711 334.99 432.467C334.836 432.219 334.613 432.02 334.346 431.896C334.166 431.808 333.967 431.763 333.766 431.765H333.731C333.582 431.761 333.433 431.782 333.291 431.828C333.256 431.828 333.238 431.828 333.227 431.828V431.257C333.231 430.967 333.144 430.684 332.977 430.446C332.836 430.195 332.617 429.994 332.351 429.875C332.169 429.791 331.972 429.746 331.771 429.744H331.725C331.573 429.742 331.423 429.763 331.278 429.806C331.243 429.81 331.209 429.822 331.18 429.841C331.176 429.834 331.175 429.826 331.175 429.818C331.175 429.81 331.176 429.802 331.18 429.795C331.141 429.696 331.09 429.602 331.029 429.515C330.894 429.315 330.712 429.151 330.497 429.037C330.283 428.924 330.043 428.864 329.799 428.864H329.747C329.597 428.869 329.448 428.896 329.306 428.944C329.172 428.994 329.043 429.059 328.924 429.138C328.695 429.307 328.515 429.531 328.402 429.789C328.402 429.835 328.367 429.904 328.35 429.949C328.164 429.881 327.967 429.848 327.77 429.852H327.735C327.586 429.857 327.438 429.878 327.294 429.915C327.154 429.96 327.024 430.032 326.911 430.126C326.682 430.294 326.502 430.519 326.389 430.777C326.315 430.959 326.276 431.152 326.273 431.348V434.357C326.114 434.307 325.948 434.28 325.78 434.277H325.728C325.578 434.281 325.429 434.308 325.287 434.357C325.154 434.405 325.027 434.471 324.911 434.551C324.679 434.711 324.501 434.936 324.4 435.196C324.322 435.377 324.282 435.571 324.284 435.767V438.274C324.287 439.235 324.547 440.178 325.038 441.008C325.466 441.734 326.062 442.35 326.778 442.807V445.61ZM333.737 432.775C333.787 432.766 333.838 432.766 333.888 432.775C333.94 432.775 333.969 432.821 334.021 432.838C334.089 432.908 334.149 432.985 334.201 433.067C334.221 433.129 334.233 433.195 334.236 433.261V438.713C334.236 439.302 334.117 439.884 333.885 440.427C333.653 440.969 333.313 441.46 332.885 441.871L332.74 442.013V444.605H327.741V442.196L327.491 442.047C326.816 441.67 326.256 441.122 325.867 440.46C325.458 439.786 325.241 439.014 325.241 438.228V435.739C325.242 435.639 325.277 435.542 325.34 435.465C325.388 435.378 325.463 435.308 325.554 435.265L325.734 435.219C325.784 435.222 325.833 435.234 325.879 435.253C325.928 435.263 325.974 435.285 326.012 435.316C326.095 435.365 326.158 435.439 326.192 435.527C326.212 435.59 326.224 435.656 326.227 435.721H327.23V431.319C327.228 431.217 327.256 431.116 327.311 431.028C327.361 430.947 327.436 430.885 327.526 430.851C327.58 430.819 327.642 430.801 327.706 430.8C327.756 430.803 327.805 430.815 327.851 430.834C327.898 430.839 327.944 430.854 327.984 430.88C328.066 430.937 328.129 431.016 328.164 431.108C328.202 431.166 328.22 431.234 328.216 431.302H329.289V430.332C329.287 430.232 329.322 430.134 329.388 430.058C329.437 429.972 329.512 429.905 329.602 429.864C329.66 429.843 329.721 429.831 329.782 429.829C329.83 429.821 329.879 429.821 329.927 429.829C329.974 429.846 330.018 429.867 330.06 429.892C330.137 429.947 330.199 430.02 330.24 430.103C330.26 430.166 330.272 430.232 330.275 430.297V431.285H331.278C331.271 431.236 331.271 431.186 331.278 431.137C331.291 431.09 331.314 431.047 331.348 431.011C331.396 430.929 331.472 430.866 331.562 430.834C331.622 430.801 331.69 430.783 331.759 430.783C331.809 430.786 331.858 430.798 331.904 430.817C331.947 430.831 331.986 430.852 332.02 430.88C332.104 430.934 332.168 431.015 332.2 431.108C332.234 431.167 332.252 431.234 332.252 431.302V433.244H333.238C333.24 433.193 333.249 433.143 333.267 433.095C333.267 433.049 333.302 433.015 333.32 432.969C333.374 432.888 333.453 432.826 333.546 432.793C333.609 432.77 333.676 432.758 333.743 432.758L333.737 432.775Z" fill="white" fill-opacity="0.5"/>
<path d="M326.234 435.219V434.734H325.234V435.219H326.234ZM326.778 445.61H325.778V446.61H326.778V445.61ZM333.737 445.61V446.61H334.737V445.61H333.737ZM333.737 442.436L333.012 441.747L332.737 442.036V442.436H333.737ZM334.793 440.866L335.704 441.276L335.708 441.267L335.712 441.258L334.793 440.866ZM335.233 438.73L336.233 438.733V438.73H335.233ZM335.233 433.278H336.233V433.266L336.233 433.255L335.233 433.278ZM334.99 432.467L334.139 432.992L334.142 432.998L334.99 432.467ZM334.346 431.896L333.908 432.795L333.916 432.799L333.924 432.803L334.346 431.896ZM333.766 431.765V432.765L333.773 432.765L333.766 431.765ZM333.731 431.765L333.707 432.765L333.719 432.765H333.731V431.765ZM333.291 431.828L333.291 432.828L333.446 432.828L333.593 432.781L333.291 431.828ZM333.227 431.828H332.227V432.828H333.227V431.828ZM333.227 431.257L332.227 431.24L332.227 431.248V431.257H333.227ZM332.977 430.446L332.106 430.936L332.13 430.979L332.159 431.02L332.977 430.446ZM332.351 429.875L331.932 430.783L331.941 430.787L332.351 429.875ZM331.771 429.744L331.784 428.744H331.771V429.744ZM331.725 429.744L331.714 430.744H331.725V429.744ZM331.278 429.806L331.382 430.801L331.475 430.791L331.564 430.765L331.278 429.806ZM331.18 429.841L330.265 430.246L330.736 431.307L331.715 430.685L331.18 429.841ZM331.175 429.818L330.175 429.818L331.175 429.818ZM331.18 429.795L332.094 430.2L332.262 429.82L332.111 429.432L331.18 429.795ZM331.029 429.515L330.198 430.072L330.206 430.083L330.213 430.094L331.029 429.515ZM329.799 428.864L329.799 429.864L329.8 429.864L329.799 428.864ZM329.747 428.864V427.864H329.733L329.718 427.865L329.747 428.864ZM329.306 428.944L328.982 427.998L328.971 428.002L328.96 428.006L329.306 428.944ZM328.924 429.138L328.371 428.305L328.351 428.318L328.332 428.333L328.924 429.138ZM328.402 429.789L327.486 429.388L327.402 429.58V429.789H328.402ZM328.35 429.949L328.004 430.888L328.932 431.229L329.284 430.305L328.35 429.949ZM327.77 429.852V430.852H327.78L327.791 430.852L327.77 429.852ZM327.735 429.852V428.852H327.72L327.705 428.853L327.735 429.852ZM327.294 429.915L327.043 428.947L327.016 428.954L326.989 428.963L327.294 429.915ZM326.911 430.126L327.503 430.932L327.53 430.913L327.555 430.891L326.911 430.126ZM326.389 430.777L325.473 430.376L325.468 430.387L325.464 430.399L326.389 430.777ZM326.273 431.348L325.273 431.336V431.348H326.273ZM326.273 434.357L325.975 435.311L327.273 435.717V434.357H326.273ZM325.78 434.277L325.799 433.277L325.79 433.277H325.78V434.277ZM325.728 434.277V433.277H325.714L325.699 433.277L325.728 434.277ZM325.287 434.357L324.963 433.411L324.955 433.414L324.946 433.417L325.287 434.357ZM324.911 434.551L324.344 433.727L324.342 433.729L324.911 434.551ZM324.4 435.196L325.317 435.595L325.325 435.577L325.332 435.558L324.4 435.196ZM324.284 435.767H325.284L325.284 435.757L324.284 435.767ZM324.284 438.274L323.284 438.274L323.284 438.276L324.284 438.274ZM325.038 441.008L325.899 440.5L325.899 440.499L325.038 441.008ZM326.778 442.807H327.778V442.259L327.316 441.964L326.778 442.807ZM333.737 432.775L332.79 432.455L332.237 434.091L333.931 433.756L333.737 432.775ZM333.888 432.775L333.694 433.756L333.79 433.775H333.888V432.775ZM334.021 432.838L334.74 432.143L334.568 431.965L334.333 431.888L334.021 432.838ZM334.201 433.067L335.152 432.757L335.113 432.637L335.046 432.531L334.201 433.067ZM334.236 433.261H335.236V433.241L335.235 433.221L334.236 433.261ZM334.236 438.713L333.236 438.713L333.236 438.714L334.236 438.713ZM332.885 441.871L332.192 441.149L332.183 441.158L332.885 441.871ZM332.74 442.013L332.038 441.301L331.74 441.594V442.013H332.74ZM332.74 444.605V445.605H333.74V444.605H332.74ZM327.741 444.605H326.741V445.605H327.741V444.605ZM327.741 442.196H328.741V441.627L328.252 441.337L327.741 442.196ZM327.491 442.047L328.003 441.188L327.991 441.181L327.98 441.175L327.491 442.047ZM325.867 440.46L326.73 439.954L326.726 439.947L326.722 439.941L325.867 440.46ZM325.241 438.228L324.241 438.228L324.241 438.228L325.241 438.228ZM325.241 435.739L324.241 435.731V435.739H325.241ZM325.34 435.465L326.117 436.094L326.17 436.028L326.212 435.954L325.34 435.465ZM325.554 435.265L325.308 434.295L325.213 434.32L325.125 434.361L325.554 435.265ZM325.734 435.219L325.799 434.221L325.641 434.211L325.488 434.25L325.734 435.219ZM325.879 435.253L325.49 436.174L325.58 436.212L325.676 436.232L325.879 435.253ZM326.012 435.316L325.386 436.096L325.442 436.14L325.503 436.177L326.012 435.316ZM326.192 435.527L327.145 435.225L327.136 435.195L327.124 435.165L326.192 435.527ZM326.227 435.721L325.228 435.769L325.273 436.721H326.227V435.721ZM327.23 435.721V436.721H328.23V435.721H327.23ZM327.23 431.319H328.23V431.309L328.23 431.299L327.23 431.319ZM327.311 431.028L328.157 431.562L328.161 431.556L328.165 431.549L327.311 431.028ZM327.526 430.851L327.878 431.787L327.964 431.755L328.043 431.707L327.526 430.851ZM327.706 430.8L327.77 429.802L327.731 429.799L327.691 429.8L327.706 430.8ZM327.851 430.834L327.461 431.755L327.602 431.815L327.754 431.829L327.851 430.834ZM327.984 430.88L328.553 430.058L328.536 430.046L328.519 430.035L327.984 430.88ZM328.164 431.108L327.23 431.466L327.268 431.566L327.327 431.656L328.164 431.108ZM328.216 431.302L327.218 431.247L327.159 432.302H328.216V431.302ZM329.289 431.302V432.302H330.289V431.302H329.289ZM329.289 430.332H330.289V430.321L330.289 430.31L329.289 430.332ZM329.388 430.058L330.146 430.709L330.207 430.638L330.254 430.557L329.388 430.058ZM329.602 429.864L329.264 428.922L329.226 428.936L329.189 428.953L329.602 429.864ZM329.782 429.829L329.814 430.829L329.884 430.827L329.953 430.815L329.782 429.829ZM329.927 429.829L330.255 428.885L330.178 428.858L330.098 428.844L329.927 429.829ZM330.06 429.892L330.643 429.08L330.612 429.057L330.579 429.037L330.06 429.892ZM330.24 430.103L331.193 429.801L331.17 429.728L331.136 429.66L330.24 430.103ZM330.275 430.297H331.275V430.274L331.274 430.25L330.275 430.297ZM330.275 431.285H329.275V432.285H330.275V431.285ZM331.278 431.285V432.285H332.43L332.268 431.145L331.278 431.285ZM331.278 431.137L330.312 430.88L330.296 430.937L330.288 430.996L331.278 431.137ZM331.348 431.011L332.079 431.693L332.155 431.612L332.211 431.515L331.348 431.011ZM331.562 430.834L331.896 431.777L331.976 431.748L332.05 431.707L331.562 430.834ZM331.759 430.783L331.824 429.785L331.791 429.783L331.758 429.783L331.759 430.783ZM331.904 430.817L331.515 431.738L331.55 431.753L331.586 431.765L331.904 430.817ZM332.02 430.88L331.4 431.664L331.438 431.694L331.477 431.72L332.02 430.88ZM332.2 431.108L331.255 431.436L331.287 431.526L331.334 431.608L332.2 431.108ZM332.252 431.302H333.252L333.252 431.301L332.252 431.302ZM332.252 433.244H331.252V434.244H332.252V433.244ZM333.238 433.244V434.244H334.214L334.238 433.268L333.238 433.244ZM333.267 433.095L334.203 433.449L334.267 433.278L334.267 433.095L333.267 433.095ZM333.32 432.969L332.486 432.417L332.425 432.51L332.385 432.614L333.32 432.969ZM333.546 432.793L333.209 431.851L333.207 431.852L333.546 432.793ZM333.743 432.758L334.69 433.078L335.137 431.757L333.742 431.758L333.743 432.758ZM326.778 446.61H333.737V444.61H326.778V446.61ZM334.737 445.61V442.436H332.737V445.61H334.737ZM334.462 443.124C334.978 442.582 335.398 441.957 335.704 441.276L333.881 440.455C333.667 440.93 333.373 441.367 333.012 441.747L334.462 443.124ZM335.712 441.258C336.053 440.459 336.231 439.601 336.233 438.733L334.233 438.727C334.232 439.326 334.109 439.92 333.873 440.473L335.712 441.258ZM336.233 438.73V433.278H334.233V438.73H336.233ZM336.233 433.255C336.222 432.787 336.085 432.332 335.837 431.936L334.142 432.998C334.2 433.09 334.231 433.195 334.234 433.301L336.233 433.255ZM335.841 431.942C335.584 431.526 335.21 431.196 334.768 430.99L333.924 432.803C334.015 432.845 334.089 432.912 334.139 432.992L335.841 431.942ZM334.784 430.997C334.465 430.842 334.114 430.762 333.759 430.765L333.773 432.765C333.821 432.764 333.867 432.775 333.908 432.795L334.784 430.997ZM333.766 430.765H333.731V432.765H333.766V430.765ZM333.756 430.765C333.495 430.759 333.236 430.796 332.988 430.875L333.593 432.781C333.63 432.769 333.668 432.764 333.707 432.765L333.756 430.765ZM333.291 430.828C333.255 430.828 333.239 430.828 333.227 430.828V432.828C333.239 432.828 333.255 432.828 333.291 432.828L333.291 430.828ZM334.227 431.828V431.257H332.227V431.828H334.227ZM334.227 431.273C334.235 430.772 334.084 430.282 333.796 429.872L332.159 431.02C332.205 431.086 332.228 431.163 332.227 431.24L334.227 431.273ZM333.849 429.956C333.602 429.516 333.22 429.169 332.761 428.963L331.941 430.787C332.013 430.82 332.07 430.873 332.106 430.936L333.849 429.956ZM332.77 428.967C332.461 428.824 332.125 428.748 331.784 428.744L331.758 430.744C331.819 430.744 331.878 430.758 331.932 430.783L332.77 428.967ZM331.771 428.744H331.725V430.744H331.771V428.744ZM331.735 428.744C331.484 428.741 331.233 428.776 330.992 428.848L331.564 430.765C331.613 430.75 331.663 430.743 331.714 430.744L331.735 428.744ZM331.174 428.812C330.986 428.832 330.804 428.894 330.644 428.996L331.715 430.685C331.614 430.749 331.5 430.789 331.382 430.801L331.174 428.812ZM332.094 429.435C332.147 429.555 332.175 429.685 332.175 429.818L330.175 429.818C330.175 429.966 330.206 430.112 330.265 430.246L332.094 429.435ZM332.175 429.818C332.175 429.951 332.147 430.081 332.094 430.2L330.265 429.39C330.206 429.524 330.175 429.67 330.175 429.818L332.175 429.818ZM332.111 429.432C332.043 429.257 331.953 429.09 331.844 428.937L330.213 430.094C330.228 430.114 330.239 430.136 330.248 430.158L332.111 429.432ZM331.859 428.958C331.632 428.62 331.325 428.344 330.965 428.154L330.029 429.921C330.099 429.958 330.157 430.011 330.198 430.072L331.859 428.958ZM330.965 428.154C330.606 427.963 330.205 427.864 329.799 427.864L329.8 429.864C329.881 429.864 329.96 429.884 330.029 429.921L330.965 428.154ZM329.799 427.864H329.747V429.864H329.799V427.864ZM329.718 427.865C329.468 427.872 329.219 427.917 328.982 427.998L329.63 429.89C329.677 429.874 329.726 429.865 329.776 429.864L329.718 427.865ZM328.96 428.006C328.753 428.083 328.555 428.183 328.371 428.305L329.477 429.972C329.531 429.936 329.59 429.906 329.652 429.883L328.96 428.006ZM328.332 428.333C327.962 428.604 327.67 428.968 327.486 429.388L329.318 430.19C329.36 430.094 329.427 430.009 329.516 429.944L328.332 428.333ZM327.402 429.789C327.402 429.733 327.407 429.687 327.412 429.654C327.417 429.62 327.423 429.594 327.428 429.575C327.437 429.54 327.446 429.517 327.448 429.513C327.449 429.509 327.449 429.509 327.443 429.523C327.44 429.531 327.427 429.562 327.415 429.593L329.284 430.305C329.281 430.314 329.278 430.319 329.287 430.299C329.292 430.287 329.304 430.258 329.317 430.225C329.329 430.193 329.347 430.142 329.364 430.079C329.379 430.022 329.402 429.918 329.402 429.789H327.402ZM328.695 429.011C328.392 428.899 328.071 428.846 327.749 428.852L327.791 430.852C327.864 430.85 327.936 430.863 328.004 430.888L328.695 429.011ZM327.77 428.852H327.735V430.852H327.77V428.852ZM327.705 428.853C327.482 428.859 327.26 428.891 327.043 428.947L327.545 430.883C327.616 430.864 327.69 430.854 327.765 430.852L327.705 428.853ZM326.989 428.963C326.725 429.047 326.48 429.182 326.267 429.361L327.555 430.891C327.567 430.881 327.582 430.873 327.599 430.867L326.989 428.963ZM326.319 429.32C325.95 429.592 325.657 429.955 325.473 430.376L327.305 431.178C327.347 431.082 327.415 430.997 327.503 430.932L326.319 429.32ZM325.464 430.399C325.342 430.696 325.277 431.014 325.273 431.336L327.273 431.36C327.274 431.291 327.288 431.221 327.315 431.155L325.464 430.399ZM325.273 431.348V434.357H327.273V431.348H325.273ZM326.572 433.402C326.321 433.324 326.061 433.282 325.799 433.277L325.762 435.277C325.834 435.278 325.906 435.29 325.975 435.311L326.572 433.402ZM325.78 433.277H325.728V435.277H325.78V433.277ZM325.699 433.277C325.449 433.285 325.201 433.33 324.963 433.411L325.612 435.303C325.658 435.287 325.707 435.278 325.757 435.277L325.699 433.277ZM324.946 433.417C324.733 433.495 324.53 433.599 324.344 433.727L325.477 435.375C325.524 435.343 325.575 435.316 325.629 435.297L324.946 433.417ZM324.342 433.729C323.947 434.002 323.642 434.386 323.468 434.834L325.332 435.558C325.36 435.486 325.411 435.421 325.479 435.373L324.342 433.729ZM323.483 434.797C323.349 435.106 323.281 435.44 323.284 435.777L325.284 435.757C325.284 435.702 325.295 435.647 325.317 435.595L323.483 434.797ZM323.284 435.767V438.274H325.284V435.767H323.284ZM323.284 438.276C323.287 439.416 323.596 440.534 324.177 441.517L325.899 440.499C325.498 439.822 325.286 439.053 325.284 438.271L323.284 438.276ZM324.177 441.517C324.686 442.379 325.393 443.109 326.24 443.65L327.316 441.964C326.732 441.591 326.247 441.09 325.899 440.5L324.177 441.517ZM325.778 442.807V445.61H327.778V442.807H325.778ZM333.931 433.756C333.853 433.772 333.772 433.772 333.694 433.756L334.082 431.794C333.904 431.759 333.721 431.759 333.543 431.794L333.931 433.756ZM333.888 433.775C333.747 433.775 333.628 433.743 333.537 433.705C333.457 433.672 333.403 433.635 333.399 433.632C333.397 433.63 333.396 433.63 333.397 433.631C333.398 433.631 333.403 433.635 333.407 433.638C333.417 433.644 333.437 433.658 333.462 433.673C333.512 433.704 333.597 433.751 333.709 433.788L334.333 431.888C334.419 431.916 334.481 431.952 334.51 431.969C334.517 431.974 334.523 431.978 334.527 431.98C334.528 431.981 334.53 431.982 334.531 431.983C334.532 431.984 334.532 431.984 334.532 431.984C334.539 431.988 334.519 431.975 334.51 431.969C334.463 431.937 334.23 431.775 333.888 431.775V433.775ZM333.302 433.533C333.323 433.555 333.341 433.578 333.356 433.602L335.046 432.531C334.957 432.392 334.855 432.262 334.74 432.143L333.302 433.533ZM333.25 433.376C333.242 433.352 333.238 433.326 333.237 433.301L335.235 433.221C335.229 433.063 335.201 432.907 335.152 432.757L333.25 433.376ZM333.236 433.261V438.713H335.236V433.261H333.236ZM333.236 438.714C333.236 439.167 333.145 439.615 332.966 440.033L334.804 440.82C335.09 440.153 335.236 439.437 335.236 438.712L333.236 438.714ZM332.966 440.033C332.787 440.451 332.524 440.831 332.192 441.149L333.577 442.592C334.101 442.089 334.519 441.487 334.804 440.82L332.966 440.033ZM332.183 441.158L332.038 441.301L333.441 442.726L333.586 442.583L332.183 441.158ZM331.74 442.013V444.605H333.74V442.013H331.74ZM332.74 443.605H327.741V445.605H332.74V443.605ZM328.741 444.605V442.196H326.741V444.605H328.741ZM328.252 441.337L328.003 441.188L326.98 442.907L327.229 443.055L328.252 441.337ZM327.98 441.175C327.459 440.883 327.028 440.461 326.73 439.954L325.005 440.967C325.484 441.783 326.174 442.456 327.003 442.92L327.98 441.175ZM326.722 439.941C326.407 439.422 326.241 438.83 326.241 438.228L324.241 438.228C324.241 439.198 324.508 440.149 325.013 440.979L326.722 439.941ZM326.241 438.228V435.739H324.241V438.228H326.241ZM326.241 435.747C326.24 435.875 326.195 435.997 326.117 436.094L324.562 434.835C324.358 435.088 324.244 435.403 324.241 435.731L326.241 435.747ZM326.212 435.954C326.158 436.049 326.078 436.123 325.983 436.168L325.125 434.361C324.849 434.492 324.619 434.706 324.468 434.975L326.212 435.954ZM325.801 436.234L325.98 436.188L325.488 434.25L325.308 434.295L325.801 436.234ZM325.669 436.217C325.608 436.213 325.547 436.199 325.49 436.174L326.268 434.332C326.119 434.269 325.96 434.232 325.799 434.221L325.669 436.217ZM325.676 436.232C325.571 436.211 325.471 436.164 325.386 436.096L326.639 434.536C326.476 434.406 326.285 434.316 326.082 434.274L325.676 436.232ZM325.503 436.177C325.395 436.112 325.308 436.012 325.26 435.889L327.124 435.165C327.008 434.866 326.795 434.617 326.522 434.455L325.503 436.177ZM325.239 435.83C325.233 435.81 325.229 435.79 325.228 435.769L327.226 435.674C327.219 435.522 327.192 435.37 327.145 435.225L325.239 435.83ZM326.227 436.721H327.23V434.721H326.227V436.721ZM328.23 435.721V431.319H326.23V435.721H328.23ZM328.23 431.299C328.232 431.393 328.206 431.484 328.157 431.562L326.466 430.494C326.307 430.747 326.224 431.041 326.23 431.34L328.23 431.299ZM328.165 431.549C328.097 431.661 327.995 431.743 327.878 431.787L327.174 429.915C326.878 430.027 326.625 430.234 326.458 430.507L328.165 431.549ZM328.043 431.707C327.945 431.767 327.833 431.798 327.72 431.8L327.691 429.8C327.451 429.804 327.216 429.871 327.009 429.995L328.043 431.707ZM327.641 431.798C327.58 431.794 327.519 431.78 327.461 431.755L328.24 429.913C328.091 429.85 327.932 429.812 327.77 429.802L327.641 431.798ZM327.754 431.829C327.646 431.819 327.542 431.784 327.45 431.725L328.519 430.035C328.346 429.925 328.15 429.859 327.947 429.839L327.754 431.829ZM327.415 431.702C327.333 431.645 327.267 431.564 327.23 431.466L329.098 430.75C328.99 430.469 328.799 430.228 328.553 430.058L327.415 431.702ZM327.327 431.656C327.249 431.536 327.21 431.392 327.218 431.247L329.215 431.358C329.23 431.075 329.155 430.796 329.001 430.561L327.327 431.656ZM328.216 432.302H329.289V430.302H328.216V432.302ZM330.289 431.302V430.332H328.289V431.302H330.289ZM330.289 430.31C330.292 430.458 330.24 430.6 330.146 430.709L328.629 429.406C328.404 429.668 328.282 430.005 328.289 430.353L330.289 430.31ZM330.254 430.557C330.198 430.655 330.113 430.73 330.015 430.774L329.189 428.953C328.91 429.079 328.676 429.29 328.521 429.558L330.254 430.557ZM329.94 430.805C329.899 430.819 329.857 430.827 329.814 430.829L329.75 428.83C329.584 428.835 329.42 428.866 329.264 428.922L329.94 430.805ZM329.953 430.815C329.888 430.826 329.821 430.826 329.756 430.815L330.098 428.844C329.937 428.816 329.772 428.816 329.611 428.844L329.953 430.815ZM329.598 430.774C329.579 430.767 329.559 430.758 329.541 430.747L330.579 429.037C330.477 428.975 330.369 428.924 330.255 428.885L329.598 430.774ZM329.477 430.705C329.422 430.665 329.376 430.611 329.344 430.547L331.136 429.66C331.021 429.428 330.852 429.229 330.643 429.08L329.477 430.705ZM329.287 430.406C329.281 430.386 329.277 430.366 329.276 430.345L331.274 430.25C331.267 430.098 331.239 429.946 331.193 429.801L329.287 430.406ZM329.275 430.297V431.285H331.275V430.297H329.275ZM330.275 432.285H331.278V430.285H330.275V432.285ZM332.268 431.145C332.274 431.189 332.274 431.233 332.268 431.277L330.288 430.996C330.268 431.139 330.268 431.283 330.288 431.426L332.268 431.145ZM332.245 431.394C332.215 431.507 332.157 431.609 332.079 431.693L330.616 430.329C330.472 430.484 330.367 430.673 330.312 430.88L332.245 431.394ZM332.211 431.515C332.139 431.639 332.026 431.731 331.896 431.777L331.228 429.892C330.917 430.002 330.652 430.218 330.484 430.507L332.211 431.515ZM332.05 431.707C331.961 431.757 331.861 431.783 331.761 431.783L331.758 429.783C331.52 429.783 331.284 429.844 331.074 429.961L332.05 431.707ZM331.695 431.781C331.633 431.777 331.573 431.762 331.515 431.738L332.294 429.896C332.144 429.833 331.985 429.795 331.824 429.785L331.695 431.781ZM331.586 431.765C331.519 431.742 331.456 431.709 331.4 431.664L332.641 430.095C332.515 429.996 332.374 429.92 332.223 429.869L331.586 431.765ZM331.477 431.72C331.376 431.654 331.297 431.555 331.255 431.436L333.145 430.781C333.039 430.474 332.833 430.214 332.563 430.04L331.477 431.72ZM331.334 431.608C331.281 431.516 331.253 431.411 331.252 431.303L333.252 431.301C333.252 431.057 333.188 430.819 333.066 430.609L331.334 431.608ZM331.252 431.302V433.244H333.252V431.302H331.252ZM332.252 434.244H333.238V432.244H332.252V434.244ZM334.238 433.268C334.237 433.33 334.225 433.391 334.203 433.449L332.332 432.742C332.274 432.894 332.243 433.056 332.239 433.219L334.238 433.268ZM334.267 433.095C334.267 433.332 334.173 433.495 334.165 433.51C334.162 433.516 334.16 433.52 334.163 433.515C334.165 433.512 334.172 433.499 334.18 433.485C334.195 433.457 334.226 433.4 334.254 433.325L332.385 432.614C332.405 432.562 332.424 432.527 332.428 432.519C332.43 432.515 332.432 432.513 332.428 432.52C332.425 432.524 332.417 432.538 332.409 432.554C332.379 432.609 332.267 432.813 332.267 433.095L334.267 433.095ZM334.153 433.522C334.087 433.622 333.992 433.695 333.885 433.733L333.207 431.852C332.914 431.957 332.66 432.154 332.486 432.417L334.153 433.522ZM333.882 433.734C333.838 433.75 333.791 433.758 333.744 433.758L333.742 431.758C333.56 431.758 333.38 431.79 333.209 431.851L333.882 433.734ZM332.795 432.438L332.79 432.455L334.684 433.095L334.69 433.078L332.795 432.438Z" fill="white" fill-opacity="0.5" mask="url(#path-53-inside-1_3848_2)"/>
<line x1="324" y1="417.5" x2="413" y2="417.5" stroke="white" stroke-opacity="0.5"/>
<line x1="470" y1="417.5" x2="562" y2="417.5" stroke="white" stroke-opacity="0.5"/>
<line x1="443.5" y1="387" x2="443.5" y2="463" stroke="white" stroke-opacity="0.5"/>
<path d="M400 245H530V309H400V245Z" fill="#D9D9D9" fill-opacity="0.1"/>
<line x1="369" y1="276.5" x2="400" y2="276.5" stroke="#9E0900" stroke-opacity="0.3"/>
<line x1="369.5" y1="277" x2="369.5" y2="379" stroke="#9E0900" stroke-opacity="0.3"/>
</svg>
