<svg width="596" height="490" viewBox="0 0 596 490" fill="none" xmlns="http://www.w3.org/2000/svg">
<g clip-path="url(#clip0_3842_144)">
<rect width="596" height="490" fill="black"/>
<path d="M339.375 385.74C341.921 385.741 344.411 384.988 346.528 383.575C348.646 382.161 350.297 380.151 351.272 377.799C352.248 375.447 352.503 372.859 352.007 370.361C351.511 367.864 350.285 365.57 348.484 363.77C346.684 361.969 344.39 360.743 341.892 360.247C339.395 359.751 336.807 360.006 334.455 360.981C332.103 361.957 330.093 363.608 328.679 365.725C327.266 367.843 326.512 370.333 326.514 372.879C326.519 376.288 327.875 379.557 330.286 381.968C332.697 384.378 335.965 385.735 339.375 385.74Z" stroke="white" stroke-opacity="0.5" stroke-width="2" stroke-miterlimit="10"/>
<path d="M339.377 360.018V363.748" stroke="white" stroke-opacity="0.5" stroke-width="2" stroke-miterlimit="10"/>
<path d="M352.236 372.879H348.506" stroke="white" stroke-opacity="0.5" stroke-width="2" stroke-miterlimit="10"/>
<path d="M339.377 385.74V382.009" stroke="white" stroke-opacity="0.5" stroke-width="2" stroke-miterlimit="10"/>
<path d="M326.507 372.879H330.237" stroke="white" stroke-opacity="0.5" stroke-width="2" stroke-miterlimit="10"/>
<path d="M339.295 369.557V372.879L343.515 377.099" stroke="white" stroke-opacity="0.5" stroke-width="2" stroke-miterlimit="10"/>
<path d="M338.861 459.991C341.407 459.993 343.896 459.239 346.013 457.826C348.131 456.413 349.782 454.404 350.757 452.052C351.733 449.701 351.989 447.113 351.493 444.616C350.998 442.119 349.773 439.825 347.973 438.024C346.174 436.223 343.881 434.997 341.384 434.499C338.887 434.002 336.299 434.256 333.947 435.23C331.595 436.204 329.584 437.853 328.17 439.97C326.755 442.087 326 444.575 326 447.121C326.005 450.531 327.361 453.801 329.772 456.213C332.182 458.625 335.451 459.984 338.861 459.991Z" stroke="white" stroke-opacity="0.5" stroke-width="2" stroke-miterlimit="10"/>
<path d="M338.859 455.153V439.098" stroke="white" stroke-opacity="0.5" stroke-width="2" stroke-miterlimit="10"/>
<path d="M566.115 447.121C566.117 449.667 565.364 452.157 563.95 454.275C562.537 456.392 560.527 458.043 558.175 459.019C555.823 459.994 553.234 460.249 550.737 459.753C548.24 459.257 545.946 458.031 544.145 456.23C542.345 454.43 541.119 452.136 540.622 449.639C540.126 447.141 540.382 444.553 541.357 442.201C542.332 439.849 543.983 437.839 546.101 436.425C548.219 435.012 550.708 434.259 553.255 434.26C556.665 434.263 559.934 435.618 562.346 438.03C564.757 440.441 566.113 443.711 566.115 447.121Z" stroke="white" stroke-opacity="0.5" stroke-width="2" stroke-miterlimit="10"/>
<path d="M545.222 447.13H561.278" stroke="white" stroke-opacity="0.5" stroke-width="2" stroke-miterlimit="10"/>
<path d="M566.115 373.16C566.115 375.706 565.36 378.195 563.946 380.311C562.531 382.428 560.521 384.078 558.168 385.051C555.816 386.025 553.228 386.28 550.731 385.782C548.235 385.285 545.941 384.058 544.142 382.257C542.342 380.457 541.117 378.163 540.622 375.666C540.126 373.168 540.382 370.58 541.358 368.229C542.333 365.877 543.984 363.868 546.102 362.455C548.22 361.042 550.709 360.289 553.255 360.291C556.666 360.293 559.937 361.65 562.349 364.063C564.761 366.476 566.115 369.749 566.115 373.16Z" stroke="#9E0900" stroke-width="2" stroke-miterlimit="10"/>
<path d="M545.222 373.16H561.278" stroke="#9E0900" stroke-width="2" stroke-miterlimit="10"/>
<path d="M553.245 365.137V381.193" stroke="#9E0900" stroke-width="2" stroke-miterlimit="10"/>
<path d="M388.26 447.13H413.981" stroke="white" stroke-opacity="0.5" stroke-width="2" stroke-miterlimit="10"/>
<path d="M401.122 434.269V459.991" stroke="white" stroke-opacity="0.5" stroke-width="2" stroke-miterlimit="10"/>
<path fill-rule="evenodd" clip-rule="evenodd" d="M393.634 457.413C394.187 457.412 394.726 457.246 395.184 456.939C395.642 456.631 395.999 456.194 396.21 455.684C396.42 455.173 396.475 454.612 396.367 454.07C396.258 453.529 395.992 453.032 395.602 452.641C395.212 452.251 394.714 451.985 394.173 451.877C393.632 451.769 393.07 451.823 392.56 452.034C392.049 452.244 391.613 452.601 391.305 453.059C390.997 453.518 390.832 454.057 390.83 454.609C390.83 455.353 391.125 456.066 391.651 456.592C392.177 457.118 392.891 457.413 393.634 457.413Z" fill="white" fill-opacity="0.5"/>
<path d="M394.626 456.108C394.333 456.306 393.987 456.412 393.633 456.413C393.155 456.413 392.697 456.223 392.358 455.885C392.02 455.547 391.83 455.089 391.83 454.611C391.831 454.256 391.938 453.911 392.135 453.617C392.333 453.323 392.613 453.093 392.941 452.958C393.269 452.823 393.629 452.788 393.977 452.857C394.325 452.927 394.644 453.098 394.895 453.348C395.146 453.599 395.317 453.919 395.386 454.266C395.455 454.614 395.42 454.975 395.285 455.302C395.15 455.63 394.921 455.911 394.626 456.108Z" stroke="white" stroke-opacity="0.5" stroke-width="2"/>
<path d="M388.26 372.879H413.981" stroke="white" stroke-opacity="0.5" stroke-width="2" stroke-miterlimit="10"/>
<path d="M401.122 385.74V360.018" stroke="white" stroke-opacity="0.5" stroke-width="2" stroke-miterlimit="10"/>
<path fill-rule="evenodd" clip-rule="evenodd" d="M393.635 368.169C394.188 368.167 394.728 368.001 395.187 367.692C395.646 367.383 396.003 366.944 396.212 366.432C396.422 365.92 396.475 365.358 396.365 364.815C396.254 364.273 395.986 363.776 395.592 363.387C395.199 362.998 394.699 362.734 394.156 362.629C393.613 362.523 393.051 362.582 392.541 362.797C392.031 363.011 391.596 363.372 391.292 363.834C390.987 364.296 390.826 364.838 390.83 365.391C390.837 366.13 391.136 366.837 391.661 367.357C392.186 367.877 392.895 368.169 393.635 368.169Z" fill="white" fill-opacity="0.5"/>
<path d="M394.628 366.862C394.334 367.06 393.988 367.167 393.633 367.169C393.158 367.168 392.702 366.98 392.365 366.646C392.027 366.312 391.835 365.858 391.83 365.383C391.828 365.028 391.931 364.681 392.127 364.385C392.322 364.088 392.601 363.856 392.929 363.718C393.256 363.58 393.617 363.543 393.966 363.61C394.315 363.678 394.636 363.847 394.889 364.097C395.141 364.347 395.314 364.667 395.385 365.015C395.456 365.363 395.422 365.725 395.287 366.053C395.152 366.382 394.923 366.664 394.628 366.862Z" stroke="white" stroke-opacity="0.5" stroke-width="2"/>
<path d="M504.362 447.13H478.641" stroke="white" stroke-opacity="0.5" stroke-width="2" stroke-miterlimit="10"/>
<path d="M491.5 434.269V459.991" stroke="white" stroke-opacity="0.5" stroke-width="2" stroke-miterlimit="10"/>
<path fill-rule="evenodd" clip-rule="evenodd" d="M499.016 457.413C499.568 457.412 500.107 457.246 500.566 456.939C501.024 456.631 501.381 456.194 501.591 455.684C501.802 455.173 501.856 454.612 501.748 454.07C501.64 453.529 501.374 453.032 500.983 452.641C500.593 452.251 500.096 451.985 499.554 451.877C499.013 451.769 498.452 451.823 497.941 452.034C497.431 452.244 496.994 452.601 496.686 453.059C496.378 453.518 496.213 454.057 496.211 454.609C496.211 455.353 496.507 456.066 497.033 456.592C497.559 457.118 498.272 457.413 499.016 457.413Z" fill="white" fill-opacity="0.5"/>
<path d="M500.008 456.108C499.714 456.306 499.368 456.412 499.014 456.413C498.536 456.413 498.078 456.223 497.74 455.885C497.402 455.547 497.212 455.089 497.211 454.611C497.213 454.256 497.319 453.911 497.516 453.617C497.714 453.323 497.995 453.093 498.322 452.958C498.65 452.823 499.011 452.788 499.359 452.857C499.706 452.927 500.026 453.098 500.276 453.348C500.527 453.599 500.698 453.919 500.767 454.266C500.837 454.614 500.802 454.975 500.667 455.302C500.532 455.63 500.302 455.911 500.008 456.108Z" stroke="white" stroke-opacity="0.5" stroke-width="2"/>
<path d="M504.362 372.879H478.641" stroke="white" stroke-opacity="0.5" stroke-width="2" stroke-miterlimit="10"/>
<path d="M491.5 385.74V360.018" stroke="white" stroke-opacity="0.5" stroke-width="2" stroke-miterlimit="10"/>
<path fill-rule="evenodd" clip-rule="evenodd" d="M499.016 368.169C499.569 368.167 500.11 368.001 500.568 367.692C501.027 367.383 501.384 366.944 501.594 366.432C501.803 365.92 501.856 365.358 501.746 364.815C501.636 364.273 501.367 363.776 500.974 363.387C500.581 362.998 500.081 362.734 499.538 362.629C498.995 362.523 498.432 362.582 497.922 362.797C497.412 363.011 496.978 363.372 496.673 363.834C496.369 364.296 496.208 364.838 496.211 365.391C496.219 366.13 496.517 366.837 497.042 367.357C497.568 367.877 498.277 368.169 499.016 368.169Z" fill="white" fill-opacity="0.5"/>
<path d="M500.01 366.862C499.716 367.06 499.369 367.167 499.014 367.169C498.539 367.168 498.084 366.98 497.746 366.646C497.409 366.312 497.216 365.858 497.211 365.383C497.209 365.028 497.313 364.681 497.508 364.385C497.704 364.088 497.983 363.856 498.31 363.718C498.638 363.58 498.999 363.543 499.348 363.61C499.697 363.678 500.018 363.847 500.27 364.097C500.523 364.347 500.695 364.667 500.766 365.015C500.837 365.363 500.803 365.725 500.668 366.053C500.534 366.382 500.305 366.664 500.01 366.862Z" stroke="white" stroke-opacity="0.5" stroke-width="2"/>
<path d="M433.459 410H459.19" stroke="white" stroke-opacity="0.5" stroke-width="2" stroke-miterlimit="10"/>
<path d="M446.318 397.139V422.87" stroke="white" stroke-opacity="0.5" stroke-width="2" stroke-miterlimit="10"/>
<path d="M375.417 388.653H364.743V398.119H375.417V388.653Z" stroke="white" stroke-opacity="0.5" stroke-width="2" stroke-miterlimit="10"/>
<path d="M366.75 386.92C366.75 386.036 367.101 385.189 367.726 384.564C368.35 383.94 369.198 383.589 370.081 383.589C370.964 383.589 371.812 383.94 372.436 384.564C373.061 385.189 373.412 386.036 373.412 386.92" stroke="white" stroke-opacity="0.5" stroke-width="2" stroke-miterlimit="10"/>
<path d="M366.75 386.929V388.653" stroke="white" stroke-opacity="0.5" stroke-width="2" stroke-miterlimit="10"/>
<path d="M373.412 386.929V388.653" stroke="white" stroke-opacity="0.5" stroke-width="2" stroke-miterlimit="10"/>
<path fill-rule="evenodd" clip-rule="evenodd" d="M370.073 392.374C370.127 392.374 370.181 392.385 370.231 392.406C370.281 392.427 370.327 392.458 370.365 392.497C370.403 392.536 370.433 392.582 370.453 392.633C370.473 392.683 370.482 392.738 370.481 392.792C370.481 392.866 370.46 392.939 370.42 393.002C370.379 393.065 370.322 393.115 370.254 393.146L370.454 394.38H369.71L369.919 393.146C369.846 393.12 369.784 393.072 369.741 393.008C369.699 392.944 369.678 392.869 369.683 392.792C369.68 392.685 369.72 392.582 369.793 392.504C369.866 392.426 369.966 392.379 370.073 392.374Z" fill="white" fill-opacity="0.5" stroke="white" stroke-opacity="0.5" stroke-width="2" stroke-miterlimit="10"/>
<path d="M359.316 395.025H341.164C340.588 395.02 340.037 394.787 339.633 394.377C339.228 393.967 339.002 393.413 339.004 392.837V390.033" stroke="white" stroke-opacity="0.5" stroke-width="2" stroke-miterlimit="10"/>
<path d="M380.853 395.025H398.933C399.22 395.026 399.505 394.97 399.771 394.861C400.037 394.751 400.279 394.59 400.482 394.387C400.686 394.183 400.847 393.942 400.956 393.676C401.066 393.41 401.121 393.125 401.12 392.837V390.033" stroke="white" stroke-opacity="0.5" stroke-width="2" stroke-miterlimit="10"/>
<path d="M190 40C272.839 40 340 107.16 340 190M190 340C107.161 340 40 272.84 40 190" stroke="white" stroke-opacity="0.25" stroke-width="2" stroke-miterlimit="10"/>
<path d="M200.347 179.656L179.656 200.35" stroke="white" stroke-opacity="0.25" stroke-width="2" stroke-miterlimit="10"/>
<rect x="376" y="271" width="142" height="48" rx="6" fill="black"/>
<path d="M409.464 296.082C409.464 300.967 411.883 303.449 416.669 303.449C421.44 303.449 423.851 300.967 423.851 296.082C423.851 291.177 421.44 288.696 416.669 288.696C411.883 288.696 409.464 291.177 409.464 296.082ZM412.968 296.082C412.968 292.863 414.002 291.559 416.639 291.559C419.332 291.559 420.343 292.818 420.343 296.082C420.343 299.304 419.306 300.608 416.639 300.608C413.965 300.608 412.968 299.356 412.968 296.082Z" fill="white"/>
<path d="M452.954 296.082C452.954 300.967 455.388 303.449 460.166 303.449C464.929 303.449 467.344 300.967 467.344 296.082C467.344 291.177 464.929 288.696 460.166 288.696C455.384 288.696 452.954 291.177 452.954 296.082ZM456.469 296.082C456.469 292.863 457.495 291.559 460.133 291.559C462.829 291.559 463.829 292.818 463.829 296.082C463.829 299.304 462.792 300.608 460.133 300.608C457.462 300.608 456.469 299.356 456.469 296.082Z" fill="white"/>
<path d="M493.107 285.647V299.026C493.107 301.752 494.744 303.197 497.848 303.197H500.874C501.652 303.197 502 302.504 502 301.838C502 301.167 501.652 300.475 500.874 300.475H499.118C497.515 300.475 496.677 300.375 496.677 298.474V292.003H500.63C501.408 292.003 501.756 291.307 501.756 290.633C501.756 289.97 501.408 289.273 500.63 289.273L496.677 289.281V285.647C496.677 284.725 496.022 284.169 494.951 284.169C494.088 284.169 493.107 284.558 493.107 285.647Z" fill="white"/>
<path d="M426.515 285.647V299.026C426.515 301.752 428.156 303.197 431.274 303.197H434.301C435.071 303.197 435.416 302.504 435.416 301.838C435.416 301.167 435.071 300.475 434.301 300.475H432.534C430.93 300.475 430.093 300.375 430.093 298.474V292.003H434.041C434.819 292.003 435.167 291.307 435.167 290.633C435.167 289.97 434.819 289.273 434.041 289.273H430.093V285.647C430.093 284.725 429.448 284.169 428.363 284.169C427.507 284.169 426.515 284.558 426.515 285.647Z" fill="white"/>
<path d="M482.583 288.996C478.483 288.996 476.731 290.625 476.731 294.448V301.693C476.731 302.604 477.398 303.138 478.52 303.138C479.635 303.138 480.305 302.601 480.305 301.701V294.7C480.305 292.655 480.661 292.018 482.88 292.018H483.917C486.136 292.018 486.502 292.655 486.502 294.7V301.693C486.488 302.604 487.165 303.138 488.28 303.138C489.399 303.138 490.066 302.601 490.066 301.701V294.444C490.066 290.622 488.314 288.992 484.21 288.992H482.583V288.996Z" fill="white"/>
<path d="M470.004 290.537V301.623C470.004 302.76 470.937 303.171 471.812 303.171C472.686 303.171 473.608 302.76 473.608 301.623V290.537C473.608 289.396 472.686 288.984 471.801 288.984C470.937 288.984 470.004 289.396 470.004 290.537Z" fill="white"/>
<path d="M469.782 285.114C469.782 286.243 470.697 287.155 471.801 287.155C472.927 287.155 473.831 286.243 473.831 285.114C473.831 283.988 472.931 283.065 471.801 283.065C470.697 283.065 469.782 283.988 469.782 285.114Z" fill="white"/>
<path d="M439.538 289.414C438.153 289.722 437.382 290.592 437.382 292.114V307.457C437.382 308.542 438.297 308.935 439.164 308.935C440.027 308.935 440.95 308.542 440.95 307.457V302.997C441.794 303.182 442.546 303.267 443.535 303.267C445.717 303.267 446.85 302.897 448.091 302.156C449.924 301.06 451.01 299 451.01 296.248C451.01 291.451 448.561 289.014 443.705 289.014C442.39 289.014 440.768 289.136 439.538 289.414ZM440.946 300.234V292.17C441.676 292.014 442.59 291.937 443.465 291.937C446.291 291.937 447.428 292.992 447.428 295.967C447.428 299.311 446.476 300.467 443.409 300.467C442.572 300.471 441.583 300.389 440.946 300.234Z" fill="white"/>
<path d="M403.238 285.225V291.722H395.574V285.225C395.574 284.306 394.93 283.762 393.845 283.762C392.996 283.762 392 284.143 392 285.225V301.678C392 302.597 392.652 303.149 393.741 303.149C394.597 303.149 395.574 302.764 395.574 301.678V294.981H403.238V301.675C403.238 302.593 403.89 303.145 404.975 303.145C405.82 303.145 406.816 302.76 406.816 301.675V285.225C406.816 284.306 406.161 283.762 405.072 283.762C404.227 283.762 403.238 284.143 403.238 285.225Z" fill="white"/>
</g>
<defs>
<clipPath id="clip0_3842_144">
<rect width="596" height="490" fill="white"/>
</clipPath>
</defs>
</svg>
