<svg width="596" height="490" viewBox="0 0 596 490" fill="none" xmlns="http://www.w3.org/2000/svg">
<rect width="596" height="490" fill="black"/>
<path d="M243.777 95.4575V392.619C243.777 393.016 243.699 393.41 243.547 393.777C243.395 394.144 243.172 394.477 242.892 394.758C242.611 395.039 242.278 395.261 241.911 395.413C241.544 395.565 241.151 395.644 240.755 395.644H99.498M62.5547 328.894V31.0356C62.5547 30.2305 62.8743 29.4584 63.4432 28.8891C64.0121 28.3198 64.7838 28 65.5884 28H201.542" stroke="white" stroke-opacity="0.1" stroke-width="0.57" stroke-miterlimit="10"/>
<path d="M147.733 113.975L158.609 124.858" stroke="white" stroke-width="0.57" stroke-miterlimit="10"/>
<path d="M147.733 309.691L158.609 298.797" stroke="white" stroke-width="0.57" stroke-miterlimit="10"/>
<path d="M440.763 28C453.063 27.9926 465.243 30.41 476.609 35.1141C487.975 39.8182 498.303 46.7168 507.004 55.4159C515.705 64.1149 522.608 74.444 527.319 85.8131C532.029 97.1822 534.455 109.369 534.458 121.676M440.785 215.352C428.488 215.355 416.311 212.934 404.949 208.228C393.587 203.522 383.263 196.623 374.566 187.924C365.869 179.226 358.969 168.898 354.26 157.531C349.552 146.164 347.127 133.981 347.124 121.676" stroke="white" stroke-width="0.57" stroke-miterlimit="10"/>
<path d="M447.221 115.211L434.289 128.141" stroke="white" stroke-width="0.57" stroke-miterlimit="10"/>
<path d="M440.763 241.155C480.65 241.155 512.975 275.738 512.975 318.405M440.763 395.644C400.876 395.644 368.561 361.06 368.561 318.405" stroke="white" stroke-width="0.57" stroke-miterlimit="10"/>
<path d="M445.739 313.064L435.772 323.734" stroke="white" stroke-width="0.57" stroke-miterlimit="10"/>
<path d="M355.819 447.034C355.332 447.36 354.759 447.534 354.173 447.534C353.388 447.534 352.634 447.222 352.079 446.666C351.523 446.11 351.211 445.357 351.211 444.571C351.211 443.985 351.385 443.413 351.71 442.926C352.036 442.438 352.498 442.059 353.04 441.835C353.581 441.61 354.176 441.552 354.751 441.666C355.326 441.78 355.854 442.062 356.268 442.477C356.682 442.891 356.964 443.419 357.079 443.993C357.193 444.568 357.134 445.164 356.91 445.705C356.686 446.246 356.306 446.709 355.819 447.034Z" fill="#9E0900" stroke="#9E0900"/>
<path d="M355.819 459.284C355.332 459.609 354.759 459.783 354.173 459.783C353.388 459.783 352.634 459.471 352.079 458.915C351.523 458.36 351.211 457.606 351.211 456.821C351.211 456.235 351.385 455.662 351.71 455.175C352.036 454.688 352.498 454.308 353.04 454.084C353.581 453.86 354.176 453.801 354.751 453.915C355.326 454.03 355.854 454.312 356.268 454.726C356.682 455.14 356.964 455.668 357.079 456.243C357.193 456.817 357.134 457.413 356.91 457.954C356.686 458.496 356.306 458.958 355.819 459.284Z" fill="#9E0900" stroke="#9E0900"/>
<path d="M349.431 443.837H347V457.499H349.431" stroke="#9E0900" stroke-miterlimit="10"/>
<path d="M358.914 457.499H361.345V443.837H358.914" stroke="#9E0900" stroke-miterlimit="10"/>
<path d="M407.515 448.643C408.227 448.642 408.923 448.429 409.515 448.032C410.106 447.635 410.566 447.072 410.838 446.414C411.109 445.755 411.179 445.031 411.039 444.333C410.898 443.635 410.554 442.994 410.05 442.491C409.545 441.989 408.903 441.647 408.204 441.509C407.505 441.372 406.781 441.444 406.124 441.718C405.467 441.992 404.905 442.455 404.511 443.048C404.116 443.64 403.906 444.337 403.908 445.049C403.911 446.004 404.293 446.918 404.969 447.591C405.645 448.265 406.561 448.643 407.515 448.643Z" stroke="white" stroke-opacity="0.5" stroke-miterlimit="10"/>
<path d="M407.515 459.639C408.231 459.64 408.93 459.43 409.525 459.033C410.121 458.637 410.585 458.073 410.86 457.413C411.134 456.752 411.207 456.025 411.068 455.324C410.93 454.622 410.586 453.977 410.081 453.471C409.575 452.965 408.931 452.62 408.23 452.48C407.529 452.34 406.801 452.411 406.141 452.684C405.48 452.958 404.915 453.421 404.517 454.016C404.12 454.61 403.908 455.309 403.908 456.025C403.911 456.981 404.292 457.897 404.968 458.574C405.643 459.251 406.559 459.634 407.515 459.639Z" stroke="white" stroke-opacity="0.5" stroke-miterlimit="10"/>
<path fill-rule="evenodd" clip-rule="evenodd" d="M396.429 448.643C397.14 448.64 397.835 448.427 398.426 448.029C399.016 447.631 399.476 447.068 399.746 446.409C400.016 445.75 400.085 445.026 399.944 444.329C399.803 443.631 399.458 442.991 398.953 442.489C398.449 441.987 397.806 441.646 397.108 441.509C396.409 441.372 395.686 441.445 395.029 441.719C394.372 441.993 393.811 442.455 393.416 443.048C393.022 443.641 392.813 444.337 392.814 445.049C392.818 446.005 393.2 446.92 393.878 447.594C394.556 448.267 395.473 448.645 396.429 448.643Z" fill="white"/>
<path d="M398.147 447.614C397.638 447.956 397.04 448.14 396.427 448.143C395.604 448.144 394.814 447.819 394.23 447.239C393.647 446.659 393.317 445.871 393.314 445.048C393.313 444.435 393.493 443.835 393.833 443.325C394.172 442.815 394.655 442.416 395.221 442.18C395.787 441.944 396.41 441.881 397.012 441.999C397.613 442.117 398.166 442.411 398.601 442.843C399.036 443.276 399.332 443.827 399.454 444.428C399.575 445.029 399.516 445.652 399.283 446.219C399.051 446.786 398.655 447.272 398.147 447.614Z" stroke="white" stroke-opacity="0.5"/>
<path d="M396.428 459.639C397.143 459.639 397.842 459.427 398.437 459.03C399.031 458.633 399.494 458.068 399.768 457.408C400.042 456.747 400.113 456.02 399.974 455.319C399.834 454.618 399.49 453.974 398.984 453.469C398.479 452.963 397.835 452.619 397.134 452.479C396.433 452.34 395.706 452.411 395.045 452.685C394.385 452.959 393.82 453.422 393.423 454.016C393.026 454.611 392.814 455.31 392.814 456.025C392.818 456.982 393.2 457.899 393.877 458.576C394.554 459.253 395.471 459.635 396.428 459.639Z" stroke="white" stroke-opacity="0.5" stroke-miterlimit="10"/>
<path d="M451.627 447.507H438.18V459.459H451.627V447.507Z" stroke="white" stroke-opacity="0.5" stroke-miterlimit="10"/>
<path d="M440.694 445.347C440.694 444.23 441.137 443.159 441.927 442.37C442.716 441.58 443.787 441.137 444.904 441.137C446.02 441.137 447.091 441.58 447.881 442.37C448.67 443.159 449.114 444.23 449.114 445.347" stroke="white" stroke-opacity="0.5" stroke-miterlimit="10"/>
<path d="M440.694 445.347V447.507" stroke="white" stroke-opacity="0.5" stroke-miterlimit="10"/>
<path d="M449.113 445.347V447.507" stroke="white" stroke-opacity="0.5" stroke-miterlimit="10"/>
<path fill-rule="evenodd" clip-rule="evenodd" d="M444.91 450.492C445.182 450.493 445.447 450.587 445.659 450.758C445.871 450.93 446.019 451.168 446.079 451.434C446.138 451.7 446.106 451.978 445.986 452.223C445.867 452.469 445.668 452.666 445.422 452.784L446.052 456.475H443.774L444.384 452.784C444.177 452.684 444.003 452.529 443.881 452.336C443.759 452.142 443.693 451.919 443.691 451.69C443.691 451.531 443.722 451.374 443.784 451.228C443.845 451.082 443.934 450.949 444.047 450.838C444.16 450.726 444.293 450.638 444.44 450.579C444.587 450.52 444.744 450.49 444.903 450.492H444.91Z" fill="white"/>
<path d="M444.903 450.992H444.908C445.067 450.993 445.221 451.048 445.345 451.148C445.469 451.248 445.556 451.387 445.591 451.543C445.625 451.699 445.606 451.861 445.537 452.005C445.467 452.148 445.351 452.264 445.207 452.333L444.901 452.479L444.601 452.334C444.479 452.275 444.376 452.183 444.304 452.068C444.231 451.954 444.192 451.823 444.191 451.688C444.191 451.596 444.21 451.505 444.245 451.421C444.281 451.336 444.333 451.258 444.398 451.193C444.464 451.128 444.542 451.077 444.628 451.043C444.713 451.008 444.805 450.991 444.897 450.992L444.897 450.992H444.903ZM444.877 452.865L444.902 452.71L444.929 452.868L445.46 455.975H444.363L444.877 452.865Z" stroke="white" stroke-opacity="0.5"/>
<path d="M492.903 443.228H489.821V457.458H492.903V443.228Z" stroke="white" stroke-opacity="0.5" stroke-miterlimit="10"/>
<path d="M499.578 443.228H496.497V457.458H499.578V443.228Z" stroke="white" stroke-opacity="0.5" stroke-miterlimit="10"/>
<path d="M548.334 463.247C550.832 463.249 553.274 462.511 555.351 461.126C557.429 459.741 559.049 457.77 560.007 455.464C560.964 453.157 561.216 450.619 560.731 448.169C560.245 445.72 559.044 443.469 557.279 441.702C555.514 439.935 553.265 438.732 550.816 438.244C548.367 437.755 545.828 438.005 543.521 438.96C541.213 439.915 539.241 441.533 537.853 443.609C536.466 445.685 535.725 448.126 535.725 450.623C535.732 453.969 537.065 457.176 539.43 459.541C541.796 461.907 545.003 463.239 548.348 463.247H548.334Z" stroke="white" stroke-opacity="0.5" stroke-miterlimit="10"/>
<path d="M548.335 442.113V459.147" stroke="white" stroke-opacity="0.5" stroke-miterlimit="10"/>
</svg>
