<svg width="487" height="400" viewBox="0 0 487 400" fill="none" xmlns="http://www.w3.org/2000/svg">
<g clip-path="url(#clip0_4097_510)">
<rect width="486.531" height="400" fill="black"/>
<path d="M199.004 77.9248V320.506C199.004 320.83 198.94 321.151 198.816 321.451C198.692 321.75 198.511 322.022 198.282 322.251C198.052 322.481 197.78 322.663 197.481 322.787C197.182 322.911 196.861 322.975 196.537 322.975H81.2254M51.0676 268.485V25.3355C51.0676 24.6783 51.3285 24.0479 51.793 23.5832C52.2574 23.1185 52.8873 22.8574 53.5441 22.8574H164.526" stroke="white" stroke-opacity="0.1" stroke-width="0.57" stroke-miterlimit="10"/>
<path d="M120.602 93.041L129.481 101.925" stroke="white" stroke-width="0.57" stroke-miterlimit="10"/>
<path d="M120.602 252.809L129.481 243.916" stroke="white" stroke-width="0.57" stroke-miterlimit="10"/>
<path d="M359.81 22.8574C369.851 22.8514 379.794 24.8248 389.072 28.6648C398.35 32.5049 406.782 38.1364 413.885 45.2377C420.987 52.339 426.622 60.7709 430.468 70.0518C434.313 79.3327 436.294 89.2807 436.296 99.3277M359.828 175.798C349.79 175.8 339.85 173.824 330.575 169.983C321.3 166.141 312.871 160.509 305.772 153.408C298.672 146.307 293.039 137.876 289.196 128.597C285.352 119.318 283.372 109.372 283.37 99.3277" stroke="white" stroke-width="0.57" stroke-miterlimit="10"/>
<path d="M365.081 94.0503L354.524 104.605" stroke="white" stroke-width="0.57" stroke-miterlimit="10"/>
<path d="M359.81 196.861C392.371 196.861 418.759 225.093 418.759 259.923M359.81 322.975C327.249 322.975 300.87 294.744 300.87 259.923" stroke="white" stroke-width="0.57" stroke-miterlimit="10"/>
<path d="M363.872 255.563L355.736 264.273" stroke="white" stroke-width="0.57" stroke-miterlimit="10"/>
<path d="M288.228 360.766C288.653 360.59 289.12 360.544 289.572 360.634C290.023 360.724 290.438 360.945 290.763 361.271C291.088 361.596 291.31 362.01 291.4 362.461C291.489 362.912 291.443 363.381 291.267 363.806C291.091 364.231 290.793 364.594 290.41 364.85C290.028 365.105 289.578 365.241 289.117 365.241L288.888 365.23C288.355 365.178 287.855 364.942 287.473 364.561C287.037 364.124 286.791 363.532 286.791 362.915C286.791 362.455 286.927 362.005 287.183 361.623C287.438 361.24 287.803 360.942 288.228 360.766Z" fill="#9E0900" stroke="#9E0900"/>
<path d="M288.228 370.765C288.653 370.589 289.12 370.544 289.572 370.633C290.023 370.723 290.438 370.945 290.763 371.27C291.088 371.595 291.31 372.009 291.4 372.46C291.489 372.912 291.443 373.38 291.267 373.805C291.091 374.23 290.793 374.594 290.41 374.849C290.028 375.105 289.578 375.241 289.117 375.241L288.888 375.23C288.355 375.177 287.855 374.942 287.473 374.56C287.037 374.124 286.791 373.532 286.791 372.915C286.791 372.455 286.927 372.005 287.183 371.623C287.438 371.24 287.803 370.941 288.228 370.765Z" fill="#9E0900" stroke="#9E0900"/>
<path d="M285.246 362.316H283.262V373.469H285.246" stroke="#9E0900" stroke-miterlimit="10"/>
<path d="M292.988 373.469H294.972V362.316H292.988" stroke="#9E0900" stroke-miterlimit="10"/>
<path d="M332.661 366.239C333.243 366.238 333.811 366.065 334.293 365.741C334.776 365.417 335.152 364.957 335.373 364.419C335.595 363.882 335.652 363.291 335.537 362.721C335.423 362.151 335.142 361.628 334.73 361.217C334.318 360.807 333.794 360.528 333.224 360.416C332.653 360.303 332.062 360.363 331.526 360.586C330.989 360.81 330.531 361.187 330.209 361.671C329.886 362.155 329.715 362.724 329.716 363.305C329.719 364.084 330.031 364.831 330.583 365.381C331.135 365.93 331.882 366.239 332.661 366.239Z" stroke="white" stroke-opacity="0.5" stroke-miterlimit="10"/>
<path d="M332.661 375.215C333.245 375.216 333.816 375.044 334.302 374.721C334.788 374.397 335.167 373.937 335.391 373.398C335.616 372.859 335.675 372.265 335.562 371.692C335.448 371.12 335.168 370.593 334.755 370.18C334.343 369.767 333.817 369.485 333.245 369.371C332.672 369.257 332.079 369.315 331.539 369.538C331 369.761 330.538 370.139 330.214 370.625C329.889 371.11 329.716 371.681 329.716 372.265C329.719 373.045 330.03 373.793 330.582 374.346C331.133 374.898 331.881 375.211 332.661 375.215Z" stroke="white" stroke-opacity="0.5" stroke-miterlimit="10"/>
<path fill-rule="evenodd" clip-rule="evenodd" d="M323.611 366.239C324.192 366.237 324.759 366.062 325.241 365.738C325.723 365.413 326.098 364.953 326.319 364.415C326.54 363.878 326.596 363.287 326.481 362.717C326.365 362.148 326.084 361.625 325.672 361.215C325.26 360.806 324.736 360.527 324.165 360.415C323.595 360.303 323.005 360.363 322.468 360.587C321.932 360.81 321.474 361.188 321.152 361.672C320.83 362.156 320.659 362.724 320.66 363.305C320.663 364.085 320.976 364.832 321.529 365.383C322.082 365.933 322.831 366.241 323.611 366.239Z" fill="white"/>
<path d="M322.66 361.048C323.105 360.862 323.596 360.813 324.069 360.906C324.542 360.999 324.977 361.23 325.319 361.57C325.661 361.91 325.895 362.344 325.99 362.816C326.086 363.289 326.039 363.779 325.856 364.226C325.673 364.672 325.362 365.054 324.962 365.323C324.562 365.592 324.091 365.736 323.609 365.738C322.962 365.739 322.34 365.485 321.881 365.028C321.479 364.629 321.23 364.104 321.173 363.545L321.16 363.304C321.159 362.822 321.302 362.351 321.568 361.949C321.835 361.548 322.215 361.233 322.66 361.048Z" stroke="white" stroke-opacity="0.5"/>
<path d="M323.611 375.215C324.194 375.215 324.765 375.042 325.25 374.718C325.735 374.394 326.114 373.933 326.337 373.394C326.56 372.855 326.619 372.261 326.505 371.689C326.391 371.117 326.11 370.591 325.697 370.178C325.285 369.766 324.759 369.485 324.186 369.371C323.614 369.257 323.021 369.315 322.482 369.539C321.943 369.762 321.482 370.14 321.157 370.625C320.833 371.111 320.66 371.681 320.66 372.265C320.663 373.046 320.975 373.795 321.528 374.348C322.08 374.901 322.829 375.212 323.611 375.215Z" stroke="white" stroke-opacity="0.5" stroke-miterlimit="10"/>
<path d="M368.672 365.312H357.695V375.068H368.672V365.312Z" stroke="white" stroke-opacity="0.5" stroke-miterlimit="10"/>
<path d="M359.748 363.548C359.748 362.637 360.11 361.762 360.755 361.118C361.399 360.473 362.274 360.111 363.185 360.111C364.097 360.111 364.971 360.473 365.615 361.118C366.26 361.762 366.622 362.637 366.622 363.548" stroke="white" stroke-opacity="0.5" stroke-miterlimit="10"/>
<path d="M359.748 363.548V365.312" stroke="white" stroke-opacity="0.5" stroke-miterlimit="10"/>
<path d="M366.617 363.548V365.312" stroke="white" stroke-opacity="0.5" stroke-miterlimit="10"/>
<path fill-rule="evenodd" clip-rule="evenodd" d="M363.186 367.748C363.408 367.749 363.624 367.826 363.797 367.966C363.971 368.106 364.091 368.3 364.14 368.517C364.189 368.734 364.162 368.962 364.065 369.162C363.967 369.362 363.805 369.523 363.604 369.619L364.118 372.632H362.259L362.756 369.619C362.588 369.538 362.446 369.411 362.346 369.253C362.246 369.095 362.192 368.913 362.191 368.726C362.191 368.597 362.217 368.469 362.266 368.349C362.316 368.23 362.389 368.121 362.481 368.031C362.573 367.94 362.682 367.868 362.802 367.819C362.922 367.771 363.051 367.747 363.18 367.748H363.186Z" fill="white"/>
<path d="M363.526 372.132H362.848L363.18 370.114L363.526 372.132ZM363.174 368.248H363.183L363.264 368.256C363.344 368.27 363.42 368.304 363.484 368.355C363.569 368.424 363.628 368.519 363.652 368.626C363.676 368.733 363.663 368.845 363.615 368.943C363.567 369.042 363.487 369.121 363.388 369.168L363.178 369.268L362.974 369.169C362.89 369.128 362.818 369.065 362.768 368.986C362.719 368.908 362.692 368.818 362.691 368.726C362.691 368.663 362.704 368.6 362.728 368.542C362.752 368.484 362.788 368.43 362.833 368.386C362.877 368.341 362.931 368.307 362.99 368.283C363.019 368.271 363.05 368.262 363.081 368.256L363.174 368.248Z" stroke="white" stroke-opacity="0.5"/>
<path d="M402.366 361.818H399.85V373.435H402.366V361.818Z" stroke="white" stroke-opacity="0.5" stroke-miterlimit="10"/>
<path d="M407.819 361.818H405.303V373.435H407.819V361.818Z" stroke="white" stroke-opacity="0.5" stroke-miterlimit="10"/>
<path d="M447.618 378.16C449.657 378.163 451.65 377.56 453.346 376.429C455.042 375.298 456.365 373.69 457.147 371.807C457.928 369.924 458.134 367.852 457.738 365.852C457.341 363.852 456.361 362.015 454.92 360.573C453.479 359.131 451.643 358.148 449.644 357.75C447.645 357.351 445.572 357.554 443.689 358.334C441.805 359.114 440.195 360.434 439.062 362.129C437.929 363.824 437.325 365.817 437.325 367.856C437.331 370.587 438.418 373.204 440.35 375.136C442.281 377.067 444.898 378.154 447.629 378.16H447.618Z" stroke="white" stroke-opacity="0.5" stroke-miterlimit="10"/>
<path d="M447.618 360.908V374.814" stroke="white" stroke-opacity="0.5" stroke-miterlimit="10"/>
</g>
<defs>
<clipPath id="clip0_4097_510">
<rect width="486.531" height="400" fill="white"/>
</clipPath>
</defs>
</svg>
