<svg width="142" height="48" viewBox="0 0 142 48" fill="none" xmlns="http://www.w3.org/2000/svg">
<rect width="142" height="48" rx="6" fill="black"/>
<path d="M33.4648 25.0815C33.4648 29.9672 35.8836 32.4489 40.6693 32.4489C45.4401 32.4489 47.8515 29.9672 47.8515 25.0815C47.8515 20.1773 45.4401 17.6956 40.6693 17.6956C35.8836 17.6956 33.4648 20.1773 33.4648 25.0815ZM36.9689 25.0815C36.9689 21.8626 38.0023 20.5588 40.6396 20.5588C43.3325 20.5588 44.3437 21.8182 44.3437 25.0815C44.3437 28.304 43.3066 29.6079 40.6396 29.6079C37.9653 29.6079 36.9689 28.3559 36.9689 25.0815Z" fill="white"/>
<path d="M76.9531 25.0815C76.9531 29.9672 79.3867 32.4489 84.165 32.4489C88.9284 32.4489 91.3435 29.9672 91.3435 25.0815C91.3435 20.1773 88.9284 17.6956 84.165 17.6956C79.383 17.6956 76.9531 20.1773 76.9531 25.0815ZM80.4683 25.0815C80.4683 21.8626 81.4943 20.5588 84.1316 20.5588C86.8282 20.5588 87.8283 21.8182 87.8283 25.0815C87.8283 28.304 86.7912 29.6079 84.1316 29.6079C81.461 29.6079 80.4683 28.3559 80.4683 25.0815Z" fill="white"/>
<path d="M117.105 14.6471V28.0262C117.105 30.7524 118.743 32.197 121.847 32.197H124.873C125.651 32.197 125.999 31.5044 125.999 30.8376C125.999 30.1672 125.651 29.4745 124.873 29.4745H123.117C121.513 29.4745 120.676 29.3745 120.676 27.4743V21.0033H124.628C125.406 21.0033 125.754 20.3069 125.754 19.6328C125.754 18.9698 125.406 18.2734 124.628 18.2734L120.676 18.2808V14.6471C120.676 13.7248 120.021 13.1692 118.95 13.1692C118.087 13.1692 117.105 13.5581 117.105 14.6471Z" fill="white"/>
<path d="M50.5156 14.6471V28.0262C50.5156 30.7524 52.1565 32.197 55.2754 32.197H58.3016C59.072 32.197 59.4165 31.5044 59.4165 30.8376C59.4165 30.1672 59.072 29.4745 58.3016 29.4745H56.5348C54.9309 29.4745 54.0938 29.3745 54.0938 27.4743V21.0033H58.0423C58.8202 21.0033 59.1684 20.3069 59.1684 19.6328C59.1684 18.9698 58.8202 18.2734 58.0423 18.2734H54.0938V14.6471C54.0938 13.7248 53.4493 13.1692 52.364 13.1692C51.5083 13.1692 50.5156 13.5581 50.5156 14.6471Z" fill="white"/>
<path d="M106.583 17.9956C102.482 17.9956 100.73 19.6254 100.73 23.448V30.6932C100.73 31.6044 101.397 32.1378 102.52 32.1378C103.634 32.1378 104.305 31.6007 104.305 30.7006V23.6999C104.305 21.6552 104.66 21.0181 106.879 21.0181H107.916C110.135 21.0181 110.502 21.6552 110.502 23.6999V30.6932C110.487 31.6044 111.165 32.1378 112.28 32.1378C113.398 32.1378 114.065 31.6007 114.065 30.7006V23.4443C114.065 19.6217 112.313 17.9919 108.209 17.9919H106.583V17.9956Z" fill="white"/>
<path d="M94.0039 19.5365V30.6228C94.0039 31.76 94.9373 32.1711 95.8115 32.1711C96.6857 32.1711 97.608 31.76 97.608 30.6228V19.5365C97.608 18.3956 96.6857 17.9845 95.8004 17.9845C94.9373 17.9845 94.0039 18.3956 94.0039 19.5365Z" fill="white"/>
<path d="M93.7812 14.1137C93.7812 15.2435 94.6962 16.1547 95.8 16.1547C96.926 16.1547 97.8298 15.2435 97.8298 14.1137C97.8298 12.9877 96.9297 12.0654 95.8 12.0654C94.6962 12.0654 93.7812 12.9877 93.7812 14.1137Z" fill="white"/>
<path d="M63.5386 18.4142C62.1533 18.7216 61.3828 19.5921 61.3828 21.1145V36.4568C61.3828 37.5421 62.2977 37.9347 63.1645 37.9347C64.0275 37.9347 64.9498 37.5421 64.9498 36.4568V31.9971C65.7944 32.1823 66.5463 32.2675 67.5353 32.2675C69.717 32.2675 70.8504 31.897 72.0913 31.1562C73.9248 30.0598 75.0101 28.0004 75.0101 25.2482C75.0101 20.4514 72.5617 18.0142 67.7057 18.0142C66.3907 18.0142 64.7683 18.1364 63.5386 18.4142ZM64.9461 29.2338V21.17C65.6758 21.0145 66.5907 20.9367 67.4649 20.9367C70.2911 20.9367 71.4283 21.9923 71.4283 24.9667C71.4283 28.3115 70.4763 29.4672 67.4093 29.4672C66.5722 29.4709 65.5832 29.3894 64.9461 29.2338Z" fill="white"/>
<path d="M27.2382 14.2248V20.7218H19.5744V14.2248C19.5744 13.3062 18.9299 12.7617 17.8446 12.7617C16.9964 12.7617 16 13.1432 16 14.2248V30.6783C16 31.597 16.6519 32.1489 17.7409 32.1489C18.5966 32.1489 19.5744 31.7636 19.5744 30.6783V23.9814H27.2382V30.6746C27.2382 31.5933 27.8901 32.1452 28.9754 32.1452C29.8199 32.1452 30.8163 31.7599 30.8163 30.6746V14.2248C30.8163 13.3062 30.1607 12.7617 29.0717 12.7617C28.2272 12.7617 27.2382 13.1432 27.2382 14.2248Z" fill="white"/>
</svg>
