<svg width="596" height="490" viewBox="0 0 596 490" fill="none" xmlns="http://www.w3.org/2000/svg">
<path d="M301.03 348.124C300.031 348.791 298.857 349.147 297.655 349.147C296.045 349.147 294.5 348.507 293.361 347.368C292.222 346.229 291.582 344.684 291.582 343.074C291.582 341.872 291.938 340.698 292.605 339.699C293.273 338.701 294.221 337.922 295.331 337.462C296.441 337.003 297.662 336.882 298.84 337.117C300.019 337.351 301.101 337.93 301.95 338.779C302.8 339.628 303.378 340.711 303.612 341.889C303.847 343.067 303.726 344.288 303.267 345.398C302.807 346.508 302.029 347.456 301.03 348.124Z" fill="#9E0900" stroke="#9E0900" stroke-width="2"/>
<path d="M301.03 373.15C300.031 373.818 298.857 374.174 297.655 374.174C296.045 374.174 294.5 373.534 293.361 372.395C292.222 371.256 291.582 369.711 291.582 368.1C291.582 366.899 291.938 365.725 292.605 364.726C293.273 363.727 294.221 362.949 295.331 362.489C296.441 362.029 297.662 361.909 298.84 362.143C300.019 362.378 301.101 362.956 301.95 363.805C302.8 364.655 303.378 365.737 303.612 366.915C303.847 368.094 303.726 369.315 303.267 370.425C302.807 371.534 302.029 372.483 301.03 373.15Z" fill="#9E0900" stroke="#9E0900" stroke-width="2"/>
<path d="M287.966 341.574H283V369.487H287.966" stroke="#9E0900" stroke-width="2" stroke-miterlimit="10"/>
<path d="M307.341 369.487H312.307V341.574H307.341" stroke="#9E0900" stroke-width="2" stroke-miterlimit="10"/>
<rect x="270" y="324" width="55" height="64" fill="#D9D9D9" fill-opacity="0.1"/>
</svg>
