<svg width="487" height="400" viewBox="0 0 487 400" fill="none" xmlns="http://www.w3.org/2000/svg">
<path d="M241.148 275.649C242.02 275.288 242.981 275.193 243.907 275.377C244.833 275.562 245.683 276.016 246.351 276.684C247.019 277.352 247.473 278.202 247.658 279.128C247.842 280.055 247.748 281.015 247.386 281.887C247.025 282.76 246.413 283.505 245.627 284.03C244.842 284.554 243.919 284.834 242.975 284.834L242.739 284.829C241.559 284.77 240.439 284.276 239.599 283.436C238.704 282.541 238.201 281.326 238.201 280.06C238.201 279.116 238.481 278.193 239.005 277.408C239.53 276.623 240.276 276.01 241.148 275.649Z" fill="#9E0900" stroke="#9E0900" stroke-width="2"/>
<path d="M241.148 296.079C242.02 295.717 242.981 295.623 243.907 295.807C244.833 295.991 245.683 296.446 246.351 297.114C247.019 297.781 247.473 298.632 247.658 299.558C247.842 300.484 247.748 301.444 247.386 302.317C247.025 303.189 246.413 303.935 245.627 304.459C244.842 304.984 243.919 305.264 242.975 305.264L242.739 305.258C241.559 305.2 240.439 304.705 239.599 303.866C238.704 302.97 238.201 301.756 238.201 300.49C238.201 299.545 238.481 298.623 239.005 297.837C239.53 297.052 240.276 296.44 241.148 296.079Z" fill="#9E0900" stroke="#9E0900" stroke-width="2"/>
<path d="M235.068 278.836H231.014V301.622H235.068" stroke="#9E0900" stroke-width="2" stroke-miterlimit="10"/>
<path d="M250.887 301.622H254.941V278.836H250.887" stroke="#9E0900" stroke-width="2" stroke-miterlimit="10"/>
<rect x="220.408" y="264.49" width="44.898" height="52.2449" fill="#D9D9D9" fill-opacity="0.1"/>
<line x1="243.5" y1="317" x2="243.5" y2="368" stroke="#9E0900" stroke-opacity="0.3"/>
<path d="M244.003 367.5L269.31 367.5" stroke="#9E0900" stroke-opacity="0.3"/>
</svg>
