<svg width="60" height="61" viewBox="0 0 60 61" fill="none" xmlns="http://www.w3.org/2000/svg">
<path d="M39.2699 19.9999C39.2978 18.9032 39.6855 17.8461 40.3733 16.9915C41.0612 16.1369 42.011 15.5323 43.0764 15.2708C44.1418 15.0092 45.2636 15.1054 46.269 15.5443C47.2744 15.9833 48.1075 16.7407 48.6399 17.6999L58.5199 36.5199C59.561 38.6277 60.0698 40.9585 60.0018 43.3084C59.9338 45.6583 59.2911 47.9558 58.1299 49.9999L57.1299 51.7899C56.0785 53.6446 54.6718 55.2739 52.9902 56.5845C51.3085 57.8951 49.385 58.8613 47.3296 59.4279C45.2742 59.9944 43.1273 60.1502 41.0117 59.8863C38.896 59.6224 36.8532 58.944 34.9999 57.8899L23.2399 51.2399C22.1889 50.6752 21.3952 49.7281 21.0229 48.5945C20.6507 47.461 20.7284 46.2277 21.2399 45.1499C21.6889 44.2293 22.441 43.4913 23.3699 43.0599C22.5564 42.4098 21.9863 41.504 21.7522 40.4894C21.518 39.4747 21.6335 38.4107 22.0799 37.4699C22.5323 36.5458 23.2875 35.8047 24.2199 35.3699C23.6139 34.8985 23.1375 34.2808 22.8357 33.5748C22.5338 32.8688 22.4164 32.0977 22.4944 31.3339C22.5723 30.57 22.8432 29.8386 23.2815 29.2081C23.7198 28.5777 24.3111 28.069 24.9999 27.7299L17.8499 23.6799C16.7997 23.1171 16.0061 22.1718 15.6338 21.0399C15.2615 19.908 15.3389 18.6763 15.8499 17.5999C16.1256 17.045 16.5113 16.5521 16.9838 16.1513C17.4562 15.7504 18.0054 15.4501 18.5977 15.2685C19.1901 15.087 19.8132 15.028 20.4291 15.0953C21.045 15.1626 21.6408 15.3547 22.1799 15.6599L40.8199 26.2199L39.4599 21.3099C39.3401 20.8835 39.2795 20.4427 39.2799 19.9999H39.2699ZM21.1699 17.4299C20.8677 17.2577 20.5334 17.1492 20.1877 17.1111C19.8419 17.0729 19.492 17.1059 19.1595 17.208C18.827 17.3101 18.5188 17.4792 18.2541 17.7048C17.9893 17.9304 17.7735 18.2078 17.6199 18.5199C17.3491 19.1404 17.3222 19.8403 17.5446 20.4798C17.767 21.1193 18.2224 21.6514 18.8199 21.9699L36.7699 32.0899C36.9626 32.199 37.1136 32.369 37.1992 32.5732C37.2848 32.7774 37.3002 33.0043 37.243 33.2182C37.1858 33.4321 37.0592 33.621 36.8831 33.7552C36.707 33.8894 36.4914 33.9614 36.2699 33.9599C36.0982 33.9593 35.9294 33.9146 35.7799 33.8299L28.2699 29.5899C27.9681 29.4216 27.6357 29.3155 27.2922 29.2777C26.9487 29.2399 26.6011 29.2713 26.2699 29.3699C25.937 29.4706 25.6284 29.6389 25.3634 29.8643C25.0984 30.0897 24.8828 30.3674 24.7299 30.6799C24.4561 31.3015 24.4277 32.0038 24.6502 32.6456C24.8728 33.2874 25.33 33.8212 25.9299 34.1399L33.2699 38.2899C33.4618 38.3986 33.6124 38.5677 33.6982 38.7709C33.784 38.9741 33.8002 39.2 33.7442 39.4133C33.6883 39.6267 33.5635 39.8156 33.3891 39.9506C33.2147 40.0856 33.0005 40.1592 32.7799 40.1599C32.6082 40.1593 32.4394 40.1146 32.2899 40.0299L27.4199 37.2799C27.118 37.1117 26.7852 37.0063 26.4414 36.9703C26.0977 36.9342 25.7502 36.968 25.4199 37.0699C25.0897 37.1707 24.7836 37.338 24.5205 37.5616C24.2573 37.7852 24.0428 38.0602 23.8899 38.3699C23.6209 38.9922 23.5949 39.6927 23.8171 40.3332C24.0392 40.9738 24.4934 41.5078 25.0899 41.8299L29.7799 44.4899C30.0104 44.6201 30.1798 44.8364 30.251 45.0913C30.3222 45.3463 30.2895 45.619 30.1599 45.8499C30.0731 46.0043 29.9468 46.133 29.7939 46.2226C29.6411 46.3122 29.4671 46.3596 29.2899 46.3599C29.1182 46.3593 28.9494 46.3146 28.7999 46.2299L26.5799 44.9999C26.2797 44.8183 25.945 44.7012 25.5971 44.656C25.2491 44.6108 24.8956 44.6384 24.5589 44.7372C24.2223 44.8359 23.9098 45.0036 23.6414 45.2296C23.373 45.4556 23.1546 45.7349 22.9999 46.0499C22.7267 46.6701 22.6985 47.3708 22.9212 48.011C23.1438 48.6511 23.6007 49.1831 24.1999 49.4999L35.9999 56.1499C37.6261 57.0709 39.4178 57.6624 41.2727 57.8905C43.1276 58.1186 45.0093 57.9788 46.8102 57.4792C48.611 56.9795 50.2957 56.1298 51.7679 54.9785C53.2401 53.8273 54.4709 52.3971 55.3899 50.7699L56.3999 48.9999C57.3933 47.2462 57.9435 45.2766 58.0028 43.262C58.062 41.2474 57.6285 39.2489 56.7399 37.4399L46.8799 18.6099C46.6268 18.1256 46.2461 17.7197 45.7791 17.4359C45.3121 17.1522 44.7764 17.0014 44.2299 16.9999C43.9659 16.9972 43.703 17.0342 43.4499 17.1099C42.8233 17.2903 42.2725 17.67 41.8809 18.1914C41.4894 18.7129 41.2784 19.3478 41.2799 19.9999C41.2761 20.2699 41.3098 20.5391 41.3799 20.7999L43.3799 28.0399C43.4223 28.2217 43.4128 28.4117 43.3527 28.5884C43.2927 28.7651 43.1843 28.9215 43.0399 29.0399C42.8847 29.1632 42.6963 29.2377 42.4986 29.2537C42.301 29.2697 42.103 29.2266 41.9299 29.1299L21.1799 17.3999L21.1699 17.4299Z" fill="white"/>
<path d="M10.6733 11.6701C10.541 11.6696 10.4101 11.6428 10.2882 11.5913C10.1663 11.5398 10.0559 11.4646 9.96327 11.3701L5.13327 6.54015C4.94702 6.35279 4.84248 6.09933 4.84248 5.83515C4.84248 5.57096 4.94702 5.31751 5.13327 5.13015C5.32063 4.9439 5.57408 4.83936 5.83827 4.83936C6.10245 4.83936 6.35591 4.9439 6.54327 5.13015L11.3733 10.0001C11.5595 10.1875 11.6641 10.441 11.6641 10.7051C11.6641 10.9693 11.5595 11.2228 11.3733 11.4101C11.1823 11.584 10.9314 11.6771 10.6733 11.6701Z" fill="white"/>
<path d="M25.1694 11.67C25.0371 11.6695 24.9062 11.6427 24.7844 11.5912C24.6625 11.5397 24.5521 11.4645 24.4594 11.37C24.2732 11.1827 24.1686 10.9292 24.1686 10.665C24.1686 10.4008 24.2732 10.1474 24.4594 9.96003L29.2894 5.13003C29.4764 4.94173 29.7305 4.83542 29.9959 4.83448C30.2613 4.83354 30.5161 4.93806 30.7044 5.12503C30.8927 5.31201 30.9991 5.56614 31 5.8315C31.0009 6.09686 30.8964 6.35173 30.7094 6.54003L25.8694 11.37C25.6848 11.5584 25.4332 11.6663 25.1694 11.67Z" fill="white"/>
<path d="M11.3683 25.8699L6.53827 30.7099C6.34997 30.8969 6.0951 31.0014 5.82973 31.0005C5.56437 30.9995 5.31025 30.8932 5.12327 30.7049C4.93629 30.5166 4.83178 30.2617 4.83271 29.9964C4.83365 29.731 4.93997 29.4769 5.12827 29.2899L9.99827 24.4599C10.0879 24.3552 10.1982 24.2702 10.3223 24.2102C10.4464 24.1501 10.5815 24.1164 10.7192 24.1111C10.8569 24.1058 10.9943 24.129 11.1226 24.1793C11.2509 24.2295 11.3675 24.3058 11.4649 24.4032C11.5624 24.5007 11.6386 24.6172 11.6889 24.7456C11.7392 24.8739 11.7624 25.0112 11.7571 25.1489C11.7517 25.2867 11.718 25.4218 11.658 25.5459C11.598 25.6699 11.513 25.7802 11.4083 25.8699H11.3683Z" fill="white"/>
<path d="M17 8V1C17 0.734784 17.1054 0.48043 17.2929 0.292893C17.4804 0.105357 17.7348 0 18 0C18.2652 0 18.5196 0.105357 18.7071 0.292893C18.8946 0.48043 19 0.734784 19 1V8C19 8.26522 18.8946 8.51957 18.7071 8.70711C18.5196 8.89464 18.2652 9 18 9C17.7348 9 17.4804 8.89464 17.2929 8.70711C17.1054 8.51957 17 8.26522 17 8Z" fill="white"/>
<path d="M1 17H8C8.26522 17 8.51957 17.1054 8.70711 17.2929C8.89464 17.4804 9 17.7348 9 18C9 18.2652 8.89464 18.5196 8.70711 18.7071C8.51957 18.8946 8.26522 19 8 19H1C0.734783 19 0.480429 18.8946 0.292892 18.7071C0.105356 18.5196 0 18.2652 0 18C0 17.7348 0.105356 17.4804 0.292892 17.2929C0.480429 17.1054 0.734783 17 1 17Z" fill="white"/>
</svg>
