<svg width="596" height="490" viewBox="0 0 596 490" fill="none" xmlns="http://www.w3.org/2000/svg">
<g clip-path="url(#clip0_3853_93)">
<rect width="596" height="490" rx="16" fill="black"/>
<path d="M47.6385 376V388.304" stroke="white" stroke-opacity="0.5" stroke-width="2" stroke-miterlimit="10"/>
<path d="M53.8 382.134L41.5051 382.161" stroke="white" stroke-opacity="0.5" stroke-width="2" stroke-miterlimit="10"/>
<path d="M53.8 454.463H41.5051" stroke="white" stroke-opacity="0.5" stroke-width="2" stroke-miterlimit="10"/>
<path d="M47.6303 430.806C50.1432 430.817 52.6028 430.081 54.6969 428.692C56.7909 427.303 58.4252 425.323 59.3922 423.003C60.3593 420.684 60.6156 418.129 60.1287 415.664C59.6417 413.198 58.4334 410.933 56.6571 409.156C54.8808 407.378 52.6165 406.168 50.1514 405.679C47.6864 405.191 45.1318 405.445 42.8116 406.411C40.4914 407.376 38.5103 409.009 37.1196 411.102C35.7288 413.195 34.9911 415.654 35.0001 418.167C35.012 421.514 36.3462 424.72 38.712 427.088C41.0778 429.455 44.2834 430.792 47.6303 430.806Z" stroke="white" stroke-opacity="0.5" stroke-width="2" stroke-miterlimit="10"/>
<path d="M47.6385 405.537V409.206" stroke="white" stroke-opacity="0.5" stroke-width="2" stroke-miterlimit="10"/>
<path d="M60.2783 418.167H56.5998" stroke="white" stroke-opacity="0.5" stroke-width="2" stroke-miterlimit="10"/>
<path d="M47.6385 430.806V427.137" stroke="white" stroke-opacity="0.5" stroke-width="2" stroke-miterlimit="10"/>
<path d="M35 418.167H38.6785" stroke="white" stroke-opacity="0.5" stroke-width="2" stroke-miterlimit="10"/>
<path d="M47.5854 414.914V418.176L51.726 422.308" stroke="white" stroke-opacity="0.5" stroke-width="2" stroke-miterlimit="10"/>
<path fill-rule="evenodd" clip-rule="evenodd" d="M103.632 391.249C104.528 391.249 105.404 390.983 106.149 390.485C106.894 389.987 107.475 389.28 107.818 388.452C108.161 387.624 108.25 386.713 108.076 385.835C107.901 384.956 107.469 384.149 106.836 383.515C106.202 382.882 105.395 382.45 104.516 382.275C103.637 382.101 102.727 382.19 101.899 382.533C101.071 382.876 100.363 383.457 99.8656 384.202C99.3679 384.947 99.1022 385.822 99.1022 386.718C99.1022 387.92 99.5795 389.072 100.429 389.922C101.279 390.771 102.431 391.249 103.632 391.249Z" fill="white" fill-opacity="0.5"/>
<path d="M105.594 389.654C105.013 390.042 104.331 390.249 103.632 390.249C102.696 390.249 101.798 389.877 101.136 389.215C100.474 388.553 100.102 387.655 100.102 386.718C100.102 386.02 100.309 385.338 100.697 384.757C101.085 384.177 101.636 383.724 102.281 383.457C102.926 383.19 103.636 383.12 104.321 383.256C105.006 383.392 105.635 383.729 106.129 384.222C106.622 384.716 106.959 385.345 107.095 386.03C107.231 386.715 107.161 387.424 106.894 388.069C106.627 388.714 106.174 389.266 105.594 389.654Z" stroke="white" stroke-opacity="0.5" stroke-width="2"/>
<path fill-rule="evenodd" clip-rule="evenodd" d="M103.632 407.276C104.528 407.276 105.404 407.011 106.149 406.513C106.894 406.015 107.475 405.308 107.818 404.48C108.161 403.652 108.25 402.741 108.076 401.862C107.901 400.984 107.469 400.176 106.836 399.543C106.202 398.909 105.395 398.478 104.516 398.303C103.637 398.128 102.727 398.218 101.899 398.561C101.071 398.904 100.363 399.484 99.8656 400.229C99.3679 400.974 99.1022 401.85 99.1022 402.746C99.1022 403.948 99.5795 405.1 100.429 405.95C101.279 406.799 102.431 407.276 103.632 407.276Z" fill="white" fill-opacity="0.5"/>
<path d="M105.594 405.682C105.013 406.069 104.331 406.276 103.632 406.276C102.696 406.276 101.798 405.905 101.136 405.242C100.474 404.58 100.102 403.683 100.102 402.746C100.102 402.048 100.309 401.366 100.697 400.785C101.085 400.204 101.636 399.752 102.281 399.485C102.926 399.218 103.636 399.148 104.321 399.284C105.006 399.42 105.635 399.756 106.129 400.25C106.622 400.744 106.959 401.373 107.095 402.058C107.231 402.742 107.161 403.452 106.894 404.097C106.627 404.742 106.174 405.294 105.594 405.682Z" stroke="white" stroke-opacity="0.5" stroke-width="2"/>
<path d="M97.4337 385.758H94.2535V403.634H97.4337" stroke="white" stroke-opacity="0.5" stroke-width="2" stroke-miterlimit="10"/>
<path d="M109.847 403.634H113.027V385.758H109.847" stroke="white" stroke-opacity="0.5" stroke-width="2" stroke-miterlimit="10"/>
<path d="M173.432 392.046C174.364 392.044 175.274 391.766 176.048 391.247C176.822 390.728 177.424 389.991 177.779 389.129C178.134 388.268 178.225 387.32 178.042 386.407C177.858 385.493 177.408 384.654 176.748 383.997C176.088 383.339 175.247 382.892 174.333 382.712C173.419 382.532 172.472 382.627 171.611 382.985C170.751 383.343 170.017 383.949 169.5 384.725C168.984 385.5 168.71 386.412 168.711 387.344C168.716 388.592 169.216 389.788 170.1 390.67C170.985 391.551 172.183 392.046 173.432 392.046Z" stroke="white" stroke-opacity="0.5" stroke-width="2" stroke-miterlimit="10"/>
<path d="M173.432 406.434C174.368 406.436 175.283 406.16 176.062 405.641C176.841 405.123 177.448 404.385 177.808 403.521C178.167 402.656 178.262 401.705 178.081 400.787C177.899 399.869 177.449 399.026 176.788 398.363C176.127 397.701 175.285 397.25 174.367 397.066C173.449 396.883 172.498 396.976 171.633 397.334C170.768 397.692 170.029 398.298 169.509 399.076C168.989 399.854 168.711 400.769 168.711 401.704C168.716 402.956 169.215 404.154 170.099 405.04C170.983 405.926 172.181 406.427 173.432 406.434Z" stroke="white" stroke-opacity="0.5" stroke-width="2" stroke-miterlimit="10"/>
<path fill-rule="evenodd" clip-rule="evenodd" d="M158.927 392.046C159.858 392.042 160.768 391.763 161.54 391.242C162.313 390.722 162.914 389.985 163.267 389.123C163.621 388.261 163.711 387.314 163.527 386.401C163.342 385.488 162.891 384.65 162.23 383.994C161.57 383.337 160.73 382.891 159.815 382.711C158.901 382.532 157.955 382.628 157.095 382.986C156.235 383.345 155.501 383.95 154.986 384.726C154.47 385.501 154.195 386.412 154.197 387.344C154.202 388.594 154.703 389.791 155.589 390.673C156.476 391.555 157.676 392.048 158.927 392.046Z" fill="white"/>
<path d="M160.982 390.413C160.373 390.823 159.657 391.043 158.924 391.046C157.939 391.048 156.993 390.658 156.294 389.964C155.596 389.269 155.201 388.326 155.197 387.341C155.196 386.607 155.412 385.89 155.818 385.279C156.225 384.668 156.803 384.192 157.48 383.909C158.157 383.627 158.903 383.551 159.623 383.693C160.343 383.834 161.005 384.185 161.525 384.703C162.046 385.22 162.401 385.88 162.546 386.599C162.692 387.318 162.621 388.064 162.342 388.743C162.064 389.422 161.59 390.003 160.982 390.413Z" stroke="white" stroke-opacity="0.5" stroke-width="2"/>
<path d="M158.927 406.434C159.862 406.434 160.776 406.156 161.554 405.637C162.332 405.117 162.938 404.378 163.296 403.514C163.654 402.65 163.748 401.699 163.565 400.782C163.383 399.864 162.932 399.021 162.271 398.36C161.61 397.699 160.767 397.248 159.849 397.066C158.932 396.883 157.981 396.977 157.117 397.335C156.253 397.693 155.514 398.299 154.994 399.077C154.475 399.854 154.197 400.769 154.197 401.704C154.202 402.957 154.702 404.157 155.588 405.043C156.474 405.929 157.674 406.429 158.927 406.434Z" stroke="white" stroke-opacity="0.5" stroke-width="2" stroke-miterlimit="10"/>
<path d="M173.432 445.901C174.368 445.903 175.284 445.627 176.063 445.108C176.842 444.589 177.45 443.85 177.809 442.985C178.168 442.121 178.262 441.169 178.08 440.251C177.898 439.333 177.447 438.489 176.785 437.827C176.123 437.165 175.28 436.714 174.361 436.532C173.443 436.35 172.491 436.444 171.627 436.804C170.762 437.163 170.024 437.77 169.505 438.549C168.986 439.329 168.71 440.244 168.711 441.18C168.714 442.432 169.212 443.631 170.097 444.516C170.981 445.4 172.181 445.898 173.432 445.901Z" stroke="white" stroke-opacity="0.5" stroke-width="2" stroke-miterlimit="10"/>
<path d="M173.432 460.289C174.368 460.291 175.283 460.015 176.062 459.496C176.841 458.977 177.448 458.239 177.808 457.375C178.167 456.511 178.262 455.56 178.081 454.642C177.899 453.724 177.449 452.881 176.788 452.218C176.127 451.556 175.285 451.104 174.367 450.921C173.449 450.738 172.498 450.831 171.633 451.189C170.768 451.547 170.029 452.153 169.509 452.931C168.989 453.709 168.711 454.623 168.711 455.559C168.716 456.811 169.215 458.009 170.099 458.895C170.983 459.781 172.181 460.282 173.432 460.289Z" stroke="white" stroke-opacity="0.5" stroke-width="2" stroke-miterlimit="10"/>
<path fill-rule="evenodd" clip-rule="evenodd" d="M158.927 460.289C159.862 460.289 160.776 460.011 161.554 459.492C162.332 458.972 162.938 458.233 163.296 457.369C163.654 456.505 163.748 455.554 163.565 454.637C163.383 453.719 162.932 452.876 162.271 452.215C161.61 451.554 160.767 451.103 159.849 450.921C158.932 450.738 157.981 450.832 157.117 451.19C156.253 451.548 155.514 452.154 154.994 452.932C154.475 453.709 154.197 454.624 154.197 455.559C154.2 456.813 154.699 458.014 155.585 458.901C156.471 459.787 157.673 460.286 158.927 460.289Z" fill="white"/>
<path d="M160.999 458.66C160.386 459.07 159.665 459.289 158.928 459.289C157.939 459.287 156.991 458.893 156.292 458.194C155.593 457.495 155.199 456.547 155.197 455.558C155.197 454.821 155.416 454.1 155.826 453.487C156.235 452.874 156.818 452.396 157.499 452.114C158.181 451.831 158.931 451.757 159.654 451.901C160.378 452.045 161.042 452.4 161.564 452.922C162.085 453.444 162.441 454.108 162.585 454.832C162.728 455.555 162.655 456.305 162.372 456.986C162.09 457.668 161.612 458.25 160.999 458.66Z" stroke="white" stroke-opacity="0.5" stroke-width="2"/>
<path d="M158.927 445.901C159.862 445.901 160.777 445.623 161.555 445.103C162.333 444.583 162.939 443.844 163.297 442.979C163.655 442.114 163.748 441.163 163.565 440.245C163.381 439.328 162.93 438.485 162.268 437.824C161.605 437.163 160.762 436.713 159.844 436.532C158.926 436.35 157.975 436.445 157.11 436.804C156.246 437.164 155.508 437.771 154.99 438.55C154.471 439.329 154.195 440.245 154.197 441.18C154.197 441.801 154.32 442.416 154.557 442.989C154.795 443.562 155.144 444.083 155.583 444.521C156.022 444.96 156.544 445.307 157.117 445.544C157.691 445.781 158.306 445.902 158.927 445.901Z" stroke="white" stroke-opacity="0.5" stroke-width="2" stroke-miterlimit="10"/>
<path d="M231.148 390.56H213.553V406.198H231.148V390.56Z" stroke="white" stroke-opacity="0.5" stroke-width="2" stroke-miterlimit="10"/>
<path d="M216.841 387.733C216.841 386.272 217.422 384.871 218.455 383.838C219.488 382.805 220.889 382.224 222.35 382.224C223.811 382.224 225.212 382.805 226.245 383.838C227.278 384.871 227.859 386.272 227.859 387.733" stroke="white" stroke-opacity="0.5" stroke-width="2" stroke-miterlimit="10"/>
<path d="M216.841 387.733V390.56" stroke="white" stroke-opacity="0.5" stroke-width="2" stroke-miterlimit="10"/>
<path d="M227.859 387.733V390.56" stroke="white" stroke-opacity="0.5" stroke-width="2" stroke-miterlimit="10"/>
<path fill-rule="evenodd" clip-rule="evenodd" d="M222.357 394.465C222.714 394.467 223.06 394.59 223.337 394.814C223.615 395.038 223.809 395.349 223.887 395.698C223.964 396.046 223.922 396.41 223.766 396.731C223.61 397.052 223.35 397.31 223.028 397.464L223.852 402.293H220.871L221.669 397.464C221.399 397.334 221.171 397.131 221.011 396.878C220.851 396.625 220.765 396.332 220.763 396.032C220.763 395.825 220.804 395.62 220.884 395.428C220.964 395.237 221.081 395.063 221.228 394.918C221.376 394.772 221.551 394.657 221.743 394.579C221.935 394.501 222.141 394.463 222.348 394.465H222.357Z" fill="white"/>
<path d="M222.353 399.456L222.667 401.293H222.05L222.353 399.456ZM222.597 396.562L222.347 396.681L222.104 396.564C222.002 396.515 221.916 396.438 221.856 396.343C221.797 396.249 221.764 396.14 221.763 396.029C221.763 395.955 221.778 395.882 221.806 395.814C221.835 395.744 221.878 395.682 221.931 395.629C221.985 395.576 222.048 395.534 222.117 395.506C222.187 395.478 222.262 395.464 222.337 395.465L222.337 395.465H222.348H222.354C222.483 395.466 222.609 395.511 222.71 395.593C222.811 395.674 222.882 395.788 222.911 395.916C222.939 396.043 222.924 396.176 222.867 396.294C222.81 396.411 222.714 396.505 222.597 396.562Z" stroke="white" stroke-opacity="0.5" stroke-width="2"/>
<path d="M285.156 384.961H281.124V403.58H285.156V384.961Z" stroke="white" stroke-opacity="0.5" stroke-width="2" stroke-miterlimit="10"/>
<path d="M293.89 384.961H289.859V403.58H293.89V384.961Z" stroke="white" stroke-opacity="0.5" stroke-width="2" stroke-miterlimit="10"/>
<path d="M357.683 411.154C360.951 411.158 364.146 410.192 366.865 408.379C369.583 406.567 371.703 403.988 372.956 400.971C374.209 397.953 374.539 394.631 373.903 391.426C373.268 388.221 371.696 385.276 369.387 382.964C367.078 380.653 364.135 379.078 360.93 378.439C357.726 377.8 354.404 378.126 351.385 379.376C348.366 380.625 345.785 382.742 343.969 385.459C342.154 388.176 341.184 391.37 341.184 394.637C341.194 399.015 342.937 403.211 346.033 406.306C349.128 409.401 353.324 411.145 357.701 411.154H357.683Z" stroke="white" stroke-opacity="0.5" stroke-width="2" stroke-miterlimit="10"/>
<path d="M357.684 383.502V405.791" stroke="white" stroke-opacity="0.5" stroke-width="2" stroke-miterlimit="10"/>
<path d="M429.071 396.286C430.222 397.441 430.867 399.005 430.864 400.636C430.862 402.266 430.212 403.829 429.057 404.98C427.902 406.131 426.338 406.776 424.707 406.773C423.077 406.771 421.515 406.121 420.364 404.966L429.071 396.286Z" stroke="white" stroke-opacity="0.5" stroke-width="2" stroke-miterlimit="10"/>
<path d="M429.07 396.286C430.221 395.135 431.782 394.489 433.41 394.489C434.216 394.489 435.014 394.647 435.759 394.956C436.503 395.264 437.18 395.716 437.75 396.286C438.32 396.856 438.772 397.533 439.08 398.277C439.389 399.022 439.548 399.82 439.548 400.626C439.548 401.432 439.389 402.23 439.08 402.975C438.772 403.72 438.32 404.396 437.75 404.966L429.07 396.286Z" stroke="white" stroke-opacity="0.5" stroke-width="2" stroke-miterlimit="10"/>
<path d="M429.07 396.286C427.919 395.135 427.272 393.574 427.272 391.946C427.272 390.318 427.919 388.757 429.07 387.606C430.221 386.455 431.782 385.809 433.41 385.809C435.037 385.809 436.599 386.455 437.75 387.606L429.07 396.286Z" stroke="white" stroke-opacity="0.5" stroke-width="2" stroke-miterlimit="10"/>
<path fill-rule="evenodd" clip-rule="evenodd" d="M423.945 392.227C424.162 392.227 424.375 392.162 424.555 392.041C424.736 391.92 424.877 391.747 424.959 391.546C425.041 391.345 425.062 391.123 425.018 390.91C424.974 390.697 424.868 390.502 424.713 390.349C424.558 390.197 424.361 390.094 424.147 390.053C423.933 390.013 423.712 390.038 423.512 390.123C423.312 390.209 423.142 390.352 423.024 390.535C422.906 390.718 422.845 390.931 422.848 391.149C422.848 391.292 422.877 391.434 422.932 391.566C422.987 391.698 423.068 391.817 423.17 391.918C423.272 392.018 423.393 392.097 423.526 392.15C423.659 392.203 423.801 392.23 423.945 392.227Z" fill="white"/>
<path d="M423.944 391.227L423.936 391.227L423.928 391.227C423.917 391.227 423.907 391.226 423.897 391.222C423.888 391.218 423.879 391.212 423.872 391.205C423.864 391.198 423.858 391.189 423.854 391.179C423.85 391.17 423.848 391.159 423.848 391.149L423.848 391.141L423.848 391.132C423.848 391.113 423.853 391.095 423.864 391.079C423.874 391.062 423.889 391.05 423.906 391.042C423.924 391.035 423.943 391.033 423.962 391.036C423.981 391.04 423.998 391.049 424.012 391.062C424.026 391.076 424.035 391.093 424.039 391.111C424.043 391.13 424.041 391.15 424.033 391.167C424.026 391.185 424.014 391.2 423.998 391.211C423.982 391.221 423.964 391.227 423.944 391.227Z" stroke="white" stroke-opacity="0.5" stroke-width="2"/>
<path d="M413.777 393.251C414.398 390.129 415.962 387.274 418.258 385.07C420.554 382.866 423.471 381.421 426.616 380.929" stroke="white" stroke-opacity="0.5" stroke-width="2" stroke-miterlimit="10"/>
<path d="M417.373 393.387C417.933 391.248 419.077 389.308 420.677 387.783C422.277 386.258 424.27 385.209 426.433 384.752" stroke="white" stroke-opacity="0.5" stroke-width="2" stroke-miterlimit="10"/>
<path d="M541.756 445.901C542.692 445.901 543.607 445.623 544.385 445.103C545.163 444.583 545.769 443.844 546.126 442.979C546.484 442.114 546.577 441.163 546.394 440.245C546.211 439.328 545.76 438.485 545.097 437.824C544.435 437.163 543.591 436.713 542.673 436.532C541.755 436.35 540.804 436.445 539.94 436.804C539.076 437.164 538.338 437.771 537.819 438.55C537.301 439.329 537.025 440.245 537.027 441.18C537.029 442.433 537.528 443.634 538.415 444.519C539.302 445.404 540.503 445.901 541.756 445.901Z" stroke="white" stroke-opacity="0.5" stroke-width="2" stroke-miterlimit="10"/>
<path d="M541.756 460.289C542.692 460.289 543.606 460.011 544.384 459.492C545.161 458.972 545.768 458.233 546.126 457.369C546.484 456.505 546.577 455.554 546.395 454.637C546.212 453.719 545.762 452.876 545.1 452.215C544.439 451.554 543.596 451.103 542.679 450.921C541.761 450.738 540.81 450.832 539.946 451.19C539.082 451.548 538.343 452.154 537.824 452.932C537.304 453.709 537.027 454.624 537.027 455.559C537.031 456.812 537.531 458.012 538.417 458.898C539.303 459.784 540.503 460.284 541.756 460.289Z" stroke="white" stroke-opacity="0.5" stroke-width="2" stroke-miterlimit="10"/>
<path fill-rule="evenodd" clip-rule="evenodd" d="M556.27 460.289C557.206 460.289 558.12 460.011 558.898 459.492C559.676 458.972 560.282 458.233 560.64 457.369C560.998 456.505 561.092 455.554 560.909 454.637C560.727 453.719 560.276 452.876 559.615 452.215C558.953 451.554 558.111 451.103 557.193 450.921C556.276 450.738 555.325 450.832 554.461 451.19C553.596 451.548 552.858 452.154 552.338 452.932C551.818 453.709 551.541 454.624 551.541 455.559C551.543 456.813 552.042 458.014 552.929 458.901C553.815 459.787 555.017 460.286 556.27 460.289Z" fill="white"/>
<path d="M558.342 458.66C557.729 459.07 557.009 459.289 556.271 459.289C555.283 459.287 554.335 458.893 553.636 458.194C552.937 457.495 552.543 456.547 552.541 455.558C552.541 454.821 552.76 454.1 553.169 453.487C553.579 452.874 554.162 452.396 554.843 452.114C555.525 451.831 556.275 451.757 556.998 451.901C557.721 452.045 558.386 452.4 558.908 452.922C559.429 453.444 559.784 454.108 559.928 454.832C560.072 455.555 559.998 456.305 559.716 456.986C559.434 457.668 558.956 458.25 558.342 458.66Z" stroke="white" stroke-opacity="0.5" stroke-width="2"/>
<path d="M556.27 445.901C557.206 445.901 558.121 445.623 558.899 445.103C559.677 444.583 560.283 443.844 560.641 442.979C560.999 442.114 561.092 441.163 560.908 440.245C560.725 439.328 560.274 438.485 559.612 437.824C558.949 437.163 558.106 436.713 557.188 436.532C556.27 436.35 555.318 436.445 554.454 436.804C553.59 437.164 552.852 437.771 552.334 438.55C551.815 439.329 551.539 440.245 551.541 441.18C551.541 441.801 551.663 442.416 551.901 442.989C552.139 443.562 552.487 444.083 552.927 444.521C553.366 444.96 553.887 445.307 554.461 445.544C555.035 445.781 555.65 445.902 556.27 445.901Z" stroke="white" stroke-opacity="0.5" stroke-width="2" stroke-miterlimit="10"/>
<path d="M541.756 406.506C542.692 406.506 543.606 406.229 544.384 405.709C545.161 405.19 545.768 404.451 546.126 403.587C546.484 402.722 546.577 401.772 546.395 400.854C546.212 399.937 545.762 399.094 545.1 398.433C544.439 397.771 543.596 397.321 542.679 397.138C541.761 396.956 540.81 397.049 539.946 397.407C539.082 397.765 538.343 398.371 537.824 399.149C537.304 399.927 537.027 400.841 537.027 401.777C537.027 403.031 537.525 404.234 538.412 405.121C539.299 406.008 540.502 406.506 541.756 406.506Z" stroke="white" stroke-opacity="0.5" stroke-width="2" stroke-miterlimit="10"/>
<path d="M541.756 392.146C542.692 392.146 543.607 391.868 544.385 391.348C545.163 390.828 545.769 390.089 546.126 389.224C546.484 388.359 546.577 387.408 546.394 386.49C546.211 385.572 545.76 384.73 545.097 384.069C544.435 383.408 543.591 382.958 542.673 382.776C541.755 382.595 540.804 382.69 539.94 383.049C539.076 383.409 538.338 384.016 537.819 384.795C537.301 385.574 537.025 386.489 537.027 387.425C537.034 388.676 537.535 389.874 538.42 390.758C539.306 391.642 540.505 392.141 541.756 392.146Z" stroke="white" stroke-opacity="0.5" stroke-width="2" stroke-miterlimit="10"/>
<path fill-rule="evenodd" clip-rule="evenodd" d="M556.27 392.146C557.206 392.146 558.121 391.868 558.899 391.348C559.677 390.828 560.283 390.089 560.641 389.224C560.999 388.359 561.092 387.408 560.908 386.49C560.725 385.572 560.274 384.73 559.612 384.069C558.949 383.408 558.106 382.958 557.188 382.776C556.27 382.595 555.318 382.69 554.454 383.049C553.59 383.409 552.852 384.016 552.334 384.795C551.815 385.574 551.539 386.489 551.541 387.425C551.546 388.677 552.046 389.876 552.932 390.761C553.818 391.645 555.018 392.143 556.27 392.146Z" fill="white"/>
<path d="M558.343 390.517C557.73 390.927 557.009 391.145 556.271 391.146C555.284 391.143 554.337 390.751 553.638 390.053C552.939 389.356 552.545 388.41 552.541 387.422C552.54 386.685 552.757 385.963 553.166 385.349C553.575 384.735 554.157 384.256 554.838 383.972C555.52 383.689 556.27 383.614 556.994 383.757C557.718 383.9 558.383 384.255 558.905 384.776C559.427 385.298 559.783 385.962 559.928 386.686C560.072 387.41 559.999 388.16 559.717 388.842C559.435 389.524 558.957 390.106 558.343 390.517Z" stroke="white" stroke-opacity="0.5" stroke-width="2"/>
<path d="M556.27 406.506C557.206 406.506 558.12 406.229 558.898 405.709C559.676 405.19 560.282 404.451 560.64 403.587C560.998 402.722 561.092 401.772 560.909 400.854C560.727 399.937 560.276 399.094 559.615 398.433C558.953 397.771 558.111 397.321 557.193 397.138C556.276 396.956 555.325 397.049 554.461 397.407C553.596 397.765 552.858 398.371 552.338 399.149C551.818 399.927 551.541 400.841 551.541 401.777C551.541 402.398 551.663 403.013 551.901 403.587C552.139 404.161 552.487 404.682 552.926 405.121C553.365 405.56 553.887 405.909 554.461 406.146C555.034 406.384 555.649 406.506 556.27 406.506Z" stroke="white" stroke-opacity="0.5" stroke-width="2" stroke-miterlimit="10"/>
<path d="M478.848 450.766H470.812V460.397H478.848V450.766Z" fill="white"/>
<path d="M471.812 451.766H477.848V459.397H471.812V451.766Z" stroke="white" stroke-opacity="0.5" stroke-width="2"/>
<path d="M465.367 451.609H459.079V460.388H465.367V451.609Z" fill="white"/>
<path d="M460.079 452.609H464.367V459.388H460.079V452.609Z" stroke="white" stroke-opacity="0.5" stroke-width="2"/>
<path d="M454.566 452.406H449.067V460.397H454.566V452.406Z" fill="white"/>
<path d="M450.067 453.406H453.566V459.397H450.067V453.406Z" stroke="white" stroke-opacity="0.5" stroke-width="2"/>
<path d="M443.666 452.406H438.891V460.397H443.666V452.406Z" fill="white"/>
<path d="M439.891 453.406H442.666V459.397H439.891V453.406Z" stroke="white" stroke-opacity="0.5" stroke-width="2"/>
<path d="M432.984 452.406H428.182V460.397H432.984V452.406Z" fill="white"/>
<path d="M429.182 453.406H431.984V459.397H429.182V453.406Z" stroke="white" stroke-opacity="0.5" stroke-width="2"/>
<path d="M422.791 453.412H417.989V460.397H422.791V453.412Z" fill="white"/>
<path d="M418.989 454.412H421.791V459.397H418.989V454.412Z" stroke="white" stroke-opacity="0.5" stroke-width="2"/>
<path d="M412.771 453.412H407.969V460.397H412.771V453.412Z" fill="white"/>
<path d="M408.969 454.412H411.771V459.397H408.969V454.412Z" stroke="white" stroke-opacity="0.5" stroke-width="2"/>
<path d="M402.831 453.412H398.056V460.397H402.831V453.412Z" fill="white"/>
<path d="M399.056 454.412H401.831V459.397H399.056V454.412Z" stroke="white" stroke-opacity="0.5" stroke-width="2"/>
<path d="M392.837 454.227H389.141V460.388H392.837V454.227Z" fill="white"/>
<path d="M390.141 455.227H391.837V459.388H390.141V455.227Z" stroke="white" stroke-opacity="0.5" stroke-width="2"/>
<path d="M382.898 454.227H379.174V460.388H382.898V454.227Z" fill="white"/>
<path d="M380.174 455.227H381.898V459.388H380.174V455.227Z" stroke="white" stroke-opacity="0.5" stroke-width="2"/>
<path d="M372.065 454.227H368.341V460.388H372.065V454.227Z" fill="white"/>
<path d="M369.341 455.227H371.065V459.388H369.341V455.227Z" stroke="white" stroke-opacity="0.5" stroke-width="2"/>
<path d="M362.08 454.227H358.357V460.388H362.08V454.227Z" fill="white"/>
<path d="M359.357 455.227H361.08V459.388H359.357V455.227Z" stroke="white" stroke-opacity="0.5" stroke-width="2"/>
<path d="M351.261 455.179H347.537V460.388H351.261V455.179Z" fill="white"/>
<path d="M348.537 456.179H350.261V459.388H348.537V456.179Z" stroke="white" stroke-opacity="0.5" stroke-width="2"/>
<path d="M341.249 455.179H337.525V460.388H341.249V455.179Z" fill="white"/>
<path d="M338.525 456.179H340.249V459.388H338.525V456.179Z" stroke="white" stroke-opacity="0.5" stroke-width="2"/>
<path d="M331.254 455.179H327.53V460.388H331.254V455.179Z" fill="white"/>
<path d="M328.53 456.179H330.254V459.388H328.53V456.179Z" stroke="white" stroke-opacity="0.5" stroke-width="2"/>
<path d="M321.263 456.076H317.539V460.388H321.263V456.076Z" fill="white"/>
<path d="M318.539 457.076H320.263V459.388H318.539V457.076Z" stroke="white" stroke-opacity="0.5" stroke-width="2"/>
<path d="M311.306 456.076H308.606V460.388H311.306V456.076Z" fill="white"/>
<path d="M309.606 457.076H310.306V459.388H309.606V457.076Z" stroke="white" stroke-opacity="0.5" stroke-width="2"/>
<path d="M301.364 456.076H298.664V460.388H301.364V456.076Z" fill="white"/>
<path d="M299.664 457.076H300.364V459.388H299.664V457.076Z" stroke="white" stroke-opacity="0.5" stroke-width="2"/>
<path d="M292.322 457H289.622V460.388H292.322V457Z" fill="white"/>
<path d="M290.622 458H291.322V459.388H290.622V458Z" stroke="white" stroke-opacity="0.5" stroke-width="2"/>
<path d="M283.18 457H280.48V460.388H283.18V457Z" fill="white"/>
<path d="M281.48 458H282.18V459.388H281.48V458Z" stroke="white" stroke-opacity="0.5" stroke-width="2"/>
<mask id="path-94-inside-1_3853_93" fill="white">
<path d="M273.341 457H271.465V460.388H273.341V457Z"/>
</mask>
<path d="M273.341 457H271.465V460.388H273.341V457Z" fill="white"/>
<path d="M271.465 457V455H269.465V457H271.465ZM273.341 457H275.341V455H273.341V457ZM273.341 460.388V462.388H275.341V460.388H273.341ZM271.465 460.388H269.465V462.388H271.465V460.388ZM271.465 459H273.341V455H271.465V459ZM271.341 457V460.388H275.341V457H271.341ZM273.341 458.388H271.465V462.388H273.341V458.388ZM273.465 460.388V457H269.465V460.388H273.465Z" fill="white" fill-opacity="0.5" mask="url(#path-94-inside-1_3853_93)"/>
<mask id="path-96-inside-2_3853_93" fill="white">
<path d="M264.245 457H262.37V460.388H264.245V457Z"/>
</mask>
<path d="M264.245 457H262.37V460.388H264.245V457Z" fill="white"/>
<path d="M262.37 457V455H260.37V457H262.37ZM264.245 457H266.245V455H264.245V457ZM264.245 460.388V462.388H266.245V460.388H264.245ZM262.37 460.388H260.37V462.388H262.37V460.388ZM262.37 459H264.245V455H262.37V459ZM262.245 457V460.388H266.245V457H262.245ZM264.245 458.388H262.37V462.388H264.245V458.388ZM264.37 460.388V457H260.37V460.388H264.37Z" fill="white" fill-opacity="0.5" mask="url(#path-96-inside-2_3853_93)"/>
<mask id="path-98-inside-3_3853_93" fill="white">
<path d="M255.213 457H253.338V460.388H255.213V457Z"/>
</mask>
<path d="M255.213 457H253.338V460.388H255.213V457Z" fill="white"/>
<path d="M253.338 457V455H251.338V457H253.338ZM255.213 457H257.213V455H255.213V457ZM255.213 460.388V462.388H257.213V460.388H255.213ZM253.338 460.388H251.338V462.388H253.338V460.388ZM253.338 459H255.213V455H253.338V459ZM253.213 457V460.388H257.213V457H253.213ZM255.213 458.388H253.338V462.388H255.213V458.388ZM255.338 460.388V457H251.338V460.388H255.338Z" fill="white" fill-opacity="0.5" mask="url(#path-98-inside-3_3853_93)"/>
<mask id="path-100-inside-4_3853_93" fill="white">
<path d="M247.013 457.933H245.137V460.397H247.013V457.933Z"/>
</mask>
<path d="M247.013 457.933H245.137V460.397H247.013V457.933Z" fill="white"/>
<path d="M245.137 457.933V455.933H243.137V457.933H245.137ZM247.013 457.933H249.013V455.933H247.013V457.933ZM247.013 460.397V462.397H249.013V460.397H247.013ZM245.137 460.397H243.137V462.397H245.137V460.397ZM245.137 459.933H247.013V455.933H245.137V459.933ZM245.013 457.933V460.397H249.013V457.933H245.013ZM247.013 458.397H245.137V462.397H247.013V458.397ZM247.137 460.397V457.933H243.137V460.397H247.137Z" fill="white" fill-opacity="0.5" mask="url(#path-100-inside-4_3853_93)"/>
<mask id="path-102-inside-5_3853_93" fill="white">
<path d="M237.998 457.933H236.123V460.397H237.998V457.933Z"/>
</mask>
<path d="M237.998 457.933H236.123V460.397H237.998V457.933Z" fill="white"/>
<path d="M236.123 457.933V455.933H234.123V457.933H236.123ZM237.998 457.933H239.998V455.933H237.998V457.933ZM237.998 460.397V462.397H239.998V460.397H237.998ZM236.123 460.397H234.123V462.397H236.123V460.397ZM236.123 459.933H237.998V455.933H236.123V459.933ZM235.998 457.933V460.397H239.998V457.933H235.998ZM237.998 458.397H236.123V462.397H237.998V458.397ZM238.123 460.397V457.933H234.123V460.397H238.123Z" fill="white" fill-opacity="0.5" mask="url(#path-102-inside-5_3853_93)"/>
<mask id="path-104-inside-6_3853_93" fill="white">
<path d="M228.91 457.933H227.986V460.397H228.91V457.933Z"/>
</mask>
<path d="M228.91 457.933H227.986V460.397H228.91V457.933Z" fill="white"/>
<path d="M227.986 457.933V455.933H225.986V457.933H227.986ZM228.91 457.933H230.91V455.933H228.91V457.933ZM228.91 460.397V462.397H230.91V460.397H228.91ZM227.986 460.397H225.986V462.397H227.986V460.397ZM227.986 459.933H228.91V455.933H227.986V459.933ZM226.91 457.933V460.397H230.91V457.933H226.91ZM228.91 458.397H227.986V462.397H228.91V458.397ZM229.986 460.397V457.933H225.986V460.397H229.986Z" fill="white" fill-opacity="0.5" mask="url(#path-104-inside-6_3853_93)"/>
<mask id="path-106-inside-7_3853_93" fill="white">
<path d="M220.763 458.83H219.839V460.397H220.763V458.83Z"/>
</mask>
<path d="M220.763 458.83H219.839V460.397H220.763V458.83Z" fill="white"/>
<path d="M219.839 458.83V456.83H217.839V458.83H219.839ZM220.763 458.83H222.763V456.83H220.763V458.83ZM220.763 460.397V462.397H222.763V460.397H220.763ZM219.839 460.397H217.839V462.397H219.839V460.397ZM219.839 460.83H220.763V456.83H219.839V460.83ZM218.763 458.83V460.397H222.763V458.83H218.763ZM220.763 458.397H219.839V462.397H220.763V458.397ZM221.839 460.397V458.83H217.839V460.397H221.839Z" fill="white" fill-opacity="0.5" mask="url(#path-106-inside-7_3853_93)"/>
<path d="M485.204 451.757H494.454C494.403 452.02 494.377 452.287 494.375 452.557C494.362 453.251 494.511 453.938 494.81 454.565C495.111 455.193 495.555 455.743 496.107 456.169C496.66 456.595 497.304 456.885 497.989 457.016C498.673 457.147 499.379 457.116 500.05 456.924C500.72 456.733 501.336 456.386 501.848 455.913C502.36 455.44 502.754 454.853 502.998 454.2C503.241 453.547 503.328 452.846 503.251 452.153C503.237 452.02 503.216 451.888 503.189 451.757H504.342V459.388H485.204V451.757Z" stroke="#9E0900" stroke-width="2"/>
<path d="M498.835 436.378C499.583 436.383 500.299 436.682 500.828 437.212C501.357 437.741 501.657 438.457 501.662 439.205V450.63C502.064 451.2 502.279 451.881 502.278 452.578C502.278 453.494 501.914 454.372 501.267 455.019C500.619 455.667 499.741 456.03 498.826 456.03C497.91 456.03 497.032 455.667 496.385 455.019C495.737 454.372 495.374 453.494 495.374 452.578C495.37 451.878 495.592 451.194 496.008 450.63V439.205C496.008 438.455 496.306 437.736 496.836 437.206C497.366 436.676 498.085 436.378 498.835 436.378Z" stroke="#9E0900" stroke-width="2" stroke-miterlimit="10"/>
<path fill-rule="evenodd" clip-rule="evenodd" d="M499.689 451.582C499.842 451.699 499.965 451.85 500.05 452.023C500.134 452.196 500.178 452.386 500.178 452.578C500.178 452.934 500.037 453.275 499.786 453.527C499.534 453.778 499.193 453.919 498.838 453.919C498.563 453.926 498.294 453.848 498.065 453.696C497.837 453.544 497.662 453.325 497.562 453.069C497.463 452.813 497.445 452.533 497.512 452.267C497.578 452.001 497.724 451.761 497.932 451.582V439.332C497.932 439.092 498.027 438.861 498.197 438.691C498.367 438.521 498.597 438.426 498.838 438.426C499.068 438.44 499.285 438.541 499.443 438.71C499.602 438.878 499.69 439.101 499.689 439.332V451.582Z" stroke="#9E0900" stroke-miterlimit="10"/>
<path d="M485.736 446.934L489.442 443.237L493.166 446.934" stroke="#9E0900" stroke-width="2" stroke-miterlimit="10"/>
<path d="M485.736 442.875L489.442 439.151L493.166 442.875" stroke="#9E0900" stroke-width="2" stroke-miterlimit="10"/>
<path d="M216.407 449.625C216.362 448.464 216.509 447.304 216.842 446.191C217.065 445.409 217.512 444.71 218.128 444.179C218.747 443.688 219.522 443.434 220.312 443.464C220.903 443.448 221.487 443.588 222.006 443.871C222.495 444.132 222.909 444.512 223.211 444.977C223.549 445.539 223.8 446.15 223.954 446.789C224.164 447.722 224.259 448.677 224.235 449.634C224.265 450.788 224.118 451.94 223.8 453.049C223.559 453.83 223.104 454.527 222.486 455.061C221.872 455.554 221.099 455.809 220.312 455.777C219.794 455.799 219.278 455.699 218.806 455.485C218.334 455.271 217.918 454.949 217.594 454.544C216.796 453.512 216.416 451.899 216.416 449.634L216.407 449.625ZM217.893 449.625C217.893 451.609 218.128 452.914 218.59 453.584C218.766 453.883 219.017 454.13 219.319 454.302C219.62 454.474 219.96 454.565 220.307 454.565C220.654 454.565 220.995 454.474 221.296 454.302C221.597 454.13 221.848 453.883 222.024 453.584C222.486 452.914 222.722 451.609 222.722 449.625C222.722 447.64 222.486 446.345 222.024 445.674C221.838 445.38 221.582 445.136 221.278 444.965C220.974 444.795 220.633 444.702 220.285 444.696C219.959 444.692 219.637 444.774 219.353 444.933C219.068 445.092 218.83 445.322 218.663 445.602C218.146 446.318 217.893 447.677 217.893 449.652V449.625Z" fill="white"/>
<path d="M216.893 449.652C216.893 449.647 216.893 449.643 216.893 449.639C216.893 449.637 216.893 449.635 216.893 449.634L216.893 449.652ZM216.893 449.652H216.893M216.893 449.652H216.893M216.893 449.652C216.894 450.666 216.954 451.543 217.084 452.272C217.209 452.98 217.412 453.622 217.747 454.122M216.893 449.652L217.594 454.544L217.876 454.318M216.893 449.652H217.416C217.418 451.69 217.746 452.987 218.27 453.773M216.893 449.652L218.59 453.584L218.27 453.773M217.747 454.122C217.787 454.189 217.83 454.254 217.876 454.318M217.747 454.122C217.753 454.132 217.76 454.142 217.767 454.152L218.285 453.795C218.28 453.787 218.275 453.78 218.27 453.773M217.747 454.122C217.741 454.112 217.735 454.102 217.729 454.092L218.27 453.773M217.876 454.318L218.373 453.918C218.375 453.92 218.377 453.923 218.379 453.926L217.88 454.323C217.879 454.321 217.877 454.319 217.876 454.318Z" stroke="white" stroke-opacity="0.5" stroke-width="2"/>
<mask id="path-115-inside-8_3853_93" fill="white">
<path d="M296.073 450.585L297.532 450.377C297.641 451.059 297.958 451.692 298.438 452.189C298.85 452.546 299.38 452.737 299.924 452.723C300.255 452.73 300.584 452.669 300.891 452.544C301.198 452.419 301.477 452.233 301.71 451.998C301.943 451.762 302.125 451.482 302.247 451.174C302.368 450.865 302.426 450.536 302.416 450.205C302.424 449.896 302.369 449.588 302.254 449.301C302.138 449.015 301.965 448.755 301.745 448.537C301.523 448.317 301.258 448.145 300.967 448.031C300.675 447.918 300.364 447.865 300.051 447.876C299.694 447.883 299.34 447.941 299 448.048L299.181 446.743C299.256 446.754 299.333 446.754 299.408 446.743C300.01 446.761 300.602 446.59 301.102 446.254C301.353 446.092 301.557 445.868 301.694 445.602C301.831 445.336 301.895 445.04 301.881 444.741C301.888 444.486 301.84 444.232 301.742 443.996C301.644 443.76 301.497 443.548 301.31 443.373C300.924 443.025 300.416 442.843 299.897 442.866C299.368 442.848 298.853 443.04 298.465 443.4C298.006 443.871 297.732 444.492 297.695 445.149L296.237 444.859C296.372 443.971 296.807 443.156 297.469 442.549C298.14 442.002 298.987 441.719 299.852 441.751C300.48 441.743 301.102 441.886 301.664 442.168C302.192 442.423 302.638 442.822 302.95 443.319C303.229 443.785 303.379 444.316 303.385 444.859C303.385 445.36 303.24 445.851 302.968 446.272C302.653 446.724 302.221 447.081 301.718 447.305C302.382 447.428 302.976 447.793 303.385 448.329C303.786 448.891 303.993 449.569 303.974 450.259C303.982 450.76 303.883 451.257 303.683 451.717C303.483 452.176 303.187 452.587 302.814 452.923C302.43 453.292 301.975 453.581 301.477 453.77C300.979 453.96 300.448 454.048 299.915 454.028C298.95 454.076 298.003 453.752 297.269 453.122C296.577 452.492 296.155 451.619 296.092 450.685L296.073 450.585Z"/>
</mask>
<path d="M296.073 450.585L297.532 450.377C297.641 451.059 297.958 451.692 298.438 452.189C298.85 452.546 299.38 452.737 299.924 452.723C300.255 452.73 300.584 452.669 300.891 452.544C301.198 452.419 301.477 452.233 301.71 451.998C301.943 451.762 302.125 451.482 302.247 451.174C302.368 450.865 302.426 450.536 302.416 450.205C302.424 449.896 302.369 449.588 302.254 449.301C302.138 449.015 301.965 448.755 301.745 448.537C301.523 448.317 301.258 448.145 300.967 448.031C300.675 447.918 300.364 447.865 300.051 447.876C299.694 447.883 299.34 447.941 299 448.048L299.181 446.743C299.256 446.754 299.333 446.754 299.408 446.743C300.01 446.761 300.602 446.59 301.102 446.254C301.353 446.092 301.557 445.868 301.694 445.602C301.831 445.336 301.895 445.04 301.881 444.741C301.888 444.486 301.84 444.232 301.742 443.996C301.644 443.76 301.497 443.548 301.31 443.373C300.924 443.025 300.416 442.843 299.897 442.866C299.368 442.848 298.853 443.04 298.465 443.4C298.006 443.871 297.732 444.492 297.695 445.149L296.237 444.859C296.372 443.971 296.807 443.156 297.469 442.549C298.14 442.002 298.987 441.719 299.852 441.751C300.48 441.743 301.102 441.886 301.664 442.168C302.192 442.423 302.638 442.822 302.95 443.319C303.229 443.785 303.379 444.316 303.385 444.859C303.385 445.36 303.24 445.851 302.968 446.272C302.653 446.724 302.221 447.081 301.718 447.305C302.382 447.428 302.976 447.793 303.385 448.329C303.786 448.891 303.993 449.569 303.974 450.259C303.982 450.76 303.883 451.257 303.683 451.717C303.483 452.176 303.187 452.587 302.814 452.923C302.43 453.292 301.975 453.581 301.477 453.77C300.979 453.96 300.448 454.048 299.915 454.028C298.95 454.076 298.003 453.752 297.269 453.122C296.577 452.492 296.155 451.619 296.092 450.685L296.073 450.585Z" fill="white"/>
<path d="M296.073 450.585L295.791 448.605L293.734 448.899L294.106 450.943L296.073 450.585ZM297.532 450.377L299.507 450.061L299.197 448.119L297.249 448.397L297.532 450.377ZM298.438 452.189L297.001 453.579L297.061 453.642L297.127 453.699L298.438 452.189ZM299.924 452.723L299.962 450.724L299.918 450.723L299.875 450.724L299.924 452.723ZM302.416 450.205L300.417 450.15L300.415 450.207L300.417 450.264L302.416 450.205ZM301.745 448.537L300.339 449.959L300.34 449.961L301.745 448.537ZM300.051 447.876L300.089 449.876L300.106 449.875L300.122 449.875L300.051 447.876ZM299 448.048L297.019 447.773L296.584 450.907L299.602 449.956L299 448.048ZM299.181 446.743L299.456 444.762L297.475 444.488L297.2 446.468L299.181 446.743ZM299.408 446.743L299.466 444.744L299.299 444.739L299.133 444.762L299.408 446.743ZM301.102 446.254L300.019 444.573L300.003 444.583L299.987 444.594L301.102 446.254ZM301.881 444.741L299.882 444.689L299.88 444.763L299.883 444.836L301.881 444.741ZM301.31 443.373L302.68 441.915L302.664 441.901L302.648 441.886L301.31 443.373ZM299.897 442.866L299.829 444.864L299.906 444.867L299.984 444.864L299.897 442.866ZM298.465 443.4L297.104 441.935L297.069 441.968L297.035 442.002L298.465 443.4ZM297.695 445.149L297.305 447.11L299.564 447.559L299.692 445.26L297.695 445.149ZM296.237 444.859L294.259 444.557L293.971 446.448L295.847 446.821L296.237 444.859ZM297.469 442.549L296.206 440.998L296.16 441.035L296.117 441.075L297.469 442.549ZM299.852 441.751L299.776 443.75L299.828 443.752L299.879 443.751L299.852 441.751ZM301.664 442.168L300.765 443.955L300.78 443.962L300.795 443.97L301.664 442.168ZM302.95 443.319L304.667 442.292L304.656 442.274L304.644 442.255L302.95 443.319ZM303.385 444.859L305.385 444.86L305.385 444.848L305.385 444.836L303.385 444.859ZM302.968 446.272L304.609 447.417L304.629 447.387L304.649 447.357L302.968 446.272ZM301.718 447.305L300.904 445.478L295.017 448.102L301.355 449.272L301.718 447.305ZM303.385 448.329L305.013 447.167L304.994 447.141L304.975 447.116L303.385 448.329ZM303.974 450.259L301.975 450.204L301.974 450.248L301.974 450.292L303.974 450.259ZM302.814 452.923L301.476 451.436L301.452 451.458L301.428 451.481L302.814 452.923ZM299.915 454.028L299.99 452.029L299.902 452.026L299.815 452.031L299.915 454.028ZM297.269 453.122L295.924 454.602L295.945 454.621L295.966 454.639L297.269 453.122ZM296.092 450.685L298.087 450.55L298.079 450.438L298.059 450.327L296.092 450.685ZM296.356 452.565L297.815 452.357L297.249 448.397L295.791 448.605L296.356 452.565ZM295.557 450.692C295.731 451.78 296.235 452.788 297.001 453.579L299.876 450.798C299.68 450.596 299.552 450.339 299.507 450.061L295.557 450.692ZM297.127 453.699C297.915 454.383 298.93 454.748 299.973 454.723L299.875 450.724C299.829 450.725 299.785 450.709 299.75 450.679L297.127 453.699ZM299.886 454.723C300.488 454.734 301.086 454.623 301.644 454.397L300.139 450.691C300.083 450.714 300.023 450.725 299.962 450.724L299.886 454.723ZM301.644 454.397C302.202 454.17 302.708 453.832 303.132 453.404L300.288 450.591C300.245 450.634 300.195 450.668 300.139 450.691L301.644 454.397ZM303.132 453.404C303.555 452.976 303.887 452.467 304.108 451.906L300.386 450.441C300.364 450.497 300.33 450.548 300.288 450.591L303.132 453.404ZM304.108 451.906C304.328 451.346 304.433 450.747 304.415 450.145L300.417 450.264C300.418 450.325 300.408 450.385 300.386 450.441L304.108 451.906ZM304.415 450.259C304.431 449.676 304.327 449.096 304.109 448.555L300.398 450.048C300.411 450.08 300.417 450.115 300.417 450.15L304.415 450.259ZM304.109 448.555C303.892 448.014 303.565 447.524 303.15 447.114L300.34 449.961C300.365 449.986 300.385 450.015 300.398 450.048L304.109 448.555ZM303.152 447.116C302.736 446.704 302.239 446.381 301.694 446.168L300.239 449.895C300.276 449.909 300.31 449.931 300.339 449.959L303.152 447.116ZM301.694 446.168C301.148 445.955 300.565 445.856 299.979 445.877L300.122 449.875C300.162 449.873 300.202 449.88 300.239 449.895L301.694 446.168ZM300.013 445.876C299.465 445.887 298.921 445.976 298.398 446.141L299.602 449.956C299.76 449.906 299.924 449.879 300.089 449.876L300.013 445.876ZM300.981 448.323L301.162 447.019L297.2 446.468L297.019 447.773L300.981 448.323ZM298.906 448.724C299.164 448.76 299.425 448.76 299.682 448.724L299.133 444.762C299.24 444.748 299.349 444.748 299.456 444.762L298.906 448.724ZM299.35 448.743C300.368 448.772 301.371 448.483 302.217 447.915L299.987 444.594C299.833 444.697 299.651 444.75 299.466 444.744L299.35 448.743ZM302.185 447.936C302.731 447.584 303.175 447.095 303.472 446.518L299.916 444.686C299.94 444.64 299.975 444.601 300.019 444.573L302.185 447.936ZM303.472 446.518C303.77 445.94 303.91 445.295 303.879 444.646L299.883 444.836C299.881 444.784 299.892 444.733 299.916 444.686L303.472 446.518ZM303.881 444.793C303.895 444.256 303.795 443.722 303.588 443.226L299.896 444.766C299.886 444.742 299.881 444.715 299.882 444.689L303.881 444.793ZM303.588 443.226C303.381 442.73 303.071 442.283 302.68 441.915L299.941 444.831C299.922 444.813 299.907 444.791 299.896 444.766L303.588 443.226ZM302.648 441.886C301.872 441.188 300.853 440.822 299.81 440.868L299.984 444.864C299.98 444.864 299.976 444.862 299.973 444.86L302.648 441.886ZM299.965 440.867C298.908 440.831 297.879 441.215 297.104 441.935L299.827 444.865C299.828 444.865 299.828 444.864 299.829 444.864L299.965 440.867ZM297.035 442.002C296.237 442.819 295.762 443.897 295.698 445.037L299.692 445.26C299.702 445.087 299.774 444.923 299.896 444.798L297.035 442.002ZM298.085 443.187L296.626 442.897L295.847 446.821L297.305 447.11L298.085 443.187ZM298.214 445.16C298.28 444.723 298.495 444.322 298.821 444.022L296.117 441.075C295.119 441.99 294.464 443.219 294.259 444.557L298.214 445.16ZM298.732 444.099C299.026 443.86 299.397 443.735 299.776 443.75L299.927 439.753C298.577 439.702 297.254 440.144 296.206 440.998L298.732 444.099ZM299.879 443.751C300.187 443.747 300.491 443.817 300.765 443.955L302.562 440.381C301.713 439.954 300.774 439.738 299.824 439.751L299.879 443.751ZM300.795 443.97C300.985 444.061 301.145 444.204 301.256 444.382L304.644 442.255C304.132 441.439 303.4 440.785 302.532 440.366L300.795 443.97ZM301.234 444.345C301.331 444.507 301.383 444.693 301.385 444.882L305.385 444.836C305.375 443.939 305.127 443.062 304.667 442.292L301.234 444.345ZM301.385 444.858C301.385 444.975 301.351 445.09 301.288 445.188L304.649 447.357C305.129 446.612 305.385 445.746 305.385 444.86L301.385 444.858ZM301.328 445.128C301.221 445.281 301.075 445.402 300.904 445.478L302.532 449.132C303.368 448.76 304.086 448.167 304.609 447.417L301.328 445.128ZM301.355 449.272C301.53 449.304 301.687 449.401 301.795 449.542L304.975 447.116C304.264 446.185 303.233 445.551 302.081 445.338L301.355 449.272ZM301.757 449.491C301.906 449.699 301.982 449.949 301.975 450.204L305.973 450.314C306.004 449.189 305.667 448.084 305.013 447.167L301.757 449.491ZM301.974 450.292C301.978 450.507 301.935 450.721 301.849 450.918L305.517 452.515C305.831 451.793 305.987 451.013 305.974 450.226L301.974 450.292ZM301.849 450.918C301.763 451.116 301.636 451.292 301.476 451.436L304.153 454.409C304.738 453.882 305.203 453.236 305.517 452.515L301.849 450.918ZM301.428 451.481C301.237 451.664 301.012 451.807 300.765 451.902L302.19 455.639C302.939 455.354 303.623 454.92 304.201 454.364L301.428 451.481ZM300.765 451.902C300.518 451.996 300.254 452.039 299.99 452.029L299.84 456.027C300.642 456.057 301.441 455.925 302.19 455.639L300.765 451.902ZM299.815 452.031C299.362 452.053 298.917 451.901 298.573 451.605L295.966 454.639C297.088 455.603 298.538 456.1 300.015 456.026L299.815 452.031ZM298.615 451.642C298.305 451.36 298.115 450.969 298.087 450.55L294.096 450.82C294.194 452.269 294.849 453.624 295.924 454.602L298.615 451.642ZM298.059 450.327L298.041 450.227L294.106 450.943L294.124 451.043L298.059 450.327Z" fill="white" fill-opacity="0.5" mask="url(#path-115-inside-8_3853_93)"/>
<mask id="path-117-inside-9_3853_93" fill="white">
<path d="M384.8 441.978L383.342 442.105C383.276 441.641 383.081 441.204 382.78 440.845C382.598 440.636 382.372 440.47 382.118 440.359C381.864 440.248 381.589 440.194 381.312 440.202C380.861 440.19 380.418 440.327 380.053 440.591C379.555 440.976 379.172 441.49 378.947 442.077C378.634 442.967 378.495 443.908 378.54 444.85C378.855 444.342 379.299 443.927 379.826 443.645C380.336 443.39 380.897 443.257 381.466 443.255C381.938 443.25 382.405 443.344 382.839 443.529C383.273 443.715 383.663 443.989 383.985 444.333C384.682 445.106 385.05 446.12 385.009 447.16C385.019 447.893 384.851 448.618 384.52 449.271C384.223 449.881 383.762 450.396 383.188 450.757C382.594 451.102 381.918 451.28 381.231 451.274C380.66 451.294 380.092 451.182 379.571 450.946C379.051 450.711 378.593 450.357 378.232 449.915C377.462 449.009 377.072 447.523 377.072 445.439C377.072 443.101 377.489 441.434 378.359 440.356C378.724 439.911 379.187 439.557 379.712 439.322C380.237 439.086 380.81 438.975 381.385 438.997C382.237 438.958 383.072 439.243 383.722 439.794C384.352 440.354 384.738 441.137 384.8 441.978ZM378.766 447.187C378.769 447.684 378.874 448.174 379.074 448.628C379.276 449.061 379.589 449.433 379.98 449.706C380.352 449.934 380.777 450.059 381.213 450.069C381.52 450.069 381.824 450.002 382.102 449.872C382.381 449.742 382.628 449.552 382.825 449.317C383.3 448.744 383.54 448.012 383.496 447.269C383.54 446.55 383.31 445.841 382.852 445.285C382.637 445.052 382.375 444.867 382.083 444.744C381.79 444.62 381.475 444.561 381.158 444.569C380.841 444.563 380.527 444.623 380.235 444.746C379.943 444.87 379.68 445.053 379.464 445.285C379.227 445.54 379.044 445.839 378.924 446.166C378.804 446.493 378.751 446.84 378.766 447.187Z"/>
</mask>
<path d="M384.8 441.978L383.342 442.105C383.276 441.641 383.081 441.204 382.78 440.845C382.598 440.636 382.372 440.47 382.118 440.359C381.864 440.248 381.589 440.194 381.312 440.202C380.861 440.19 380.418 440.327 380.053 440.591C379.555 440.976 379.172 441.49 378.947 442.077C378.634 442.967 378.495 443.908 378.54 444.85C378.855 444.342 379.299 443.927 379.826 443.645C380.336 443.39 380.897 443.257 381.466 443.255C381.938 443.25 382.405 443.344 382.839 443.529C383.273 443.715 383.663 443.989 383.985 444.333C384.682 445.106 385.05 446.12 385.009 447.16C385.019 447.893 384.851 448.618 384.52 449.271C384.223 449.881 383.762 450.396 383.188 450.757C382.594 451.102 381.918 451.28 381.231 451.274C380.66 451.294 380.092 451.182 379.571 450.946C379.051 450.711 378.593 450.357 378.232 449.915C377.462 449.009 377.072 447.523 377.072 445.439C377.072 443.101 377.489 441.434 378.359 440.356C378.724 439.911 379.187 439.557 379.712 439.322C380.237 439.086 380.81 438.975 381.385 438.997C382.237 438.958 383.072 439.243 383.722 439.794C384.352 440.354 384.738 441.137 384.8 441.978ZM378.766 447.187C378.769 447.684 378.874 448.174 379.074 448.628C379.276 449.061 379.589 449.433 379.98 449.706C380.352 449.934 380.777 450.059 381.213 450.069C381.52 450.069 381.824 450.002 382.102 449.872C382.381 449.742 382.628 449.552 382.825 449.317C383.3 448.744 383.54 448.012 383.496 447.269C383.54 446.55 383.31 445.841 382.852 445.285C382.637 445.052 382.375 444.867 382.083 444.744C381.79 444.62 381.475 444.561 381.158 444.569C380.841 444.563 380.527 444.623 380.235 444.746C379.943 444.87 379.68 445.053 379.464 445.285C379.227 445.54 379.044 445.839 378.924 446.166C378.804 446.493 378.751 446.84 378.766 447.187Z" fill="white"/>
<path d="M384.8 441.978L384.974 443.97L386.941 443.799L386.795 441.83L384.8 441.978ZM383.342 442.105L381.362 442.386L381.628 444.261L383.515 444.097L383.342 442.105ZM382.78 440.845L384.312 439.56L384.301 439.546L384.288 439.532L382.78 440.845ZM381.312 440.202L381.26 442.201L381.314 442.203L381.369 442.201L381.312 440.202ZM380.053 440.591L378.881 438.971L378.856 438.989L378.832 439.007L380.053 440.591ZM378.947 442.077L377.079 441.363L377.07 441.388L377.061 441.412L378.947 442.077ZM378.54 444.85L376.542 444.944L376.844 451.363L380.238 445.906L378.54 444.85ZM379.826 443.645L378.933 441.856L378.908 441.868L378.883 441.881L379.826 443.645ZM381.466 443.255L381.473 445.255L381.48 445.255L381.487 445.255L381.466 443.255ZM383.985 444.333L385.47 442.994L385.458 442.981L385.447 442.968L383.985 444.333ZM385.009 447.16L383.01 447.082L383.008 447.135L383.009 447.188L385.009 447.16ZM384.52 449.271L382.736 448.367L382.728 448.382L382.72 448.398L384.52 449.271ZM383.188 450.757L384.192 452.487L384.222 452.469L384.252 452.451L383.188 450.757ZM381.231 451.274L381.25 449.274L381.204 449.273L381.159 449.275L381.231 451.274ZM378.232 449.915L379.782 448.651L379.769 448.635L379.756 448.619L378.232 449.915ZM378.359 440.356L376.814 439.086L376.808 439.093L376.802 439.1L378.359 440.356ZM381.385 438.997L381.308 440.995L381.392 440.999L381.475 440.995L381.385 438.997ZM383.722 439.794L385.052 438.3L385.034 438.284L385.015 438.268L383.722 439.794ZM378.766 447.187L380.766 447.175L380.766 447.137L380.764 447.099L378.766 447.187ZM379.074 448.628L377.244 449.435L377.253 449.455L377.262 449.474L379.074 448.628ZM379.98 449.706L378.835 451.346L378.883 451.38L378.934 451.411L379.98 449.706ZM381.213 450.069L381.17 452.068L381.19 452.069L381.211 452.069L381.213 450.069ZM382.825 449.317L384.358 450.601L384.365 450.593L382.825 449.317ZM383.496 447.269L381.5 447.145L381.492 447.266L381.499 447.388L383.496 447.269ZM382.852 445.285L384.396 444.013L384.36 443.969L384.322 443.928L382.852 445.285ZM381.158 444.569L381.118 446.569L381.164 446.569L381.209 446.568L381.158 444.569ZM379.464 445.285L378.002 443.92L377.997 443.925L379.464 445.285ZM384.627 439.985L383.168 440.112L383.515 444.097L384.974 443.97L384.627 439.985ZM385.322 441.823C385.203 440.989 384.853 440.205 384.312 439.56L381.248 442.13C381.309 442.203 381.348 442.292 381.362 442.386L385.322 441.823ZM384.288 439.532C383.912 439.1 383.445 438.757 382.921 438.527L381.315 442.191C381.299 442.183 381.284 442.172 381.271 442.158L384.288 439.532ZM382.921 438.527C382.397 438.297 381.828 438.186 381.255 438.203L381.369 442.201C381.35 442.202 381.332 442.198 381.315 442.191L382.921 438.527ZM381.365 438.203C380.475 438.179 379.602 438.449 378.881 438.971L381.225 442.212C381.235 442.205 381.247 442.201 381.26 442.201L381.365 438.203ZM378.832 439.007C378.042 439.616 377.435 440.432 377.079 441.363L380.816 442.791C380.909 442.548 381.067 442.335 381.274 442.175L378.832 439.007ZM377.061 441.412C376.662 442.545 376.485 443.744 376.542 444.944L380.537 444.756C380.505 444.072 380.606 443.388 380.834 442.743L377.061 441.412ZM380.238 445.906C380.368 445.697 380.552 445.525 380.769 445.409L378.883 441.881C378.047 442.328 377.342 442.988 376.841 443.794L380.238 445.906ZM380.72 445.434C380.954 445.317 381.211 445.256 381.473 445.255L381.46 441.255C380.582 441.258 379.717 441.464 378.933 441.856L380.72 445.434ZM381.487 445.255C381.681 445.253 381.874 445.291 382.052 445.368L383.626 441.691C382.937 441.396 382.194 441.247 381.445 441.255L381.487 445.255ZM382.052 445.368C382.23 445.444 382.391 445.557 382.523 445.699L385.447 442.968C384.935 442.421 384.315 441.985 383.626 441.691L382.052 445.368ZM382.5 445.673C382.848 446.058 383.031 446.564 383.01 447.082L387.007 447.239C387.068 445.677 386.517 444.154 385.47 442.994L382.5 445.673ZM383.009 447.188C383.015 447.597 382.921 448.002 382.736 448.367L386.303 450.176C386.781 449.233 387.023 448.189 387.009 447.133L383.009 447.188ZM382.72 448.398C382.588 448.671 382.381 448.902 382.123 449.064L384.252 452.451C385.143 451.89 385.859 451.092 386.319 450.145L382.72 448.398ZM382.184 449.027C381.9 449.192 381.578 449.277 381.25 449.274L381.211 453.274C382.257 453.284 383.287 453.012 384.192 452.487L382.184 449.027ZM381.159 449.275C380.896 449.284 380.636 449.233 380.397 449.125L378.746 452.768C379.548 453.131 380.423 453.304 381.303 453.272L381.159 449.275ZM380.397 449.125C380.158 449.017 379.948 448.854 379.782 448.651L376.681 451.178C377.237 451.86 377.944 452.405 378.746 452.768L380.397 449.125ZM379.756 448.619C379.449 448.258 379.072 447.363 379.072 445.439H375.072C375.072 447.682 375.474 449.759 376.708 451.21L379.756 448.619ZM379.072 445.439C379.072 443.264 379.474 442.158 379.915 441.612L376.802 439.1C375.503 440.71 375.072 442.939 375.072 445.439H379.072ZM379.903 441.626C380.073 441.42 380.288 441.256 380.532 441.146L378.893 437.497C378.087 437.859 377.375 438.403 376.814 439.086L379.903 441.626ZM380.532 441.146C380.775 441.037 381.041 440.985 381.308 440.995L381.461 436.998C380.578 436.964 379.699 437.135 378.893 437.497L380.532 441.146ZM381.475 440.995C381.823 440.979 382.164 441.095 382.43 441.32L385.015 438.268C383.979 437.391 382.65 436.937 381.294 436.999L381.475 440.995ZM382.392 441.288C382.634 441.503 382.782 441.803 382.806 442.125L386.795 441.83C386.694 440.472 386.069 439.206 385.052 438.3L382.392 441.288ZM376.766 447.199C376.771 447.97 376.934 448.73 377.244 449.435L380.904 447.821C380.814 447.617 380.767 447.398 380.766 447.175L376.766 447.199ZM377.262 449.474C377.613 450.225 378.155 450.871 378.835 451.346L381.126 448.067C381.022 447.994 380.94 447.896 380.886 447.782L377.262 449.474ZM378.934 451.411C379.608 451.824 380.379 452.051 381.17 452.068L381.255 448.069C381.175 448.067 381.096 448.044 381.027 448.002L378.934 451.411ZM381.211 452.069C381.811 452.069 382.404 451.938 382.948 451.684L381.257 448.059C381.244 448.065 381.229 448.069 381.214 448.069L381.211 452.069ZM382.948 451.684C383.491 451.431 383.973 451.061 384.358 450.601L381.292 448.032C381.283 448.044 381.271 448.053 381.257 448.059L382.948 451.684ZM384.365 450.593C385.164 449.63 385.566 448.399 385.492 447.15L381.499 447.388C381.513 447.624 381.437 447.858 381.286 448.04L384.365 450.593ZM385.492 447.393C385.568 446.168 385.176 444.96 384.396 444.013L381.308 446.556C381.445 446.721 381.513 446.932 381.5 447.145L385.492 447.393ZM384.322 443.928C383.913 443.486 383.415 443.136 382.861 442.902L381.304 446.586C381.334 446.599 381.361 446.618 381.383 446.642L384.322 443.928ZM382.861 442.902C382.307 442.667 381.709 442.554 381.107 442.57L381.209 446.568C381.242 446.567 381.274 446.574 381.304 446.586L382.861 442.902ZM381.198 442.569C380.601 442.557 380.007 442.671 379.456 442.904L381.013 446.589C381.046 446.575 381.082 446.568 381.118 446.569L381.198 442.569ZM379.456 442.904C378.906 443.137 378.41 443.483 378.002 443.92L380.926 446.65C380.95 446.624 380.98 446.603 381.013 446.589L379.456 442.904ZM377.997 443.925C377.58 444.375 377.257 444.902 377.046 445.478L380.802 446.855C380.831 446.777 380.874 446.705 380.931 446.644L377.997 443.925ZM377.046 445.478C376.836 446.053 376.741 446.664 376.768 447.276L380.764 447.099C380.761 447.016 380.773 446.933 380.802 446.855L377.046 445.478Z" fill="white" fill-opacity="0.5" mask="url(#path-117-inside-9_3853_93)"/>
<mask id="path-119-inside-10_3853_93" fill="white">
<path d="M458.49 446.653L459.903 446.544C459.974 447.085 460.215 447.59 460.592 447.985C460.954 448.302 461.425 448.467 461.906 448.447C462.332 448.461 462.753 448.344 463.111 448.112C463.453 447.914 463.738 447.63 463.935 447.287C464.194 446.851 464.383 446.377 464.497 445.883C464.635 445.289 464.705 444.681 464.705 444.071V443.763C464.403 444.24 463.989 444.638 463.5 444.922C462.83 445.295 462.055 445.434 461.297 445.318C460.539 445.202 459.842 444.836 459.314 444.279C458.959 443.892 458.684 443.438 458.507 442.943C458.329 442.448 458.253 441.923 458.281 441.398C458.259 440.863 458.343 440.329 458.528 439.827C458.713 439.324 458.995 438.864 459.36 438.471C459.708 438.103 460.13 437.812 460.599 437.617C461.067 437.421 461.571 437.327 462.078 437.339C462.844 437.335 463.595 437.559 464.234 437.982C464.893 438.426 465.404 439.057 465.702 439.794C466.09 440.88 466.263 442.031 466.209 443.183C466.245 444.411 466.074 445.636 465.702 446.807C465.425 447.636 464.904 448.363 464.207 448.891C463.533 449.37 462.723 449.621 461.897 449.607C461.052 449.65 460.224 449.364 459.586 448.809C458.966 448.235 458.582 447.45 458.508 446.608L458.49 446.653ZM464.524 441.362C464.577 440.623 464.336 439.894 463.854 439.332C463.657 439.097 463.41 438.908 463.131 438.779C462.852 438.651 462.548 438.586 462.241 438.589C461.914 438.586 461.59 438.655 461.292 438.791C460.995 438.928 460.731 439.128 460.519 439.377C460.023 439.955 459.766 440.701 459.804 441.461C459.789 441.804 459.842 442.146 459.961 442.468C460.079 442.79 460.259 443.085 460.492 443.337C460.706 443.572 460.968 443.757 461.261 443.881C461.553 444.004 461.869 444.063 462.187 444.053C462.504 444.067 462.821 444.01 463.115 443.886C463.408 443.762 463.669 443.575 463.881 443.337C464.337 442.783 464.567 442.078 464.524 441.362Z"/>
</mask>
<path d="M458.49 446.653L459.903 446.544C459.974 447.085 460.215 447.59 460.592 447.985C460.954 448.302 461.425 448.467 461.906 448.447C462.332 448.461 462.753 448.344 463.111 448.112C463.453 447.914 463.738 447.63 463.935 447.287C464.194 446.851 464.383 446.377 464.497 445.883C464.635 445.289 464.705 444.681 464.705 444.071V443.763C464.403 444.24 463.989 444.638 463.5 444.922C462.83 445.295 462.055 445.434 461.297 445.318C460.539 445.202 459.842 444.836 459.314 444.279C458.959 443.892 458.684 443.438 458.507 442.943C458.329 442.448 458.253 441.923 458.281 441.398C458.259 440.863 458.343 440.329 458.528 439.827C458.713 439.324 458.995 438.864 459.36 438.471C459.708 438.103 460.13 437.812 460.599 437.617C461.067 437.421 461.571 437.327 462.078 437.339C462.844 437.335 463.595 437.559 464.234 437.982C464.893 438.426 465.404 439.057 465.702 439.794C466.09 440.88 466.263 442.031 466.209 443.183C466.245 444.411 466.074 445.636 465.702 446.807C465.425 447.636 464.904 448.363 464.207 448.891C463.533 449.37 462.723 449.621 461.897 449.607C461.052 449.65 460.224 449.364 459.586 448.809C458.966 448.235 458.582 447.45 458.508 446.608L458.49 446.653ZM464.524 441.362C464.577 440.623 464.336 439.894 463.854 439.332C463.657 439.097 463.41 438.908 463.131 438.779C462.852 438.651 462.548 438.586 462.241 438.589C461.914 438.586 461.59 438.655 461.292 438.791C460.995 438.928 460.731 439.128 460.519 439.377C460.023 439.955 459.766 440.701 459.804 441.461C459.789 441.804 459.842 442.146 459.961 442.468C460.079 442.79 460.259 443.085 460.492 443.337C460.706 443.572 460.968 443.757 461.261 443.881C461.553 444.004 461.869 444.063 462.187 444.053C462.504 444.067 462.821 444.01 463.115 443.886C463.408 443.762 463.669 443.575 463.881 443.337C464.337 442.783 464.567 442.078 464.524 441.362Z" fill="white"/>
<path d="M458.49 446.653L456.633 445.909L455.438 448.893L458.643 448.647L458.49 446.653ZM459.903 446.544L461.887 446.286L461.642 444.404L459.75 444.55L459.903 446.544ZM460.592 447.985L459.146 449.366L459.208 449.431L459.275 449.49L460.592 447.985ZM461.906 448.447L461.973 446.448L461.897 446.445L461.821 446.449L461.906 448.447ZM463.111 448.112L462.112 446.379L462.066 446.405L462.021 446.434L463.111 448.112ZM463.935 447.287L462.215 446.267L462.209 446.278L462.202 446.288L463.935 447.287ZM464.497 445.883L462.549 445.43L462.548 445.435L464.497 445.883ZM464.705 444.071L466.705 444.072V444.071H464.705ZM464.705 443.763H466.705V436.872L463.016 442.692L464.705 443.763ZM463.5 444.922L464.473 446.67L464.489 446.661L464.506 446.651L463.5 444.922ZM459.314 444.279L457.842 445.632L457.852 445.643L457.862 445.654L459.314 444.279ZM458.281 441.398L460.279 441.507L460.284 441.41L460.28 441.313L458.281 441.398ZM459.36 438.471L457.907 437.097L457.9 437.104L457.894 437.111L459.36 438.471ZM462.078 437.339L462.031 439.338L462.059 439.339L462.087 439.339L462.078 437.339ZM464.234 437.982L465.352 436.324L465.345 436.319L465.337 436.314L464.234 437.982ZM465.702 439.794L467.585 439.12L467.571 439.082L467.556 439.045L465.702 439.794ZM466.209 443.183L464.211 443.09L464.208 443.166L464.21 443.241L466.209 443.183ZM465.702 446.807L467.599 447.44L467.604 447.426L467.608 447.412L465.702 446.807ZM464.207 448.891L465.366 450.52L465.391 450.503L465.415 450.485L464.207 448.891ZM461.897 449.607L461.932 447.607L461.862 447.606L461.793 447.609L461.897 449.607ZM459.586 448.809L458.227 450.276L458.25 450.297L458.273 450.318L459.586 448.809ZM458.508 446.608L460.5 446.433L456.651 445.864L458.508 446.608ZM464.524 441.362L462.529 441.219L462.52 441.35L462.528 441.482L464.524 441.362ZM463.854 439.332L462.32 440.616L462.328 440.625L462.336 440.635L463.854 439.332ZM462.241 438.589L462.222 440.589L462.242 440.589L462.262 440.589L462.241 438.589ZM460.519 439.377L462.035 440.682L462.041 440.676L462.046 440.67L460.519 439.377ZM459.804 441.461L461.802 441.546L461.806 441.455L461.801 441.363L459.804 441.461ZM460.492 443.337L461.972 441.991L461.966 441.985L461.961 441.979L460.492 443.337ZM462.187 444.053L462.276 442.055L462.198 442.051L462.12 442.054L462.187 444.053ZM463.881 443.337L465.376 444.665L465.4 444.638L465.424 444.61L463.881 443.337ZM458.643 448.647L460.057 448.538L459.75 444.55L458.336 444.659L458.643 448.647ZM457.92 446.802C458.045 447.765 458.475 448.664 459.146 449.366L462.038 446.603C461.955 446.517 461.902 446.406 461.887 446.286L457.92 446.802ZM459.275 449.49C460.024 450.145 460.996 450.487 461.99 450.445L461.821 446.449C461.853 446.447 461.884 446.458 461.909 446.479L459.275 449.49ZM461.839 450.446C462.675 450.474 463.499 450.244 464.2 449.789L462.021 446.434C462.007 446.444 461.99 446.448 461.973 446.448L461.839 450.446ZM464.11 449.844C464.757 449.471 465.295 448.933 465.668 448.286L462.202 446.288C462.181 446.326 462.149 446.357 462.112 446.379L464.11 449.844ZM465.656 448.307C466.02 447.693 466.286 447.026 466.446 446.331L462.548 445.435C462.48 445.728 462.368 446.009 462.215 446.267L465.656 448.307ZM466.445 446.335C466.617 445.593 466.705 444.834 466.705 444.072L462.705 444.069C462.705 444.527 462.652 444.984 462.549 445.43L466.445 446.335ZM466.705 444.071V443.763H462.705V444.071H466.705ZM463.016 442.692C462.885 442.898 462.706 443.07 462.495 443.193L464.506 446.651C465.272 446.206 465.92 445.582 466.395 444.833L463.016 442.692ZM462.528 443.175C462.246 443.332 461.92 443.39 461.601 443.341L460.993 447.295C462.19 447.479 463.415 447.259 464.473 446.67L462.528 443.175ZM461.601 443.341C461.282 443.292 460.989 443.138 460.767 442.904L457.862 445.654C458.694 446.533 459.796 447.111 460.993 447.295L461.601 443.341ZM460.787 442.926C460.612 442.735 460.477 442.512 460.39 442.268L456.624 443.618C456.892 444.364 457.305 445.048 457.842 445.632L460.787 442.926ZM460.39 442.268C460.302 442.024 460.264 441.765 460.279 441.507L456.284 441.289C456.241 442.08 456.357 442.872 456.624 443.618L460.39 442.268ZM460.28 441.313C460.268 441.043 460.311 440.772 460.404 440.518L456.651 439.135C456.374 439.886 456.25 440.683 456.283 441.482L460.28 441.313ZM460.404 440.518C460.498 440.264 460.641 440.031 460.825 439.832L457.894 437.111C457.35 437.697 456.927 438.385 456.651 439.135L460.404 440.518ZM460.813 439.846C460.969 439.681 461.158 439.55 461.368 439.463L459.829 435.77C459.103 436.073 458.448 436.525 457.907 437.097L460.813 439.846ZM461.368 439.463C461.578 439.375 461.803 439.333 462.031 439.338L462.125 435.339C461.338 435.321 460.556 435.468 459.829 435.77L461.368 439.463ZM462.087 439.339C462.458 439.337 462.821 439.445 463.131 439.65L465.337 436.314C464.368 435.673 463.231 435.334 462.069 435.339L462.087 439.339ZM463.116 439.64C463.445 439.862 463.699 440.176 463.848 440.543L467.556 439.045C467.109 437.938 466.342 436.991 465.352 436.324L463.116 439.64ZM463.819 440.468C464.119 441.308 464.253 442.199 464.211 443.09L468.207 443.275C468.273 441.863 468.061 440.452 467.585 439.12L463.819 440.468ZM464.21 443.241C464.24 444.244 464.099 445.245 463.796 446.202L467.608 447.412C468.048 446.027 468.251 444.577 468.208 443.124L464.21 443.241ZM463.805 446.173C463.656 446.62 463.375 447.012 462.999 447.297L465.415 450.485C466.433 449.713 467.194 448.652 467.599 447.44L463.805 446.173ZM463.048 447.261C462.722 447.493 462.331 447.614 461.932 447.607L461.862 451.606C463.116 451.628 464.344 451.248 465.366 450.52L463.048 447.261ZM461.793 447.609C461.467 447.626 461.146 447.516 460.899 447.301L458.273 450.318C459.302 451.213 460.638 451.674 462 451.604L461.793 447.609ZM460.946 447.342C460.69 447.105 460.531 446.781 460.5 446.433L456.516 446.782C456.633 448.119 457.243 449.364 458.227 450.276L460.946 447.342ZM456.651 445.864L456.633 445.909L460.347 447.396L460.365 447.351L456.651 445.864ZM466.519 441.504C466.609 440.24 466.197 438.991 465.371 438.029L462.336 440.635C462.475 440.797 462.544 441.007 462.529 441.219L466.519 441.504ZM465.387 438.048C465 437.586 464.515 437.215 463.968 436.963L462.294 440.596C462.304 440.601 462.313 440.607 462.32 440.616L465.387 438.048ZM463.968 436.963C463.42 436.711 462.823 436.583 462.22 436.589L462.262 440.589C462.273 440.589 462.284 440.591 462.294 440.596L463.968 436.963ZM462.259 436.589C461.639 436.583 461.024 436.714 460.46 436.973L462.125 440.61C462.156 440.596 462.189 440.589 462.222 440.589L462.259 436.589ZM460.46 436.973C459.895 437.231 459.395 437.611 458.993 438.085L462.046 440.67C462.067 440.644 462.094 440.624 462.125 440.61L460.46 436.973ZM459.004 438.073C458.172 439.038 457.744 440.286 457.806 441.559L461.801 441.363C461.789 441.115 461.873 440.871 462.035 440.682L459.004 438.073ZM457.805 441.376C457.78 441.983 457.874 442.588 458.083 443.157L461.838 441.778C461.811 441.704 461.798 441.625 461.802 441.546L457.805 441.376ZM458.083 443.157C458.292 443.727 458.612 444.249 459.024 444.694L461.961 441.979C461.907 441.921 461.865 441.853 461.838 441.778L458.083 443.157ZM459.013 444.683C459.422 445.132 459.923 445.487 460.482 445.723L462.039 442.039C462.013 442.028 461.99 442.011 461.972 441.991L459.013 444.683ZM460.482 445.723C461.042 445.96 461.646 446.072 462.253 446.051L462.12 442.054C462.092 442.055 462.065 442.049 462.039 442.039L460.482 445.723ZM462.097 446.05C462.712 446.078 463.326 445.968 463.893 445.728L462.336 442.044C462.317 442.052 462.297 442.055 462.276 442.055L462.097 446.05ZM463.893 445.728C464.46 445.489 464.967 445.126 465.376 444.665L462.386 442.008C462.372 442.024 462.355 442.036 462.336 442.044L463.893 445.728ZM465.424 444.61C466.202 443.666 466.594 442.463 466.521 441.241L462.528 441.482C462.54 441.693 462.473 441.901 462.338 442.064L465.424 444.61Z" fill="white" fill-opacity="0.5" mask="url(#path-119-inside-10_3853_93)"/>
<path d="M190 40C272.839 40 340 107.16 340 190M190 340C107.161 340 40 272.84 40 190" stroke="white" stroke-opacity="0.25" stroke-width="2" stroke-miterlimit="10"/>
<path d="M200.347 179.656L179.656 200.35" stroke="white" stroke-opacity="0.25" stroke-width="2" stroke-miterlimit="10"/>
</g>
<defs>
<clipPath id="clip0_3853_93">
<rect width="596" height="490" rx="16" fill="white"/>
</clipPath>
</defs>
</svg>
