<svg width="487" height="400" viewBox="0 0 487 400" fill="none" xmlns="http://www.w3.org/2000/svg">
<rect width="486.531" height="400" fill="black"/>
<path d="M155.096 32.6528C222.719 32.6528 277.545 87.4769 277.545 155.102M155.096 277.551C87.4723 277.551 32.6467 222.727 32.6467 155.102" stroke="white" stroke-opacity="0.25" stroke-width="2" stroke-miterlimit="10"/>
<path d="M163.543 146.658L146.652 163.551" stroke="white" stroke-opacity="0.25" stroke-width="2" stroke-miterlimit="10"/>
<path d="M155.476 324.148C155.476 328.137 157.451 330.163 161.357 330.163C165.252 330.163 167.22 328.137 167.22 324.148C167.22 320.145 165.252 318.119 161.357 318.119C157.451 318.119 155.476 320.145 155.476 324.148ZM158.337 324.148C158.337 321.521 159.18 320.456 161.333 320.456C163.531 320.456 164.357 321.485 164.357 324.148C164.357 326.779 163.51 327.843 161.333 327.843C159.15 327.843 158.337 326.821 158.337 324.148Z" fill="white"/>
<path d="M190.98 324.148C190.98 328.137 192.967 330.163 196.867 330.163C200.756 330.163 202.727 328.137 202.727 324.148C202.727 320.145 200.756 318.119 196.867 318.119C192.964 318.119 190.98 320.145 190.98 324.148ZM193.85 324.148C193.85 321.521 194.687 320.456 196.84 320.456C199.041 320.456 199.858 321.485 199.858 324.148C199.858 326.779 199.011 327.843 196.84 327.843C194.66 327.843 193.85 326.821 193.85 324.148Z" fill="white"/>
<path d="M223.761 315.63V326.552C223.761 328.778 225.097 329.957 227.631 329.957H230.102C230.737 329.957 231.021 329.391 231.021 328.847C231.021 328.3 230.737 327.734 230.102 327.734H228.668C227.359 327.734 226.676 327.653 226.676 326.102V320.819H229.902C230.537 320.819 230.821 320.251 230.821 319.7C230.821 319.159 230.537 318.591 229.902 318.591L226.676 318.597V315.63C226.676 314.877 226.14 314.424 225.267 314.424C224.562 314.424 223.761 314.741 223.761 315.63Z" fill="white"/>
<path d="M169.398 315.63V326.552C169.398 328.778 170.738 329.957 173.284 329.957H175.754C176.383 329.957 176.664 329.391 176.664 328.847C176.664 328.3 176.383 327.734 175.754 327.734H174.312C173.003 327.734 172.319 327.653 172.319 326.102V320.819H175.543C176.178 320.819 176.462 320.251 176.462 319.7C176.462 319.159 176.178 318.591 175.543 318.591H172.319V315.63C172.319 314.877 171.793 314.424 170.907 314.424C170.209 314.424 169.398 314.741 169.398 315.63Z" fill="white"/>
<path d="M215.171 318.364C211.824 318.364 210.393 319.694 210.393 322.815V328.729C210.393 329.473 210.938 329.908 211.854 329.908C212.764 329.908 213.311 329.47 213.311 328.735V323.02C213.311 321.351 213.601 320.831 215.413 320.831H216.259C218.071 320.831 218.37 321.351 218.37 323.02V328.729C218.358 329.473 218.911 329.908 219.821 329.908C220.734 329.908 221.279 329.47 221.279 328.735V322.812C221.279 319.691 219.849 318.361 216.498 318.361H215.171V318.364Z" fill="white"/>
<path d="M204.902 319.622V328.672C204.902 329.6 205.664 329.936 206.378 329.936C207.091 329.936 207.844 329.6 207.844 328.672V319.622C207.844 318.691 207.091 318.355 206.369 318.355C205.664 318.355 204.902 318.691 204.902 319.622Z" fill="white"/>
<path d="M204.717 315.195C204.717 316.117 205.464 316.861 206.365 316.861C207.284 316.861 208.022 316.117 208.022 315.195C208.022 314.276 207.287 313.523 206.365 313.523C205.464 313.523 204.717 314.276 204.717 315.195Z" fill="white"/>
<path d="M180.029 318.705C178.899 318.956 178.27 319.667 178.27 320.91V333.434C178.27 334.32 179.017 334.641 179.724 334.641C180.429 334.641 181.182 334.32 181.182 333.434V329.794C181.871 329.945 182.485 330.014 183.292 330.014C185.073 330.014 185.998 329.712 187.011 329.107C188.508 328.212 189.394 326.531 189.394 324.284C189.394 320.369 187.395 318.379 183.431 318.379C182.358 318.379 181.033 318.479 180.029 318.705ZM181.178 327.538V320.955C181.774 320.828 182.521 320.765 183.235 320.765C185.542 320.765 186.47 321.626 186.47 324.054C186.47 326.785 185.693 327.728 183.189 327.728C182.506 327.731 181.699 327.665 181.178 327.538Z" fill="white"/>
<path d="M150.396 315.286V320.589H144.14V315.286C144.14 314.536 143.614 314.091 142.728 314.091C142.036 314.091 141.222 314.403 141.222 315.286V328.717C141.222 329.467 141.755 329.918 142.644 329.918C143.342 329.918 144.14 329.603 144.14 328.717V323.25H150.396V328.714C150.396 329.464 150.929 329.915 151.815 329.915C152.504 329.915 153.317 329.6 153.317 328.714V315.286C153.317 314.536 152.782 314.091 151.893 314.091C151.204 314.091 150.396 314.403 150.396 315.286Z" fill="white"/>
<path d="M277.347 323.012C277.348 324.312 276.963 325.583 276.241 326.665C275.52 327.746 274.493 328.589 273.292 329.087C272.091 329.585 270.769 329.716 269.494 329.463C268.219 329.209 267.047 328.583 266.128 327.664C265.208 326.744 264.582 325.573 264.329 324.297C264.076 323.022 264.206 321.7 264.704 320.499C265.202 319.298 266.045 318.272 267.127 317.55C268.208 316.828 269.479 316.443 270.78 316.444C272.521 316.446 274.191 317.138 275.422 318.369C276.654 319.601 277.346 321.27 277.347 323.012Z" stroke="white" stroke-opacity="0.5" stroke-miterlimit="10"/>
<path d="M266.824 322.753H274.711" stroke="white" stroke-opacity="0.5" stroke-miterlimit="10"/>
<path d="M337.28 322.753C337.28 324.105 336.879 325.427 336.128 326.551C335.377 327.675 334.309 328.551 333.06 329.068C331.811 329.586 330.437 329.721 329.111 329.457C327.785 329.193 326.567 328.542 325.612 327.587C324.656 326.631 324.005 325.413 323.741 324.087C323.477 322.761 323.613 321.387 324.13 320.138C324.647 318.889 325.523 317.821 326.647 317.07C327.771 316.319 329.093 315.918 330.445 315.918C331.342 315.918 332.231 316.094 333.061 316.437C333.891 316.781 334.644 317.284 335.279 317.919C335.914 318.554 336.417 319.308 336.761 320.137C337.104 320.967 337.28 321.856 337.28 322.753Z" stroke="white" stroke-opacity="0.5" stroke-miterlimit="10"/>
<path d="M326.244 322.753H335.182" stroke="white" stroke-opacity="0.5" stroke-miterlimit="10"/>
<path d="M330.446 318.547V326.959" stroke="white" stroke-opacity="0.5" stroke-miterlimit="10"/>
<path d="M300.742 329.588C302.042 329.588 303.313 329.188 304.393 328.437C305.474 327.686 306.316 326.618 306.814 325.369C307.311 324.12 307.441 322.746 307.188 321.42C306.934 320.094 306.308 318.876 305.389 317.92C304.47 316.964 303.299 316.314 302.024 316.05C300.749 315.786 299.428 315.921 298.227 316.439C297.026 316.956 296 317.832 295.278 318.956C294.555 320.08 294.17 321.402 294.17 322.753C294.176 324.564 294.87 326.299 296.102 327.58C297.333 328.86 299.001 329.582 300.742 329.588Z" stroke="#9E0900" stroke-miterlimit="10"/>
<path d="M300.477 315.918V318.547" stroke="#9E0900" stroke-miterlimit="10"/>
<path d="M307.313 322.753H305.209" stroke="#9E0900" stroke-miterlimit="10"/>
<path d="M300.477 329.588V327.485" stroke="#9E0900" stroke-miterlimit="10"/>
<path d="M294.17 322.753H295.747" stroke="#9E0900" stroke-miterlimit="10"/>
<path d="M300.477 320.65V322.734L302.58 325.382" stroke="#9E0900" stroke-miterlimit="10"/>
<path d="M300.738 363.238C302.038 363.238 303.31 362.854 304.391 362.132C305.472 361.411 306.315 360.384 306.814 359.184C307.312 357.983 307.442 356.661 307.189 355.386C306.936 354.111 306.311 352.939 305.392 352.02C304.473 351.1 303.302 350.474 302.027 350.22C300.752 349.966 299.43 350.096 298.229 350.593C297.028 351.09 296.001 351.933 295.279 353.014C294.556 354.095 294.171 355.365 294.171 356.665C294.176 358.406 294.869 360.074 296.1 361.306C297.33 362.537 298.998 363.231 300.738 363.238Z" stroke="white" stroke-opacity="0.5" stroke-miterlimit="10"/>
<path d="M300.478 360.609V352.722" stroke="white" stroke-opacity="0.5" stroke-miterlimit="10"/>
<path d="M304.156 372.176H297.321V377.959H304.156V372.176Z" stroke="white" stroke-opacity="0.5" stroke-miterlimit="10"/>
<path d="M298.374 371.124C298.399 370.557 298.632 370.023 299.023 369.631C299.415 369.239 299.936 369.021 300.477 369.021C301.018 369.021 301.539 369.239 301.93 369.631C302.322 370.023 302.555 370.557 302.58 371.124" stroke="white" stroke-opacity="0.5" stroke-miterlimit="10"/>
<path d="M298.374 371.124V372.176" stroke="white" stroke-opacity="0.5" stroke-miterlimit="10"/>
<path d="M302.583 371.124V372.176" stroke="white" stroke-opacity="0.5" stroke-miterlimit="10"/>
<path fill-rule="evenodd" clip-rule="evenodd" d="M300.734 374.805C300.795 374.805 300.855 374.821 300.903 374.851C300.951 374.882 300.985 374.924 300.998 374.971C301.011 375.018 301.003 375.068 300.976 375.111C300.948 375.154 300.903 375.189 300.847 375.209L300.984 375.856H300.494L300.631 375.209C300.583 375.193 300.543 375.165 300.515 375.13C300.488 375.095 300.475 375.054 300.479 375.013C300.479 374.985 300.486 374.958 300.499 374.933C300.512 374.908 300.532 374.885 300.556 374.866C300.581 374.846 300.61 374.831 300.642 374.821C300.674 374.81 300.709 374.805 300.744 374.805H300.734Z" stroke="white" stroke-opacity="0.5" stroke-miterlimit="10"/>
<path d="M305.733 375.33H329.069C329.431 375.323 329.777 375.152 330.034 374.853C330.29 374.553 330.437 374.149 330.445 373.725V371.65" stroke="white" stroke-opacity="0.5" stroke-miterlimit="10"/>
<path d="M294.698 375.33H271.384C271.019 375.33 270.668 375.162 270.406 374.862C270.145 374.562 269.995 374.154 269.987 373.725V371.65" stroke="white" stroke-opacity="0.5" stroke-miterlimit="10"/>
<path d="M329.391 351.671H326.763V361.135H329.391V351.671Z" stroke="white" stroke-opacity="0.5" stroke-miterlimit="10"/>
<path d="M334.06 351.671H331.431V361.135H334.06V351.671Z" stroke="white" stroke-opacity="0.5" stroke-miterlimit="10"/>
<path d="M397.219 323.016C397.219 324.316 396.834 325.587 396.112 326.668C395.39 327.749 394.363 328.591 393.162 329.088C391.961 329.586 390.64 329.716 389.365 329.462C388.09 329.209 386.919 328.583 386 327.664C385.081 326.745 384.455 325.573 384.201 324.299C383.948 323.024 384.078 321.702 384.575 320.501C385.073 319.301 385.915 318.274 386.996 317.552C388.077 316.83 389.347 316.444 390.647 316.444C392.39 316.446 394.061 317.138 395.293 318.371C396.525 319.603 397.218 321.274 397.219 323.016Z" stroke="white" stroke-opacity="0.5" stroke-miterlimit="10"/>
<path d="M386.703 322.753H394.589" stroke="white" stroke-opacity="0.5" stroke-miterlimit="10"/>
<path d="M427.711 322.753C427.711 324.105 427.325 325.427 426.603 326.551C425.881 327.675 424.854 328.551 423.653 329.068C422.453 329.586 421.131 329.721 419.856 329.457C418.581 329.193 417.41 328.542 416.491 327.587C415.572 326.631 414.946 325.413 414.693 324.087C414.439 322.761 414.569 321.387 415.067 320.138C415.564 318.889 416.406 317.821 417.487 317.07C418.568 316.319 419.839 315.918 421.138 315.918C422.881 315.92 424.552 316.64 425.784 317.922C427.016 319.203 427.709 320.941 427.711 322.753Z" stroke="white" stroke-opacity="0.5" stroke-miterlimit="10"/>
<path d="M416.671 322.753H425.083" stroke="white" stroke-opacity="0.5" stroke-miterlimit="10"/>
<path d="M420.874 318.547V326.959" stroke="white" stroke-opacity="0.5" stroke-miterlimit="10"/>
<path d="M397.219 356.933C397.219 358.285 396.832 359.606 396.11 360.729C395.387 361.852 394.36 362.728 393.159 363.244C391.958 363.761 390.637 363.896 389.362 363.631C388.088 363.367 386.917 362.716 385.998 361.76C385.08 360.804 384.454 359.586 384.201 358.26C383.948 356.934 384.078 355.56 384.576 354.312C385.073 353.063 385.916 351.996 386.997 351.245C388.077 350.494 389.348 350.093 390.647 350.093C391.511 350.093 392.366 350.269 393.164 350.613C393.962 350.956 394.687 351.46 395.297 352.095C395.908 352.731 396.392 353.485 396.722 354.315C397.052 355.145 397.221 356.035 397.219 356.933Z" stroke="white" stroke-opacity="0.5" stroke-miterlimit="10"/>
<path d="M386.703 356.928H394.589" stroke="white" stroke-opacity="0.5" stroke-miterlimit="10"/>
<path d="M427.711 356.665C427.711 357.965 427.325 359.236 426.603 360.317C425.881 361.397 424.854 362.24 423.653 362.737C422.453 363.235 421.131 363.365 419.856 363.111C418.581 362.858 417.41 362.232 416.491 361.313C415.572 360.393 414.946 359.222 414.693 357.948C414.439 356.673 414.569 355.351 415.067 354.15C415.564 352.949 416.406 351.923 417.487 351.201C418.568 350.479 419.839 350.093 421.138 350.093C422.881 350.094 424.552 350.787 425.784 352.02C427.016 353.252 427.709 354.923 427.711 356.665Z" stroke="white" stroke-opacity="0.5" stroke-miterlimit="10"/>
<path d="M416.671 356.928H425.083" stroke="white" stroke-opacity="0.5" stroke-miterlimit="10"/>
<path d="M420.874 352.722V360.609" stroke="white" stroke-opacity="0.5" stroke-miterlimit="10"/>
<path d="M454.253 315.918C454.768 315.92 455.262 316.126 455.626 316.492C455.991 316.858 456.196 317.354 456.197 317.872V325.737C456.479 326.137 456.628 326.616 456.624 327.106C456.638 327.427 456.587 327.747 456.475 328.048C456.362 328.348 456.19 328.623 455.969 328.855C455.748 329.087 455.483 329.271 455.189 329.397C454.896 329.523 454.58 329.588 454.26 329.588C453.941 329.588 453.625 329.523 453.331 329.397C453.037 329.271 452.772 329.087 452.551 328.855C452.33 328.623 452.158 328.348 452.046 328.048C451.933 327.747 451.882 327.427 451.896 327.106C451.892 326.616 452.042 326.137 452.323 325.737V317.872C452.322 317.356 452.525 316.86 452.886 316.494C453.248 316.128 453.74 315.921 454.253 315.918Z" stroke="white" stroke-opacity="0.5" stroke-miterlimit="10"/>
<path fill-rule="evenodd" clip-rule="evenodd" d="M454.551 326.559C454.597 326.643 454.634 326.749 454.658 326.87C454.683 326.99 454.695 327.122 454.694 327.254C454.694 327.495 454.651 327.726 454.574 327.897C454.498 328.067 454.394 328.163 454.286 328.163C454.177 328.163 454.074 328.067 453.997 327.897C453.921 327.726 453.878 327.495 453.878 327.254C453.878 327.122 453.89 326.991 453.915 326.871C453.941 326.751 453.977 326.644 454.022 326.559V318.146C454.023 317.989 454.051 317.839 454.101 317.728C454.15 317.617 454.217 317.553 454.288 317.551C454.359 317.551 454.427 317.614 454.477 317.725C454.527 317.837 454.555 317.988 454.555 318.146L454.551 326.559Z" stroke="white" stroke-opacity="0.5" stroke-miterlimit="10"/>
<path d="M445.064 323.279L447.702 320.65L450.321 323.279" stroke="white" stroke-opacity="0.5" stroke-miterlimit="10"/>
<path d="M445.064 320.125L447.702 318.021L450.321 320.125" stroke="white" stroke-opacity="0.5" stroke-miterlimit="10"/>
<path d="M454.253 350.093C454.768 350.096 455.261 350.302 455.625 350.668C455.989 351.034 456.195 351.529 456.197 352.046V359.913C456.482 360.311 456.632 360.791 456.624 361.282C456.638 361.602 456.587 361.923 456.475 362.223C456.362 362.523 456.19 362.798 455.969 363.03C455.748 363.262 455.483 363.446 455.189 363.572C454.896 363.698 454.58 363.763 454.26 363.763C453.941 363.763 453.625 363.698 453.331 363.572C453.037 363.446 452.772 363.262 452.551 363.03C452.33 362.798 452.158 362.523 452.046 362.223C451.933 361.923 451.882 361.602 451.896 361.282C451.889 360.791 452.038 360.311 452.323 359.913V352.046C452.322 351.53 452.525 351.035 452.886 350.669C453.248 350.303 453.74 350.096 454.253 350.093Z" stroke="white" stroke-opacity="0.5" stroke-miterlimit="10"/>
<path fill-rule="evenodd" clip-rule="evenodd" d="M454.551 360.158C454.597 360.236 454.633 360.334 454.658 360.446C454.683 360.557 454.695 360.678 454.694 360.801C454.693 360.941 454.675 361.079 454.642 361.201C454.609 361.324 454.562 361.428 454.504 361.503C454.446 361.578 454.38 361.622 454.312 361.631C454.244 361.64 454.176 361.614 454.114 361.555C454.053 361.496 453.999 361.407 453.958 361.294C453.917 361.181 453.891 361.049 453.882 360.91C453.872 360.772 453.88 360.63 453.903 360.498C453.927 360.367 453.967 360.25 454.018 360.158V352.383C454.019 352.239 454.047 352.1 454.097 351.998C454.146 351.896 454.213 351.838 454.284 351.837C454.319 351.836 454.353 351.85 454.386 351.877C454.418 351.904 454.448 351.945 454.473 351.995C454.497 352.046 454.517 352.107 454.531 352.173C454.544 352.24 454.551 352.311 454.551 352.383V360.158Z" stroke="white" stroke-opacity="0.5" stroke-miterlimit="10"/>
<path d="M445.064 357.454L447.702 354.299L450.321 357.454" stroke="white" stroke-opacity="0.5" stroke-miterlimit="10"/>
<path d="M445.064 354.3L447.702 351.671L450.321 354.3" stroke="white" stroke-opacity="0.5" stroke-miterlimit="10"/>
<mask id="path-53-inside-1_4094_56" fill="white">
<path fill-rule="evenodd" clip-rule="evenodd" d="M266.755 363.763H272.436V361.172C272.794 360.795 273.085 360.362 273.298 359.89C273.533 359.338 273.656 358.746 273.657 358.147V353.696C273.652 353.462 273.583 353.234 273.459 353.034C273.334 352.832 273.151 352.67 272.933 352.568C272.786 352.496 272.624 352.46 272.46 352.461H272.431C272.309 352.458 272.188 352.475 272.072 352.512C272.043 352.512 272.029 352.512 272.019 352.512V352.046C272.023 351.81 271.952 351.579 271.816 351.384C271.701 351.179 271.521 351.016 271.305 350.918C271.156 350.85 270.995 350.813 270.831 350.811H270.793C270.67 350.81 270.547 350.827 270.429 350.862C270.4 350.865 270.373 350.875 270.348 350.89C270.346 350.884 270.344 350.878 270.344 350.872C270.344 350.865 270.346 350.859 270.348 350.853C270.317 350.772 270.276 350.696 270.225 350.625C270.116 350.461 269.967 350.327 269.791 350.234C269.616 350.142 269.42 350.093 269.222 350.093H269.179C269.056 350.097 268.935 350.119 268.819 350.159C268.709 350.199 268.604 350.252 268.507 350.317C268.32 350.454 268.173 350.638 268.081 350.848C268.081 350.886 268.052 350.942 268.038 350.979C267.887 350.923 267.726 350.896 267.565 350.9H267.536C267.415 350.903 267.294 350.92 267.176 350.951C267.062 350.988 266.956 351.046 266.864 351.123C266.677 351.261 266.53 351.444 266.438 351.655C266.377 351.803 266.345 351.961 266.343 352.121V354.577C266.213 354.536 266.077 354.514 265.941 354.512H265.898C265.776 354.515 265.654 354.537 265.538 354.577C265.429 354.617 265.326 354.67 265.231 354.735C265.042 354.866 264.897 355.05 264.814 355.262C264.75 355.409 264.718 355.568 264.719 355.728V357.774C264.722 358.559 264.934 359.329 265.335 360.007C265.684 360.599 266.171 361.102 266.755 361.475V363.763ZM272.436 353.286C272.477 353.278 272.519 353.278 272.559 353.286C272.602 353.286 272.625 353.323 272.668 353.337C272.723 353.394 272.772 353.457 272.815 353.524C272.831 353.575 272.841 353.628 272.843 353.682V358.133C272.844 358.613 272.746 359.089 272.557 359.532C272.367 359.974 272.09 360.375 271.74 360.71L271.622 360.827V362.943H267.541V360.976L267.337 360.855C266.787 360.547 266.329 360.099 266.012 359.559C265.677 359.008 265.501 358.379 265.501 357.737V355.705C265.501 355.623 265.53 355.545 265.581 355.481C265.621 355.41 265.682 355.353 265.756 355.318L265.903 355.281C265.944 355.283 265.984 355.293 266.021 355.309C266.061 355.317 266.099 355.335 266.13 355.36C266.197 355.4 266.249 355.46 266.277 355.532C266.293 355.584 266.303 355.637 266.305 355.691H267.124V352.097C267.123 352.014 267.146 351.931 267.191 351.86C267.231 351.794 267.293 351.743 267.366 351.715C267.41 351.689 267.461 351.674 267.513 351.673C267.553 351.676 267.593 351.685 267.631 351.701C267.67 351.705 267.707 351.718 267.74 351.739C267.807 351.785 267.858 351.85 267.887 351.925C267.917 351.972 267.932 352.027 267.929 352.083H268.805V351.291C268.803 351.209 268.832 351.13 268.885 351.067C268.926 350.998 268.987 350.942 269.061 350.909C269.108 350.892 269.157 350.883 269.207 350.881C269.247 350.874 269.287 350.874 269.326 350.881C269.364 350.894 269.4 350.911 269.435 350.932C269.497 350.977 269.547 351.036 269.581 351.105C269.598 351.156 269.607 351.209 269.61 351.263V352.069H270.429C270.423 352.029 270.423 351.988 270.429 351.948C270.439 351.91 270.458 351.875 270.486 351.846C270.525 351.779 270.587 351.727 270.661 351.701C270.71 351.674 270.765 351.659 270.822 351.659C270.862 351.662 270.903 351.671 270.94 351.687C270.974 351.699 271.006 351.716 271.035 351.739C271.103 351.783 271.155 351.848 271.181 351.925C271.209 351.973 271.224 352.028 271.224 352.083V353.668H272.029C272.03 353.627 272.038 353.586 272.053 353.547C272.053 353.51 272.081 353.482 272.095 353.444C272.139 353.378 272.204 353.327 272.28 353.3C272.331 353.281 272.386 353.272 272.441 353.272L272.436 353.286Z"/>
</mask>
<path fill-rule="evenodd" clip-rule="evenodd" d="M266.755 363.763H272.436V361.172C272.794 360.795 273.085 360.362 273.298 359.89C273.533 359.338 273.656 358.746 273.657 358.147V353.696C273.652 353.462 273.583 353.234 273.459 353.034C273.334 352.832 273.151 352.67 272.933 352.568C272.786 352.496 272.624 352.46 272.46 352.461H272.431C272.309 352.458 272.188 352.475 272.072 352.512C272.043 352.512 272.029 352.512 272.019 352.512V352.046C272.023 351.81 271.952 351.579 271.816 351.384C271.701 351.179 271.521 351.016 271.305 350.918C271.156 350.85 270.995 350.813 270.831 350.811H270.793C270.67 350.81 270.547 350.827 270.429 350.862C270.4 350.865 270.373 350.875 270.348 350.89C270.346 350.884 270.344 350.878 270.344 350.872C270.344 350.865 270.346 350.859 270.348 350.853C270.317 350.772 270.276 350.696 270.225 350.625C270.116 350.461 269.967 350.327 269.791 350.234C269.616 350.142 269.42 350.093 269.222 350.093H269.179C269.056 350.097 268.935 350.119 268.819 350.159C268.709 350.199 268.604 350.252 268.507 350.317C268.32 350.454 268.173 350.638 268.081 350.848C268.081 350.886 268.052 350.942 268.038 350.979C267.887 350.923 267.726 350.896 267.565 350.9H267.536C267.415 350.903 267.294 350.92 267.176 350.951C267.062 350.988 266.956 351.046 266.864 351.123C266.677 351.261 266.53 351.444 266.438 351.655C266.377 351.803 266.345 351.961 266.343 352.121V354.577C266.213 354.536 266.077 354.514 265.941 354.512H265.898C265.776 354.515 265.654 354.537 265.538 354.577C265.429 354.617 265.326 354.67 265.231 354.735C265.042 354.866 264.897 355.05 264.814 355.262C264.75 355.409 264.718 355.568 264.719 355.728V357.774C264.722 358.559 264.934 359.329 265.335 360.007C265.684 360.599 266.171 361.102 266.755 361.475V363.763ZM272.436 353.286C272.477 353.278 272.519 353.278 272.559 353.286C272.602 353.286 272.625 353.323 272.668 353.337C272.723 353.394 272.772 353.457 272.815 353.524C272.831 353.575 272.841 353.628 272.843 353.682V358.133C272.844 358.613 272.746 359.089 272.557 359.532C272.367 359.974 272.09 360.375 271.74 360.71L271.622 360.827V362.943H267.541V360.976L267.337 360.855C266.787 360.547 266.329 360.099 266.012 359.559C265.677 359.008 265.501 358.379 265.501 357.737V355.705C265.501 355.623 265.53 355.545 265.581 355.481C265.621 355.41 265.682 355.353 265.756 355.318L265.903 355.281C265.944 355.283 265.984 355.293 266.021 355.309C266.061 355.317 266.099 355.335 266.13 355.36C266.197 355.4 266.249 355.46 266.277 355.532C266.293 355.584 266.303 355.637 266.305 355.691H267.124V352.097C267.123 352.014 267.146 351.931 267.191 351.86C267.231 351.794 267.293 351.743 267.366 351.715C267.41 351.689 267.461 351.674 267.513 351.673C267.553 351.676 267.593 351.685 267.631 351.701C267.67 351.705 267.707 351.718 267.74 351.739C267.807 351.785 267.858 351.85 267.887 351.925C267.917 351.972 267.932 352.027 267.929 352.083H268.805V351.291C268.803 351.209 268.832 351.13 268.885 351.067C268.926 350.998 268.987 350.942 269.061 350.909C269.108 350.892 269.157 350.883 269.207 350.881C269.247 350.874 269.287 350.874 269.326 350.881C269.364 350.894 269.4 350.911 269.435 350.932C269.497 350.977 269.547 351.036 269.581 351.105C269.598 351.156 269.607 351.209 269.61 351.263V352.069H270.429C270.423 352.029 270.423 351.988 270.429 351.948C270.439 351.91 270.458 351.875 270.486 351.846C270.525 351.779 270.587 351.727 270.661 351.701C270.71 351.674 270.765 351.659 270.822 351.659C270.862 351.662 270.903 351.671 270.94 351.687C270.974 351.699 271.006 351.716 271.035 351.739C271.103 351.783 271.155 351.848 271.181 351.925C271.209 351.973 271.224 352.028 271.224 352.083V353.668H272.029C272.03 353.627 272.038 353.586 272.053 353.547C272.053 353.51 272.081 353.482 272.095 353.444C272.139 353.378 272.204 353.327 272.28 353.3C272.331 353.281 272.386 353.272 272.441 353.272L272.436 353.286Z" fill="white" fill-opacity="0.5"/>
<path d="M265.903 355.281H266.403V354.885H265.903H265.403V355.281H265.903ZM266.755 363.763H265.755V364.763H266.755V363.763ZM272.436 363.763V364.763H273.436V363.763H272.436ZM272.436 361.172L271.711 360.483L271.436 360.773V361.172H272.436ZM273.298 359.89L274.209 360.301L274.213 360.292L274.217 360.283L273.298 359.89ZM273.657 358.147L274.657 358.15V358.147H273.657ZM273.657 353.696H274.657V353.684L274.657 353.673L273.657 353.696ZM273.459 353.034L272.608 353.559L272.611 353.565L273.459 353.034ZM272.933 352.568L272.495 353.467L272.503 353.471L272.511 353.475L272.933 352.568ZM272.46 352.461V353.461L272.467 353.461L272.46 352.461ZM272.431 352.461L272.407 353.461L272.419 353.461H272.431V352.461ZM272.072 352.512L272.072 353.512L272.227 353.512L272.374 353.465L272.072 352.512ZM272.019 352.512H271.019V353.512H272.019V352.512ZM272.019 352.046L271.02 352.03L271.019 352.038V352.046H272.019ZM271.816 351.384L270.944 351.874L270.969 351.918L270.997 351.958L271.816 351.384ZM271.305 350.918L270.885 351.826L270.894 351.83L271.305 350.918ZM270.831 350.811L270.844 349.811H270.831V350.811ZM270.793 350.811L270.783 351.811H270.793V350.811ZM270.429 350.862L270.533 351.857L270.626 351.847L270.715 351.821L270.429 350.862ZM270.348 350.89L269.434 351.296L269.904 352.356L270.884 351.735L270.348 350.89ZM270.344 350.872L269.344 350.872L270.344 350.872ZM270.348 350.853L271.262 351.258L271.431 350.878L271.28 350.49L270.348 350.853ZM270.225 350.625L269.395 351.182L269.402 351.193L269.41 351.203L270.225 350.625ZM269.222 350.093L269.222 351.093L269.222 351.093L269.222 350.093ZM269.179 350.093V349.093H269.164L269.15 349.094L269.179 350.093ZM268.819 350.159L268.495 349.212L268.484 349.216L268.473 349.22L268.819 350.159ZM268.507 350.317L267.954 349.484L267.934 349.497L267.915 349.511L268.507 350.317ZM268.081 350.848L267.165 350.447L267.081 350.639V350.848H268.081ZM268.038 350.979L267.692 351.917L268.62 352.259L268.973 351.335L268.038 350.979ZM267.565 350.9V351.9H267.575L267.586 351.899L267.565 350.9ZM267.536 350.9V349.9H267.521L267.506 349.9L267.536 350.9ZM267.176 350.951L266.926 349.983L266.898 349.99L266.871 349.999L267.176 350.951ZM266.864 351.123L267.456 351.929L267.483 351.91L267.508 351.888L266.864 351.123ZM266.438 351.655L265.522 351.254L265.517 351.265L265.512 351.276L266.438 351.655ZM266.343 352.121L265.343 352.108V352.121H266.343ZM266.343 354.577L266.045 355.531L267.343 355.937V354.577H266.343ZM265.941 354.512L265.96 353.512L265.95 353.512H265.941V354.512ZM265.898 354.512V353.512H265.884L265.869 353.512L265.898 354.512ZM265.538 354.577L265.214 353.631L265.205 353.634L265.197 353.637L265.538 354.577ZM265.231 354.735L264.664 353.912L264.662 353.913L265.231 354.735ZM264.814 355.262L265.731 355.661L265.739 355.643L265.746 355.624L264.814 355.262ZM264.719 355.728H265.719L265.719 355.718L264.719 355.728ZM264.719 357.774H263.719L263.719 357.777L264.719 357.774ZM265.335 360.007L266.196 359.499L266.196 359.498L265.335 360.007ZM266.755 361.475H267.755V360.927L267.293 360.632L266.755 361.475ZM272.436 353.286L271.489 352.966L270.936 354.602L272.63 354.267L272.436 353.286ZM272.559 353.286L272.365 354.267L272.461 354.286H272.559V353.286ZM272.668 353.337L273.387 352.642L273.215 352.464L272.98 352.387L272.668 353.337ZM272.815 353.524L273.766 353.214L273.727 353.095L273.659 352.988L272.815 353.524ZM272.843 353.682H273.843V353.662L273.842 353.642L272.843 353.682ZM272.843 358.133L271.843 358.133L271.843 358.134L272.843 358.133ZM271.74 360.71L271.048 359.989L271.039 359.998L271.74 360.71ZM271.622 360.827L270.92 360.114L270.622 360.408V360.827H271.622ZM271.622 362.943V363.943H272.622V362.943H271.622ZM267.541 362.943H266.541V363.943H267.541V362.943ZM267.541 360.976H268.541V360.408L268.052 360.117L267.541 360.976ZM267.337 360.855L267.849 359.996L267.837 359.989L267.826 359.982L267.337 360.855ZM266.012 359.559L266.874 359.053L266.87 359.046L266.867 359.04L266.012 359.559ZM265.501 357.737L264.501 357.737L264.501 357.737L265.501 357.737ZM265.501 355.705L264.501 355.697V355.705H265.501ZM265.581 355.481L266.358 356.11L266.411 356.045L266.453 355.971L265.581 355.481ZM265.756 355.318L265.51 354.349L265.415 354.373L265.327 354.415L265.756 355.318ZM265.903 355.281L265.967 354.283L265.81 354.273L265.657 354.311L265.903 355.281ZM266.021 355.309L265.632 356.23L265.722 356.268L265.818 356.288L266.021 355.309ZM266.13 355.36L265.504 356.14L265.56 356.184L265.621 356.221L266.13 355.36ZM266.277 355.532L267.23 355.23L267.221 355.2L267.209 355.17L266.277 355.532ZM266.305 355.691L265.306 355.738L265.351 356.691H266.305V355.691ZM267.124 355.691V356.691H268.124V355.691H267.124ZM267.124 352.097H268.124V352.087L268.124 352.077L267.124 352.097ZM267.191 351.86L268.036 352.394L268.04 352.387L268.044 352.381L267.191 351.86ZM267.366 351.715L267.718 352.651L267.804 352.619L267.883 352.571L267.366 351.715ZM267.513 351.673L267.577 350.675L267.538 350.673L267.498 350.673L267.513 351.673ZM267.631 351.701L267.242 352.622L267.382 352.682L267.534 352.697L267.631 351.701ZM267.74 351.739L268.309 350.916L268.292 350.904L268.274 350.893L267.74 351.739ZM267.887 351.925L266.953 352.283L266.991 352.383L267.05 352.473L267.887 351.925ZM267.929 352.083L266.931 352.028L266.872 353.083H267.929V352.083ZM268.805 352.083V353.083H269.805V352.083H268.805ZM268.805 351.291H269.805V351.28L269.805 351.27L268.805 351.291ZM268.885 351.067L269.644 351.719L269.705 351.648L269.752 351.567L268.885 351.067ZM269.061 350.909L268.723 349.968L268.684 349.981L268.648 349.998L269.061 350.909ZM269.207 350.881L269.24 351.88L269.309 351.878L269.378 351.866L269.207 350.881ZM269.326 350.881L269.654 349.936L269.577 349.91L269.497 349.896L269.326 350.881ZM269.435 350.932L270.017 350.12L269.986 350.097L269.954 350.077L269.435 350.932ZM269.581 351.105L270.535 350.802L270.511 350.729L270.478 350.661L269.581 351.105ZM269.61 351.263H270.61V351.24L270.609 351.216L269.61 351.263ZM269.61 352.069H268.61V353.069H269.61V352.069ZM270.429 352.069V353.069H271.581L271.419 351.929L270.429 352.069ZM270.429 351.948L269.462 351.691L269.447 351.749L269.439 351.808L270.429 351.948ZM270.486 351.846L271.217 352.528L271.293 352.446L271.349 352.35L270.486 351.846ZM270.661 351.701L270.995 352.644L271.075 352.615L271.149 352.574L270.661 351.701ZM270.822 351.659L270.886 350.661L270.853 350.659L270.821 350.659L270.822 351.659ZM270.94 351.687L270.551 352.608L270.586 352.623L270.621 352.635L270.94 351.687ZM271.035 351.739L270.415 352.523L270.452 352.552L270.492 352.578L271.035 351.739ZM271.181 351.925L270.237 352.253L270.268 352.342L270.315 352.425L271.181 351.925ZM271.224 352.083L272.224 352.083L272.224 352.082L271.224 352.083ZM271.224 353.668H270.224V354.668H271.224V353.668ZM272.029 353.668V354.668H273.005L273.029 353.692L272.029 353.668ZM272.053 353.547L272.988 353.9L273.053 353.73L273.053 353.547L272.053 353.547ZM272.095 353.444L271.262 352.892L271.2 352.984L271.161 353.088L272.095 353.444ZM272.28 353.3L271.943 352.358L271.941 352.359L272.28 353.3ZM272.441 353.272L273.388 353.592L273.835 352.27L272.44 352.272L272.441 353.272ZM266.755 363.763V364.763H272.436V363.763V362.763H266.755V363.763ZM272.436 363.763H273.436V361.172H272.436H271.436V363.763H272.436ZM272.436 361.172L273.161 361.861C273.596 361.403 273.951 360.875 274.209 360.301L273.298 359.89L272.386 359.48C272.22 359.848 271.992 360.187 271.711 360.483L272.436 361.172ZM273.298 359.89L274.217 360.283C274.506 359.608 274.655 358.883 274.657 358.15L273.657 358.147L272.657 358.144C272.656 358.609 272.561 359.068 272.378 359.497L273.298 359.89ZM273.657 358.147H274.657V353.696H273.657H272.657V358.147H273.657ZM273.657 353.696L274.657 353.673C274.648 353.258 274.526 352.855 274.306 352.504L273.459 353.034L272.611 353.565C272.641 353.612 272.656 353.666 272.658 353.719L273.657 353.696ZM273.459 353.034L274.31 352.509C274.081 352.139 273.749 351.845 273.355 351.662L272.933 352.568L272.511 353.475C272.553 353.494 272.586 353.525 272.608 353.559L273.459 353.034ZM272.933 352.568L273.371 351.669C273.085 351.53 272.77 351.459 272.453 351.461L272.46 352.461L272.467 353.461C272.477 353.461 272.487 353.463 272.495 353.467L272.933 352.568ZM272.46 352.461V351.461H272.431V352.461V353.461H272.46V352.461ZM272.431 352.461L272.456 351.461C272.223 351.456 271.991 351.489 271.769 351.559L272.072 352.512L272.374 353.465C272.385 353.462 272.396 353.46 272.407 353.461L272.431 352.461ZM272.072 352.512L272.072 351.512C272.044 351.512 272.028 351.512 272.019 351.512V352.512V353.512C272.028 353.512 272.044 353.512 272.072 353.512L272.072 352.512ZM272.019 352.512H273.019V352.046H272.019H271.019V352.512H272.019ZM272.019 352.046L273.019 352.063C273.027 351.614 272.891 351.176 272.635 350.81L271.816 351.384L270.997 351.958C271.013 351.981 271.02 352.006 271.02 352.03L272.019 352.046ZM271.816 351.384L272.688 350.894C272.466 350.501 272.125 350.19 271.715 350.006L271.305 350.918L270.894 351.83C270.918 351.841 270.935 351.857 270.944 351.874L271.816 351.384ZM271.305 350.918L271.724 350.01C271.448 349.883 271.148 349.815 270.844 349.811L270.831 350.811L270.818 351.811C270.842 351.811 270.865 351.817 270.885 351.826L271.305 350.918ZM270.831 350.811V349.811H270.793V350.811V351.811H270.831V350.811ZM270.793 350.811L270.804 349.811C270.58 349.809 270.357 349.84 270.143 349.904L270.429 350.862L270.715 351.821C270.737 351.814 270.76 351.811 270.783 351.811L270.793 350.811ZM270.429 350.862L270.325 349.868C270.143 349.887 269.968 349.947 269.813 350.046L270.348 350.89L270.884 351.735C270.777 351.802 270.657 351.844 270.533 351.857L270.429 350.862ZM270.348 350.89L271.262 350.485C271.316 350.606 271.344 350.737 271.344 350.872L270.344 350.872L269.344 350.872C269.344 351.019 269.375 351.163 269.434 351.296L270.348 350.89ZM270.344 350.872L271.344 350.872C271.344 351.006 271.316 351.137 271.262 351.258L270.348 350.853L269.434 350.448C269.375 350.58 269.344 350.725 269.344 350.872L270.344 350.872ZM270.348 350.853L271.28 350.49C271.219 350.333 271.138 350.184 271.041 350.046L270.225 350.625L269.41 351.203C269.413 351.208 269.415 351.212 269.416 351.216L270.348 350.853ZM270.225 350.625L271.056 350.067C270.853 349.766 270.579 349.52 270.259 349.351L269.791 350.234L269.323 351.118C269.354 351.134 269.378 351.157 269.395 351.182L270.225 350.625ZM269.791 350.234L270.259 349.351C269.939 349.181 269.583 349.093 269.221 349.093L269.222 350.093L269.222 351.093C269.258 351.093 269.293 351.102 269.323 351.118L269.791 350.234ZM269.222 350.093V349.093H269.179V350.093V351.093H269.222V350.093ZM269.179 350.093L269.15 349.094C268.927 349.1 268.706 349.14 268.495 349.212L268.819 350.159L269.143 351.105C269.164 351.097 269.186 351.093 269.208 351.093L269.179 350.093ZM268.819 350.159L268.473 349.22C268.291 349.288 268.116 349.376 267.954 349.484L268.507 350.317L269.06 351.15C269.092 351.129 269.128 351.111 269.165 351.097L268.819 350.159ZM268.507 350.317L267.915 349.511C267.587 349.752 267.328 350.074 267.165 350.447L268.081 350.848L268.997 351.249C269.018 351.201 269.053 351.157 269.099 351.123L268.507 350.317ZM268.081 350.848H267.081C267.081 350.791 267.086 350.743 267.091 350.709C267.097 350.675 267.103 350.647 267.108 350.627C267.118 350.589 267.128 350.564 267.13 350.558C267.133 350.551 267.134 350.548 267.129 350.56C267.127 350.565 267.115 350.594 267.104 350.623L268.038 350.979L268.973 351.335C268.969 351.345 268.965 351.353 268.972 351.336C268.977 351.326 268.988 351.299 268.999 351.27C269.01 351.24 269.028 351.191 269.044 351.131C269.058 351.077 269.081 350.975 269.081 350.848H268.081ZM268.038 350.979L268.384 350.04C268.115 349.941 267.83 349.894 267.544 349.9L267.565 350.9L267.586 351.899C267.622 351.899 267.659 351.905 267.692 351.917L268.038 350.979ZM267.565 350.9V349.9H267.536V350.9V351.9H267.565V350.9ZM267.536 350.9L267.506 349.9C267.31 349.906 267.116 349.934 266.926 349.983L267.176 350.951L267.427 351.919C267.472 351.907 267.519 351.901 267.566 351.899L267.536 350.9ZM267.176 350.951L266.871 349.999C266.633 350.075 266.412 350.197 266.22 350.358L266.864 351.123L267.508 351.888C267.499 351.896 267.49 351.9 267.482 351.903L267.176 350.951ZM266.864 351.123L266.272 350.317C265.944 350.558 265.685 350.88 265.522 351.254L266.438 351.655L267.354 352.056C267.375 352.007 267.41 351.963 267.456 351.929L266.864 351.123ZM266.438 351.655L265.512 351.276C265.404 351.54 265.347 351.823 265.343 352.108L266.343 352.121L267.343 352.133C267.344 352.099 267.35 352.065 267.364 352.033L266.438 351.655ZM266.343 352.121H265.343V354.577H266.343H267.343V352.121H266.343ZM266.343 354.577L266.641 353.622C266.421 353.553 266.191 353.516 265.96 353.512L265.941 354.512L265.922 355.511C265.964 355.512 266.005 355.519 266.045 355.531L266.343 354.577ZM265.941 354.512V353.512H265.898V354.512V355.512H265.941V354.512ZM265.898 354.512L265.869 353.512C265.646 353.519 265.425 353.559 265.214 353.631L265.538 354.577L265.863 355.523C265.883 355.516 265.905 355.512 265.927 355.511L265.898 354.512ZM265.538 354.577L265.197 353.637C265.008 353.706 264.829 353.798 264.664 353.912L265.231 354.735L265.798 355.559C265.823 355.542 265.851 355.527 265.88 355.517L265.538 354.577ZM265.231 354.735L264.662 353.913C264.31 354.156 264.037 354.5 263.882 354.9L264.814 355.262L265.746 355.624C265.756 355.599 265.773 355.576 265.8 355.558L265.231 354.735ZM264.814 355.262L263.897 354.863C263.777 355.139 263.717 355.437 263.719 355.738L264.719 355.728L265.719 355.718C265.719 355.699 265.723 355.68 265.731 355.661L264.814 355.262ZM264.719 355.728H263.719V357.774H264.719H265.719V355.728H264.719ZM264.719 357.774L263.719 357.777C263.722 358.74 263.983 359.685 264.474 360.516L265.335 360.007L266.196 359.498C265.885 358.972 265.721 358.377 265.719 357.771L264.719 357.774ZM265.335 360.007L264.474 360.515C264.904 361.244 265.502 361.861 266.217 362.318L266.755 361.475L267.293 360.632C266.841 360.343 266.465 359.955 266.196 359.499L265.335 360.007ZM266.755 361.475H265.755V363.763H266.755H267.755V361.475H266.755ZM272.436 353.286L272.63 354.267C272.543 354.284 272.453 354.284 272.365 354.267L272.559 353.286L272.753 352.305C272.584 352.272 272.411 352.272 272.242 352.305L272.436 353.286ZM272.559 353.286V354.286C272.416 354.286 272.294 354.253 272.202 354.214C272.12 354.18 272.064 354.142 272.058 354.138C272.055 354.136 272.054 354.135 272.055 354.136C272.056 354.137 272.056 354.136 272.058 354.138C272.059 354.139 272.061 354.14 272.064 354.142C272.072 354.147 272.091 354.16 272.115 354.175C272.164 354.205 272.246 354.251 272.356 354.287L272.668 353.337L272.98 352.387C273.069 352.416 273.132 352.453 273.163 352.472C273.178 352.481 273.188 352.488 273.188 352.488C273.196 352.493 273.177 352.48 273.169 352.475C273.126 352.446 272.896 352.286 272.559 352.286V353.286ZM272.668 353.337L271.949 354.032C271.957 354.041 271.964 354.05 271.97 354.059L272.815 353.524L273.659 352.988C273.581 352.864 273.489 352.748 273.387 352.642L272.668 353.337ZM272.815 353.524L271.864 353.833C271.852 353.797 271.845 353.76 271.844 353.722L272.843 353.682L273.842 353.642C273.837 353.497 273.811 353.353 273.766 353.214L272.815 353.524ZM272.843 353.682H271.843V358.133H272.843H273.843V353.682H272.843ZM272.843 358.133L271.843 358.134C271.844 358.479 271.774 358.82 271.637 359.138L272.557 359.532L273.476 359.925C273.719 359.358 273.844 358.748 273.843 358.132L272.843 358.133ZM272.557 359.532L271.637 359.138C271.501 359.457 271.301 359.746 271.048 359.989L271.74 360.71L272.432 361.432C272.878 361.004 273.233 360.492 273.476 359.925L272.557 359.532ZM271.74 360.71L271.039 359.998L270.92 360.114L271.622 360.827L272.323 361.54L272.442 361.423L271.74 360.71ZM271.622 360.827H270.622V362.943H271.622H272.622V360.827H271.622ZM271.622 362.943V361.943H267.541V362.943V363.943H271.622V362.943ZM267.541 362.943H268.541V360.976H267.541H266.541V362.943H267.541ZM267.541 360.976L268.052 360.117L267.849 359.996L267.337 360.855L266.826 361.714L267.029 361.835L267.541 360.976ZM267.337 360.855L267.826 359.982C267.429 359.76 267.101 359.439 266.874 359.053L266.012 359.559L265.15 360.066C265.557 360.76 266.144 361.333 266.849 361.728L267.337 360.855ZM266.012 359.559L266.867 359.04C266.627 358.645 266.501 358.195 266.501 357.737L265.501 357.737L264.501 357.737C264.501 358.563 264.728 359.372 265.157 360.078L266.012 359.559ZM265.501 357.737H266.501V355.705H265.501H264.501V357.737H265.501ZM265.501 355.705L266.501 355.713C266.499 355.859 266.448 355.999 266.358 356.11L265.581 355.481L264.804 354.852C264.611 355.09 264.503 355.388 264.501 355.697L265.501 355.705ZM265.581 355.481L266.453 355.971C266.39 356.082 266.296 356.169 266.185 356.221L265.756 355.318L265.327 354.415C265.068 354.538 264.851 354.738 264.709 354.991L265.581 355.481ZM265.756 355.318L266.002 356.287L266.149 356.25L265.903 355.281L265.657 354.311L265.51 354.349L265.756 355.318ZM265.903 355.281L265.838 356.279C265.768 356.274 265.698 356.258 265.632 356.23L266.021 355.309L266.411 354.388C266.27 354.328 266.12 354.293 265.967 354.283L265.903 355.281ZM266.021 355.309L265.818 356.288C265.704 356.264 265.596 356.214 265.504 356.14L266.13 355.36L266.756 354.58C266.601 354.455 266.418 354.37 266.225 354.33L266.021 355.309ZM266.13 355.36L265.621 356.221C265.497 356.147 265.399 356.033 265.345 355.894L266.277 355.532L267.209 355.17C267.099 354.887 266.897 354.652 266.639 354.499L266.13 355.36ZM266.277 355.532L265.324 355.835C265.314 355.804 265.308 355.771 265.306 355.738L266.305 355.691L267.304 355.644C267.298 355.503 267.273 355.364 267.23 355.23L266.277 355.532ZM266.305 355.691V356.691H267.124V355.691V354.691H266.305V355.691ZM267.124 355.691H268.124V352.097H267.124H266.124V355.691H267.124ZM267.124 352.097L268.124 352.077C268.126 352.19 268.095 352.3 268.036 352.394L267.191 351.86L266.345 351.326C266.196 351.562 266.119 351.837 266.125 352.118L267.124 352.097ZM267.191 351.86L268.044 352.381C267.967 352.507 267.851 352.601 267.718 352.651L267.366 351.715L267.014 350.779C266.734 350.885 266.495 351.08 266.337 351.339L267.191 351.86ZM267.366 351.715L267.883 352.571C267.775 352.637 267.652 352.671 267.527 352.673L267.513 351.673L267.498 350.673C267.27 350.677 267.045 350.74 266.849 350.859L267.366 351.715ZM267.513 351.673L267.448 352.671C267.377 352.667 267.307 352.65 267.242 352.622L267.631 351.701L268.02 350.78C267.879 350.721 267.729 350.685 267.577 350.675L267.513 351.673ZM267.631 351.701L267.534 352.697C267.418 352.685 267.305 352.647 267.205 352.584L267.74 351.739L268.274 350.893C268.109 350.789 267.921 350.725 267.728 350.706L267.631 351.701ZM267.74 351.739L267.171 352.561C267.073 352.493 266.997 352.397 266.953 352.283L267.887 351.925L268.82 351.567C268.719 351.302 268.54 351.076 268.309 350.916L267.74 351.739ZM267.887 351.925L267.05 352.473C266.964 352.342 266.922 352.186 266.931 352.028L267.929 352.083L268.928 352.139C268.943 351.869 268.87 351.602 268.723 351.377L267.887 351.925ZM267.929 352.083V353.083H268.805V352.083V351.083H267.929V352.083ZM268.805 352.083H269.805V351.291H268.805H267.805V352.083H268.805ZM268.805 351.291L269.805 351.27C269.808 351.436 269.75 351.596 269.644 351.719L268.885 351.067L268.127 350.416C267.914 350.664 267.798 350.983 267.805 351.312L268.805 351.291ZM268.885 351.067L269.752 351.567C269.687 351.68 269.588 351.768 269.474 351.82L269.061 350.909L268.648 349.998C268.385 350.117 268.165 350.316 268.019 350.568L268.885 351.067ZM269.061 350.909L269.399 351.85C269.347 351.869 269.294 351.879 269.24 351.88L269.207 350.881L269.175 349.881C269.021 349.886 268.868 349.915 268.723 349.968L269.061 350.909ZM269.207 350.881L269.378 351.866C269.304 351.879 269.229 351.879 269.155 351.866L269.326 350.881L269.497 349.896C269.344 349.869 269.189 349.869 269.036 349.896L269.207 350.881ZM269.326 350.881L268.997 351.825C268.969 351.816 268.941 351.803 268.916 351.787L269.435 350.932L269.954 350.077C269.859 350.02 269.759 349.973 269.654 349.936L269.326 350.881ZM269.435 350.932L268.852 351.745C268.782 351.695 268.725 351.628 268.685 351.548L269.581 351.105L270.478 350.661C270.37 350.445 270.212 350.259 270.017 350.12L269.435 350.932ZM269.581 351.105L268.628 351.407C268.618 351.376 268.612 351.343 268.611 351.31L269.61 351.263L270.609 351.216C270.602 351.075 270.577 350.936 270.535 350.802L269.581 351.105ZM269.61 351.263H268.61V352.069H269.61H270.61V351.263H269.61ZM269.61 352.069V353.069H270.429V352.069V351.069H269.61V352.069ZM270.429 352.069L271.419 351.929C271.426 351.982 271.426 352.036 271.419 352.089L270.429 351.948L269.439 351.808C269.42 351.941 269.42 352.077 269.439 352.21L270.429 352.069ZM270.429 351.948L271.395 352.205C271.363 352.327 271.301 352.437 271.217 352.528L270.486 351.846L269.754 351.164C269.616 351.312 269.515 351.493 269.462 351.691L270.429 351.948ZM270.486 351.846L271.349 352.35C271.268 352.489 271.141 352.592 270.995 352.644L270.661 351.701L270.327 350.759C270.033 350.863 269.782 351.068 269.622 351.342L270.486 351.846ZM270.661 351.701L271.149 352.574C271.048 352.63 270.936 352.659 270.823 352.659L270.822 351.659L270.821 350.659C270.594 350.66 270.371 350.717 270.173 350.828L270.661 351.701ZM270.822 351.659L270.757 352.657C270.686 352.653 270.617 352.636 270.551 352.608L270.94 351.687L271.329 350.766C271.188 350.707 271.039 350.671 270.886 350.661L270.822 351.659ZM270.94 351.687L270.621 352.635C270.547 352.61 270.477 352.572 270.415 352.523L271.035 351.739L271.655 350.954C271.536 350.86 271.402 350.788 271.259 350.739L270.94 351.687ZM271.035 351.739L270.492 352.578C270.375 352.503 270.284 352.389 270.237 352.253L271.181 351.925L272.126 351.597C272.026 351.308 271.832 351.063 271.578 350.899L271.035 351.739ZM271.181 351.925L270.315 352.425C270.256 352.322 270.224 352.205 270.224 352.084L271.224 352.083L272.224 352.082C272.224 351.851 272.163 351.625 272.048 351.425L271.181 351.925ZM271.224 352.083H270.224V353.668H271.224H272.224V352.083H271.224ZM271.224 353.668V354.668H272.029V353.668V352.668H271.224V353.668ZM272.029 353.668L273.029 353.692C273.027 353.764 273.013 353.834 272.988 353.9L272.053 353.547L271.117 353.193C271.063 353.337 271.033 353.49 271.029 353.644L272.029 353.668ZM272.053 353.547L273.053 353.547C273.053 353.788 272.957 353.955 272.947 353.974C272.943 353.981 272.94 353.985 272.943 353.981C272.944 353.979 272.951 353.967 272.958 353.954C272.973 353.927 273.002 353.872 273.03 353.8L272.095 353.444L271.161 353.088C271.181 353.035 271.202 352.997 271.207 352.988C271.209 352.983 271.212 352.98 271.208 352.986C271.206 352.99 271.198 353.003 271.19 353.018C271.162 353.069 271.053 353.269 271.053 353.547L272.053 353.547ZM272.095 353.444L272.929 353.997C272.853 354.111 272.743 354.196 272.619 354.241L272.28 353.3L271.941 352.359C271.665 352.459 271.426 352.644 271.262 352.892L272.095 353.444ZM272.28 353.3L272.616 354.242C272.56 354.262 272.501 354.272 272.442 354.272L272.441 353.272L272.44 352.272C272.271 352.272 272.103 352.301 271.943 352.358L272.28 353.3ZM272.441 353.272L271.493 352.952L271.489 352.966L272.436 353.286L273.383 353.606L273.388 353.592L272.441 353.272Z" fill="white" fill-opacity="0.5" mask="url(#path-53-inside-1_4094_56)"/>
<line x1="264.49" y1="340.725" x2="337.143" y2="340.725" stroke="white" stroke-opacity="0.5"/>
<line x1="383.673" y1="340.725" x2="458.776" y2="340.725" stroke="white" stroke-opacity="0.5"/>
<line x1="362.133" y1="315.918" x2="362.133" y2="377.959" stroke="white" stroke-opacity="0.5"/>
<path d="M326.531 200H432.653V252.245H326.531V200Z" fill="#D9D9D9" fill-opacity="0.1"/>
<line x1="301.227" y1="225.623" x2="326.533" y2="225.623" stroke="#9E0900" stroke-opacity="0.3"/>
<line x1="301.724" y1="226.123" x2="301.724" y2="309.388" stroke="#9E0900" stroke-opacity="0.3"/>
</svg>
