<svg width="487" height="400" viewBox="0 0 487 400" fill="none" xmlns="http://www.w3.org/2000/svg">
<rect width="486.531" height="400" fill="black"/>
<path d="M277.039 314.89C279.118 314.891 281.15 314.276 282.879 313.122C284.608 311.969 285.956 310.328 286.752 308.408C287.548 306.488 287.756 304.375 287.351 302.336C286.946 300.297 285.945 298.425 284.476 296.955C283.006 295.485 281.133 294.485 279.095 294.079C277.056 293.674 274.943 293.883 273.023 294.679C271.103 295.475 269.462 296.823 268.308 298.552C267.154 300.281 266.539 302.313 266.541 304.391C266.545 307.175 267.652 309.843 269.62 311.811C271.588 313.779 274.256 314.886 277.039 314.89Z" stroke="white" stroke-opacity="0.5" stroke-width="2" stroke-miterlimit="10"/>
<path d="M277.038 293.893V296.938" stroke="white" stroke-opacity="0.5" stroke-width="2" stroke-miterlimit="10"/>
<path d="M287.539 304.392H284.494" stroke="white" stroke-opacity="0.5" stroke-width="2" stroke-miterlimit="10"/>
<path d="M277.038 314.89V311.845" stroke="white" stroke-opacity="0.5" stroke-width="2" stroke-miterlimit="10"/>
<path d="M266.534 304.392H269.58" stroke="white" stroke-opacity="0.5" stroke-width="2" stroke-miterlimit="10"/>
<path d="M276.974 301.68V304.391L280.42 307.837" stroke="white" stroke-opacity="0.5" stroke-width="2" stroke-miterlimit="10"/>
<path d="M276.618 375.503C278.697 375.505 280.729 374.89 282.457 373.736C284.186 372.583 285.534 370.942 286.33 369.023C287.126 367.103 287.335 364.991 286.931 362.952C286.526 360.914 285.526 359.041 284.057 357.571C282.588 356.101 280.716 355.1 278.678 354.694C276.64 354.288 274.527 354.495 272.607 355.29C270.687 356.085 269.046 357.432 267.891 359.16C266.736 360.887 266.12 362.919 266.12 364.997C266.124 367.781 267.231 370.45 269.199 372.419C271.167 374.388 273.835 375.497 276.618 375.503Z" stroke="white" stroke-opacity="0.5" stroke-width="2" stroke-miterlimit="10"/>
<path d="M276.617 371.554V358.448" stroke="white" stroke-opacity="0.5" stroke-width="2" stroke-miterlimit="10"/>
<path d="M462.132 364.997C462.133 367.076 461.518 369.108 460.364 370.837C459.211 372.566 457.57 373.913 455.65 374.709C453.73 375.505 451.617 375.714 449.578 375.309C447.539 374.904 445.667 373.903 444.197 372.433C442.727 370.964 441.727 369.091 441.321 367.052C440.916 365.014 441.125 362.901 441.921 360.981C442.717 359.061 444.065 357.42 445.794 356.266C447.522 355.112 449.555 354.497 451.633 354.499C454.417 354.501 457.086 355.607 459.055 357.576C461.023 359.544 462.13 362.213 462.132 364.997Z" stroke="white" stroke-opacity="0.5" stroke-width="2" stroke-miterlimit="10"/>
<path d="M445.074 365.004H458.181" stroke="white" stroke-opacity="0.5" stroke-width="2" stroke-miterlimit="10"/>
<path d="M462.132 304.621C462.132 306.699 461.516 308.731 460.361 310.459C459.206 312.187 457.565 313.533 455.645 314.328C453.724 315.123 451.612 315.331 449.574 314.925C447.535 314.519 445.663 313.517 444.194 312.047C442.725 310.577 441.725 308.705 441.321 306.666C440.916 304.628 441.125 302.515 441.922 300.596C442.718 298.676 444.066 297.036 445.794 295.882C447.523 294.729 449.555 294.114 451.633 294.115C454.418 294.117 457.089 295.225 459.057 297.195C461.026 299.165 462.132 301.836 462.132 304.621Z" stroke="#9E0900" stroke-width="2" stroke-miterlimit="10"/>
<path d="M445.074 304.621H458.181" stroke="#9E0900" stroke-width="2" stroke-miterlimit="10"/>
<path d="M451.624 298.072V311.178" stroke="#9E0900" stroke-width="2" stroke-miterlimit="10"/>
<path d="M316.943 365.004H337.94" stroke="white" stroke-opacity="0.5" stroke-width="2" stroke-miterlimit="10"/>
<path d="M327.446 354.506V375.503" stroke="white" stroke-opacity="0.5" stroke-width="2" stroke-miterlimit="10"/>
<path fill-rule="evenodd" clip-rule="evenodd" d="M321.33 373.399C321.781 373.397 322.221 373.263 322.595 373.011C322.969 372.76 323.261 372.403 323.432 371.987C323.604 371.57 323.649 371.112 323.561 370.67C323.472 370.228 323.255 369.822 322.936 369.503C322.618 369.185 322.212 368.967 321.77 368.879C321.328 368.791 320.87 368.835 320.453 369.007C320.036 369.179 319.68 369.47 319.428 369.845C319.177 370.219 319.042 370.659 319.041 371.11C319.041 371.717 319.282 372.299 319.711 372.728C320.141 373.158 320.723 373.399 321.33 373.399Z" fill="white" fill-opacity="0.5"/>
<path d="M321.574 369.859C321.822 369.909 322.05 370.031 322.229 370.21C322.408 370.389 322.53 370.618 322.58 370.866C322.629 371.114 322.604 371.371 322.508 371.605C322.411 371.839 322.248 372.04 322.038 372.181C321.828 372.322 321.581 372.396 321.328 372.397C320.987 372.397 320.66 372.263 320.419 372.021C320.178 371.78 320.042 371.453 320.041 371.112C320.042 370.859 320.118 370.612 320.259 370.402C320.4 370.192 320.6 370.028 320.834 369.932C321.068 369.835 321.326 369.81 321.574 369.859Z" stroke="white" stroke-opacity="0.5" stroke-width="2"/>
<path d="M316.943 304.392H337.94" stroke="white" stroke-opacity="0.5" stroke-width="2" stroke-miterlimit="10"/>
<path d="M327.446 314.89V293.893" stroke="white" stroke-opacity="0.5" stroke-width="2" stroke-miterlimit="10"/>
<path fill-rule="evenodd" clip-rule="evenodd" d="M321.33 300.546C321.782 300.544 322.223 300.409 322.598 300.157C322.972 299.904 323.263 299.547 323.435 299.129C323.606 298.711 323.649 298.251 323.559 297.809C323.469 297.366 323.249 296.96 322.928 296.642C322.608 296.325 322.2 296.109 321.756 296.023C321.313 295.938 320.854 295.985 320.438 296.161C320.021 296.336 319.666 296.631 319.418 297.008C319.169 297.385 319.038 297.827 319.041 298.279C319.047 298.882 319.29 299.459 319.719 299.883C320.148 300.308 320.727 300.546 321.33 300.546Z" fill="white" fill-opacity="0.5"/>
<path d="M321.566 297.005C321.815 297.054 322.044 297.175 322.224 297.353C322.405 297.532 322.528 297.76 322.579 298.008C322.629 298.257 322.606 298.515 322.51 298.75C322.413 298.984 322.249 299.186 322.039 299.328C321.829 299.469 321.581 299.543 321.328 299.544C320.989 299.544 320.664 299.411 320.423 299.172C320.212 298.963 320.08 298.689 320.049 298.396L320.041 298.269C320.04 298.016 320.114 297.769 320.253 297.558C320.392 297.346 320.591 297.181 320.825 297.083C321.059 296.984 321.317 296.957 321.566 297.005Z" stroke="white" stroke-opacity="0.5" stroke-width="2"/>
<path d="M411.722 365.004H390.724" stroke="white" stroke-opacity="0.5" stroke-width="2" stroke-miterlimit="10"/>
<path d="M401.222 354.506V375.503" stroke="white" stroke-opacity="0.5" stroke-width="2" stroke-miterlimit="10"/>
<path fill-rule="evenodd" clip-rule="evenodd" d="M407.357 373.399C407.808 373.397 408.248 373.263 408.622 373.011C408.996 372.76 409.287 372.403 409.459 371.987C409.631 371.57 409.676 371.112 409.587 370.67C409.499 370.228 409.282 369.822 408.963 369.503C408.645 369.185 408.239 368.967 407.797 368.879C407.355 368.791 406.896 368.835 406.48 369.007C406.063 369.179 405.707 369.47 405.455 369.845C405.204 370.219 405.069 370.659 405.068 371.11C405.068 371.717 405.309 372.299 405.738 372.728C406.168 373.158 406.75 373.399 407.357 373.399Z" fill="white" fill-opacity="0.5"/>
<path d="M407.601 369.859C407.849 369.909 408.077 370.031 408.256 370.21C408.435 370.389 408.557 370.618 408.607 370.866C408.656 371.114 408.631 371.371 408.534 371.605C408.438 371.839 408.275 372.04 408.065 372.181C407.855 372.322 407.608 372.396 407.355 372.397C407.014 372.397 406.687 372.263 406.446 372.021C406.204 371.78 406.068 371.453 406.068 371.112C406.069 370.859 406.144 370.612 406.285 370.402C406.427 370.192 406.627 370.028 406.861 369.932C407.095 369.835 407.353 369.81 407.601 369.859Z" stroke="white" stroke-opacity="0.5" stroke-width="2"/>
<path d="M411.722 304.392H390.724" stroke="white" stroke-opacity="0.5" stroke-width="2" stroke-miterlimit="10"/>
<path d="M401.222 314.89V293.893" stroke="white" stroke-opacity="0.5" stroke-width="2" stroke-miterlimit="10"/>
<path fill-rule="evenodd" clip-rule="evenodd" d="M407.357 300.546C407.809 300.544 408.25 300.409 408.624 300.157C408.999 299.904 409.29 299.547 409.461 299.129C409.633 298.711 409.676 298.251 409.586 297.809C409.496 297.366 409.276 296.96 408.955 296.642C408.634 296.325 408.226 296.109 407.783 296.023C407.34 295.938 406.881 295.985 406.464 296.161C406.048 296.336 405.693 296.631 405.445 297.008C405.196 297.385 405.065 297.827 405.068 298.279C405.074 298.882 405.317 299.459 405.746 299.883C406.175 300.308 406.754 300.546 407.357 300.546Z" fill="white" fill-opacity="0.5"/>
<path d="M407.593 297.005C407.842 297.054 408.071 297.175 408.251 297.353C408.432 297.532 408.555 297.76 408.606 298.008C408.656 298.257 408.632 298.515 408.536 298.75C408.44 298.984 408.276 299.186 408.066 299.328C407.856 299.469 407.608 299.543 407.355 299.544C407.016 299.544 406.69 299.411 406.449 299.172C406.238 298.963 406.107 298.689 406.075 298.396L406.068 298.269C406.067 298.016 406.14 297.769 406.28 297.558C406.419 297.346 406.618 297.181 406.852 297.083C407.086 296.984 407.344 296.957 407.593 297.005Z" stroke="white" stroke-opacity="0.5" stroke-width="2"/>
<path d="M353.843 334.694H374.848" stroke="white" stroke-opacity="0.5" stroke-width="2" stroke-miterlimit="10"/>
<path d="M364.341 324.196V345.2" stroke="white" stroke-opacity="0.5" stroke-width="2" stroke-miterlimit="10"/>
<path d="M306.459 317.268H297.746V324.996H306.459V317.268Z" stroke="white" stroke-opacity="0.5" stroke-width="2" stroke-miterlimit="10"/>
<path d="M299.385 315.853C299.385 315.132 299.672 314.44 300.182 313.93C300.691 313.42 301.383 313.134 302.104 313.134C302.825 313.134 303.517 313.42 304.027 313.93C304.537 314.44 304.823 315.132 304.823 315.853" stroke="white" stroke-opacity="0.5" stroke-width="2" stroke-miterlimit="10"/>
<path d="M299.385 315.86V317.268" stroke="white" stroke-opacity="0.5" stroke-width="2" stroke-miterlimit="10"/>
<path d="M304.825 315.86V317.268" stroke="white" stroke-opacity="0.5" stroke-width="2" stroke-miterlimit="10"/>
<path fill-rule="evenodd" clip-rule="evenodd" d="M302.096 320.306C302.14 320.306 302.184 320.315 302.225 320.332C302.266 320.349 302.303 320.375 302.334 320.406C302.365 320.438 302.39 320.476 302.406 320.517C302.422 320.558 302.43 320.603 302.429 320.647C302.429 320.708 302.412 320.767 302.379 320.819C302.346 320.87 302.299 320.91 302.244 320.936L302.407 321.944H301.799L301.97 320.936C301.911 320.915 301.86 320.876 301.825 320.824C301.791 320.772 301.774 320.71 301.777 320.647C301.775 320.56 301.807 320.475 301.867 320.412C301.927 320.348 302.009 320.31 302.096 320.306Z" fill="white" fill-opacity="0.5" stroke="white" stroke-opacity="0.5" stroke-width="2" stroke-miterlimit="10"/>
<path d="M293.32 322.469H278.502C278.032 322.466 277.582 322.275 277.251 321.941C276.921 321.606 276.737 321.154 276.739 320.684V318.395" stroke="white" stroke-opacity="0.5" stroke-width="2" stroke-miterlimit="10"/>
<path d="M310.897 322.469H325.655C325.89 322.47 326.123 322.425 326.34 322.336C326.557 322.246 326.754 322.115 326.92 321.949C327.086 321.783 327.218 321.585 327.307 321.368C327.396 321.151 327.442 320.919 327.441 320.684V318.395" stroke="white" stroke-opacity="0.5" stroke-width="2" stroke-miterlimit="10"/>
<path d="M155.096 32.6528C222.719 32.6528 277.545 87.4769 277.545 155.102M155.096 277.551C87.4723 277.551 32.6467 222.727 32.6467 155.102" stroke="white" stroke-opacity="0.25" stroke-width="2" stroke-miterlimit="10"/>
<path d="M163.543 146.658L146.652 163.551" stroke="white" stroke-opacity="0.25" stroke-width="2" stroke-miterlimit="10"/>
<path d="M333.434 241.699C333.434 245.688 335.408 247.713 339.315 247.713C343.209 247.713 345.178 245.688 345.178 241.699C345.178 237.696 343.209 235.67 339.315 235.67C335.408 235.67 333.434 237.696 333.434 241.699ZM336.294 241.699C336.294 239.072 337.138 238.007 339.291 238.007C341.489 238.007 342.314 239.035 342.314 241.699C342.314 244.33 341.468 245.394 339.291 245.394C337.108 245.394 336.294 244.372 336.294 241.699Z" fill="white"/>
<path d="M368.938 241.699C368.938 245.688 370.924 247.713 374.825 247.713C378.713 247.713 380.685 245.688 380.685 241.699C380.685 237.696 378.713 235.67 374.825 235.67C370.921 235.67 368.938 237.696 368.938 241.699ZM371.807 241.699C371.807 239.072 372.645 238.007 374.798 238.007C376.999 238.007 377.815 239.035 377.815 241.699C377.815 244.33 376.969 245.394 374.798 245.394C372.618 245.394 371.807 244.372 371.807 241.699Z" fill="white"/>
<path d="M401.718 233.181V244.103C401.718 246.328 403.055 247.508 405.589 247.508H408.059C408.694 247.508 408.978 246.942 408.978 246.398C408.978 245.851 408.694 245.285 408.059 245.285H406.626C405.317 245.285 404.633 245.203 404.633 243.652V238.37H407.859C408.494 238.37 408.779 237.801 408.779 237.251C408.779 236.71 408.494 236.141 407.859 236.141L404.633 236.147V233.181C404.633 232.428 404.098 231.975 403.224 231.975C402.52 231.975 401.718 232.292 401.718 233.181Z" fill="white"/>
<path d="M347.356 233.181V244.103C347.356 246.328 348.695 247.508 351.241 247.508H353.712C354.341 247.508 354.622 246.942 354.622 246.398C354.622 245.851 354.341 245.285 353.712 245.285H352.27C350.96 245.285 350.277 245.203 350.277 243.652V238.37H353.5C354.135 238.37 354.419 237.801 354.419 237.251C354.419 236.71 354.135 236.141 353.5 236.141H350.277V233.181C350.277 232.428 349.751 231.975 348.865 231.975C348.166 231.975 347.356 232.292 347.356 233.181Z" fill="white"/>
<path d="M393.128 235.915C389.781 235.915 388.351 237.245 388.351 240.366V246.28C388.351 247.024 388.895 247.459 389.811 247.459C390.721 247.459 391.269 247.021 391.269 246.286V240.571C391.269 238.902 391.559 238.382 393.37 238.382H394.217C396.028 238.382 396.327 238.902 396.327 240.571V246.28C396.315 247.024 396.869 247.459 397.779 247.459C398.692 247.459 399.236 247.021 399.236 246.286V240.363C399.236 237.242 397.806 235.912 394.456 235.912H393.128V235.915Z" fill="white"/>
<path d="M382.86 237.173V246.223C382.86 247.151 383.622 247.487 384.335 247.487C385.049 247.487 385.802 247.151 385.802 246.223V237.173C385.802 236.241 385.049 235.906 384.326 235.906C383.622 235.906 382.86 236.241 382.86 237.173Z" fill="white"/>
<path d="M382.675 232.746C382.675 233.668 383.422 234.412 384.323 234.412C385.242 234.412 385.98 233.668 385.98 232.746C385.98 231.827 385.245 231.074 384.323 231.074C383.422 231.074 382.675 231.827 382.675 232.746Z" fill="white"/>
<path d="M357.987 236.256C356.856 236.507 356.227 237.218 356.227 238.461V250.985C356.227 251.871 356.974 252.191 357.682 252.191C358.386 252.191 359.139 251.871 359.139 250.985V247.344C359.828 247.495 360.442 247.565 361.25 247.565C363.031 247.565 363.956 247.263 364.969 246.658C366.466 245.763 367.352 244.082 367.352 241.835C367.352 237.919 365.353 235.93 361.389 235.93C360.315 235.93 358.991 236.029 357.987 236.256ZM359.136 245.089V238.506C359.732 238.379 360.479 238.315 361.192 238.315C363.499 238.315 364.428 239.177 364.428 241.605C364.428 244.336 363.65 245.279 361.147 245.279C360.463 245.282 359.656 245.216 359.136 245.089Z" fill="white"/>
<path d="M328.354 232.836V238.14H322.098V232.836C322.098 232.087 321.572 231.642 320.686 231.642C319.993 231.642 319.18 231.954 319.18 232.836V246.268C319.18 247.018 319.712 247.468 320.601 247.468C321.3 247.468 322.098 247.154 322.098 246.268V240.801H328.354V246.265C328.354 247.015 328.886 247.465 329.772 247.465C330.461 247.465 331.275 247.151 331.275 246.265V232.836C331.275 232.087 330.74 231.642 329.851 231.642C329.161 231.642 328.354 231.954 328.354 232.836Z" fill="white"/>
</svg>
